SplineFontDB: 3.2
FontName: Zain-ExtraBold
FullName: Zain ExtraBold
FamilyName: Zain ExtraBold
Weight: Heavy
Copyright: Copyright 2024 The Zain Project Authors (https://github.com/googlefonts/zain)
Version: 1.51; ttfautohint (v1.8.4)
ItalicAngle: 0
UnderlinePosition: -100
UnderlineWidth: 50
Ascent: 800
Descent: 200
InvalidEm: 0
sfntRevision: 0x0001828f
LayerCount: 2
Layer: 0 1 "Back" 1
Layer: 1 1 "Fore" 0
XUID: [1021 736 -289526145 32035]
StyleMap: 0x0040
FSType: 0
OS2Version: 4
OS2_WeightWidthSlopeOnly: 0
OS2_UseTypoMetrics: 1
CreationTime: 1722724814
ModificationTime: 1728037139
PfmFamily: 81
TTFWeight: 800
TTFWidth: 5
LineGap: 0
VLineGap: 0
Panose: 0 0 9 0 0 0 0 0 0 0
OS2TypoAscent: 900
OS2TypoAOffset: 0
OS2TypoDescent: -500
OS2TypoDOffset: 0
OS2TypoLinegap: 0
OS2WinAscent: 881
OS2WinAOffset: 0
OS2WinDescent: 501
OS2WinDOffset: 0
HheadAscent: 900
HheadAOffset: 0
HheadDescent: -500
HheadDOffset: 0
OS2SubXSize: 650
OS2SubYSize: 600
OS2SubXOff: 0
OS2SubYOff: 75
OS2SupXSize: 650
OS2SupYSize: 600
OS2SupXOff: 0
OS2SupYOff: 350
OS2StrikeYSize: 45
OS2StrikeYPos: 267
OS2CapHeight: 556
OS2XHeight: 382
OS2Vendor: '1BOU'
OS2CodePages: 00000041.00000000
OS2UnicodeRanges: 800020af.d000204a.00000008.00000000
Lookup: 1 0 0 "'aalt' Access All Alternates lookup 0" { "'aalt' Access All Alternates lookup 0 subtable"  } ['aalt' ('DFLT' <'dflt' > 'arab' <'URD ' 'dflt' > 'latn' <'dflt' > ) ]
Lookup: 3 0 0 "'aalt' Access All Alternates lookup 1" { "'aalt' Access All Alternates lookup 1 subtable"  } ['aalt' ('DFLT' <'dflt' > 'arab' <'URD ' 'dflt' > 'latn' <'dflt' > ) ]
Lookup: 1 0 0 "Single Substitution lookup 2" { "Single Substitution lookup 2 subtable"  } []
Lookup: 1 0 0 "'sups' Superscript lookup 3" { "'sups' Superscript lookup 3 subtable" ("superior") } ['sups' ('DFLT' <'dflt' > 'arab' <'URD ' 'dflt' > 'latn' <'dflt' > ) ]

StartChar: .notdef
Encoding: 65536 -1 0
Width: 527
GlyphClass: 1
Flags: W
LayerCount: 2
Fore
SplineSet
21 555 m 1,0,-1
 506 555 l 1,1,-1
 506 -266 l 1,2,-1
 21 -266 l 1,3,-1
 21 555 l 1,0,-1
95 481 m 1,4,-1
 95 -192 l 1,5,-1
 432 -192 l 1,6,-1
 432 481 l 1,7,-1
 95 481 l 1,4,-1
210 64 m 2,8,-1
 210 88 l 2,9,10
 210 117 210 117 226 136.5 c 128,-1,11
 242 156 242 156 262.5 171.5 c 128,-1,12
 283 187 283 187 299 204 c 128,-1,13
 315 221 315 221 315 245 c 0,14,15
 315 268 315 268 299.5 280 c 128,-1,16
 284 292 284 292 257 292 c 0,17,18
 226 292 226 292 204 285 c 128,-1,19
 182 278 182 278 153 263 c 0,20,21
 146 260 146 260 142 260 c 256,22,23
 138 260 138 260 134 267 c 2,24,-1
 128 288 l 2,25,26
 121 313 121 313 127.5 329.5 c 128,-1,27
 134 346 134 346 162 357 c 0,28,29
 185 366 185 366 207 371 c 128,-1,30
 229 376 229 376 259 376 c 0,31,32
 324 376 324 376 368 347 c 128,-1,33
 412 318 412 318 412 261 c 0,34,35
 412 208 412 208 382 173 c 128,-1,36
 352 138 352 138 301 100 c 0,37,38
 292 94 292 94 289 88.5 c 128,-1,39
 286 83 286 83 286 75 c 2,40,-1
 286 64 l 2,41,42
 286 54 286 54 276 54 c 2,43,-1
 220 54 l 2,44,45
 210 54 210 54 210 64 c 2,8,-1
194 -29 m 0,46,47
 194 -5 194 -5 210.5 11 c 128,-1,48
 227 27 227 27 250 27 c 256,49,50
 273 27 273 27 288.5 11 c 128,-1,51
 304 -5 304 -5 304 -29 c 0,52,53
 304 -54 304 -54 288.5 -69.5 c 128,-1,54
 273 -85 273 -85 250 -85 c 256,55,56
 227 -85 227 -85 210.5 -69.5 c 128,-1,57
 194 -54 194 -54 194 -29 c 0,46,47
EndSplineSet
EndChar

StartChar: exclam
Encoding: 33 33 3
Width: 189
GlyphClass: 1
Flags: W
LayerCount: 2
Fore
SplineSet
46 176 m 2,0,-1
 33 543 l 2,1,2
 33 556 33 556 46 556 c 2,3,-1
 56 556 l 2,4,5
 103 556 103 556 127.5 533.5 c 128,-1,6
 152 511 152 511 150 455 c 2,7,-1
 141 176 l 2,8,9
 141 163 141 163 128 163 c 2,10,-1
 59 163 l 2,11,12
 46 163 46 163 46 176 c 2,0,-1
24 60 m 0,13,14
 24 90 24 90 44.5 110 c 128,-1,15
 65 130 65 130 94 130 c 256,16,17
 123 130 123 130 142 110 c 128,-1,18
 161 90 161 90 161 60 c 0,19,20
 161 29 161 29 142 9.5 c 128,-1,21
 123 -10 123 -10 94 -10 c 256,22,23
 65 -10 65 -10 44.5 9.5 c 128,-1,24
 24 29 24 29 24 60 c 0,13,14
EndSplineSet
Substitution2: "'locl' Localized Forms in Arabic lookup 15 subtable" exclam.ar
EndChar

StartChar: quotedbl
Encoding: 34 34 4
Width: 321
GlyphClass: 1
Flags: W
LayerCount: 2
Fore
SplineSet
42 366 m 2,0,-1
 24 543 l 2,1,2
 23 556 23 556 37 556 c 2,3,-1
 58 556 l 2,4,5
 105 556 105 556 122 538 c 128,-1,6
 139 520 139 520 133 462 c 2,7,-1
 123 366 l 2,8,9
 122 353 122 353 110 353 c 2,10,-1
 55 353 l 2,11,12
 43 353 43 353 42 366 c 2,0,-1
203 366 m 2,13,-1
 185 543 l 2,14,15
 184 556 184 556 198 556 c 2,16,-1
 219 556 l 2,17,18
 266 556 266 556 283 538 c 128,-1,19
 300 520 300 520 294 462 c 2,20,-1
 284 366 l 2,21,22
 283 353 283 353 271 353 c 2,23,-1
 216 353 l 2,24,25
 204 353 204 353 203 366 c 2,13,-1
EndSplineSet
EndChar

StartChar: numbersign
Encoding: 35 35 5
Width: 578
GlyphClass: 1
Flags: W
LayerCount: 2
Fore
SplineSet
91 137 m 1,0,-1
 31 137 l 2,1,2
 18 137 18 137 21 150 c 2,3,-1
 34 199 l 2,4,5
 37 212 37 212 50 212 c 2,6,-1
 108 212 l 1,7,-1
 140 339 l 1,8,-1
 81 339 l 2,9,10
 68 339 68 339 71 352 c 2,11,-1
 84 401 l 2,12,13
 87 413 87 413 99 413 c 2,14,-1
 158 413 l 1,15,-1
 189 543 l 2,16,17
 192 556 192 556 206 556 c 2,18,-1
 234 556 l 2,19,20
 268 556 268 556 278.5 538 c 128,-1,21
 289 520 289 520 281 488 c 2,22,-1
 263 413 l 1,23,-1
 385 413 l 1,24,-1
 416 543 l 2,25,26
 419 556 419 556 432 556 c 2,27,-1
 460 556 l 2,28,29
 495 556 495 556 505.5 538 c 128,-1,30
 516 520 516 520 508 488 c 2,31,-1
 490 413 l 1,32,-1
 550 413 l 2,33,34
 563 413 563 413 560 401 c 2,35,-1
 547 352 l 2,36,37
 544 339 544 339 531 339 c 2,38,-1
 472 339 l 1,39,-1
 440 212 l 1,40,-1
 500 212 l 2,41,42
 513 212 513 212 510 199 c 2,43,-1
 497 150 l 2,44,45
 494 137 494 137 481 137 c 2,46,-1
 422 137 l 1,47,-1
 394 13 l 2,48,49
 391 0 391 0 380 0 c 2,50,-1
 297 0 l 2,51,52
 284 0 284 0 288 13 c 2,53,-1
 317 137 l 1,54,-1
 196 137 l 1,55,-1
 166 13 l 2,56,57
 163 0 163 0 152 0 c 2,58,-1
 70 0 l 2,59,60
 57 0 57 0 61 13 c 2,61,-1
 91 137 l 1,0,-1
214 212 m 1,62,-1
 335 212 l 1,63,-1
 367 339 l 1,64,-1
 246 339 l 1,65,-1
 214 212 l 1,62,-1
EndSplineSet
EndChar

StartChar: dollar
Encoding: 36 36 6
Width: 469
GlyphClass: 1
Flags: W
LayerCount: 2
Fore
SplineSet
214 91 m 1,0,-1
 214 234 l 1,1,2
 174 247 174 247 134 265 c 128,-1,3
 94 283 94 283 67.5 315.5 c 128,-1,4
 41 348 41 348 41 403 c 0,5,6
 41 452 41 452 64.5 487 c 128,-1,7
 88 522 88 522 127.5 541.5 c 128,-1,8
 167 561 167 561 214 565 c 1,9,-1
 214 608 l 2,10,11
 214 621 214 621 227 621 c 2,12,-1
 261 621 l 2,13,14
 273 621 273 621 273 608 c 2,15,-1
 273 565 l 1,16,17
 329 562 329 562 374 547 c 0,18,19
 409 535 409 535 417.5 514 c 128,-1,20
 426 493 426 493 418 461 c 2,21,-1
 412 439 l 2,22,23
 409 426 409 426 400 426 c 0,24,25
 393 426 393 426 383 431 c 0,26,27
 358 443 358 443 331 451 c 128,-1,28
 304 459 304 459 273 462 c 1,29,-1
 273 330 l 1,30,31
 313 318 313 318 352 300 c 128,-1,32
 391 282 391 282 417 251 c 128,-1,33
 443 220 443 220 443 166 c 0,34,35
 443 99 443 99 397.5 51.5 c 128,-1,36
 352 4 352 4 273 -7 c 1,37,-1
 273 -52 l 2,38,39
 273 -65 273 -65 261 -65 c 2,40,-1
 227 -65 l 2,41,42
 214 -65 214 -65 214 -52 c 2,43,-1
 214 -10 l 1,44,45
 149 -8 149 -8 106 14.5 c 128,-1,46
 63 37 63 37 42.5 70.5 c 128,-1,47
 22 104 22 104 22 140 c 0,48,49
 22 163 22 163 37 163 c 0,50,51
 43 163 43 163 47 159 c 0,52,53
 79 131 79 131 117.5 112 c 128,-1,54
 156 93 156 93 214 91 c 1,0,-1
214 350 m 1,55,-1
 214 463 l 1,56,57
 153 455 153 455 153 409 c 0,58,59
 153 387 153 387 170 374 c 128,-1,60
 187 361 187 361 214 350 c 1,55,-1
273 213 m 1,61,-1
 273 97 l 1,62,63
 330 112 330 112 330 155 c 0,64,65
 330 176 330 176 314.5 189.5 c 128,-1,66
 299 203 299 203 273 213 c 1,61,-1
EndSplineSet
EndChar

StartChar: percent
Encoding: 37 37 7
Width: 829
GlyphClass: 1
Flags: W
LayerCount: 2
Fore
SplineSet
180 223 m 256,0,1
 112 223 112 223 70 271 c 128,-1,2
 28 319 28 319 28 396 c 0,3,4
 28 472 28 472 70 519 c 128,-1,5
 112 566 112 566 180 566 c 256,6,7
 248 566 248 566 291 519 c 128,-1,8
 334 472 334 472 334 396 c 0,9,10
 334 319 334 319 291 271 c 128,-1,11
 248 223 248 223 180 223 c 256,0,1
217 0 m 2,12,13
 211 0 211 0 209.5 4.5 c 128,-1,14
 208 9 208 9 210 13 c 2,15,-1
 501 543 l 2,16,17
 509 556 509 556 521 556 c 2,18,-1
 545 556 l 2,19,20
 579 556 579 556 589 534.5 c 128,-1,21
 599 513 599 513 584 484 c 2,22,-1
 324 13 l 2,23,24
 317 0 317 0 305 0 c 2,25,-1
 217 0 l 2,12,13
180 303 m 256,26,27
 204 303 204 303 226 322 c 128,-1,28
 248 341 248 341 248 394 c 256,29,30
 248 447 248 447 226 466.5 c 128,-1,31
 204 486 204 486 180 486 c 256,32,33
 156 486 156 486 135 466.5 c 128,-1,34
 114 447 114 447 114 394 c 256,35,36
 114 341 114 341 135 322 c 128,-1,37
 156 303 156 303 180 303 c 256,26,27
647 -9 m 0,38,39
 579 -9 579 -9 537 39.5 c 128,-1,40
 495 88 495 88 495 164 c 256,41,42
 495 240 495 240 537 287.5 c 128,-1,43
 579 335 579 335 647 335 c 0,44,45
 716 335 716 335 758.5 287.5 c 128,-1,46
 801 240 801 240 801 164 c 256,47,48
 801 88 801 88 758.5 39.5 c 128,-1,49
 716 -9 716 -9 647 -9 c 0,38,39
647 72 m 256,50,51
 671 72 671 72 693 90.5 c 128,-1,52
 715 109 715 109 715 162 c 256,53,54
 715 215 715 215 693 234.5 c 128,-1,55
 671 254 671 254 647 254 c 256,56,57
 623 254 623 254 602.5 234.5 c 128,-1,58
 582 215 582 215 582 162 c 256,59,60
 582 109 582 109 602.5 90.5 c 128,-1,61
 623 72 623 72 647 72 c 256,50,51
EndSplineSet
EndChar

StartChar: ampersand
Encoding: 38 38 8
Width: 555
GlyphClass: 1
Flags: W
LayerCount: 2
Fore
SplineSet
314 279 m 1,0,-1
 370 214 l 1,1,-1
 419 277 l 2,2,3
 428 290 428 290 443 290 c 2,4,-1
 527 290 l 2,5,6
 532 290 532 290 534 286 c 128,-1,7
 536 282 536 282 533 277 c 2,8,-1
 431 142 l 1,9,-1
 535 13 l 2,10,11
 538 9 538 9 536 4.5 c 128,-1,12
 534 0 534 0 529 0 c 2,13,-1
 466 0 l 2,14,15
 428 0 428 0 406.5 11 c 128,-1,16
 385 22 385 22 369 42 c 2,17,-1
 359 55 l 1,18,19
 331 21 331 21 293.5 6.5 c 128,-1,20
 256 -8 256 -8 212 -8 c 0,21,22
 157 -8 157 -8 116.5 13.5 c 128,-1,23
 76 35 76 35 54 71 c 128,-1,24
 32 107 32 107 32 152 c 0,25,26
 32 193 32 193 48.5 220.5 c 128,-1,27
 65 248 65 248 92 268 c 128,-1,28
 119 288 119 288 150 303 c 1,29,30
 125 331 125 331 109 359 c 128,-1,31
 93 387 93 387 93 426 c 0,32,33
 93 490 93 490 140.5 528 c 128,-1,34
 188 566 188 566 267 566 c 0,35,36
 350 566 350 566 396.5 531 c 128,-1,37
 443 496 443 496 443 431 c 0,38,39
 443 397 443 397 424 369.5 c 128,-1,40
 405 342 405 342 375.5 319.5 c 128,-1,41
 346 297 346 297 314 279 c 1,0,-1
259 347 m 1,42,43
 284 360 284 360 308 379 c 128,-1,44
 332 398 332 398 332 426 c 0,45,46
 332 450 332 450 315 465.5 c 128,-1,47
 298 481 298 481 270 481 c 0,48,49
 245 481 245 481 228.5 465.5 c 128,-1,50
 212 450 212 450 212 425 c 0,51,52
 212 406 212 406 226.5 385 c 128,-1,53
 241 364 241 364 259 347 c 1,42,43
302 125 m 1,54,-1
 213 233 l 1,55,56
 188 219 188 219 169.5 201 c 128,-1,57
 151 183 151 183 151 153 c 0,58,59
 151 121 151 121 173 103 c 128,-1,60
 195 85 195 85 223 85 c 0,61,62
 252 85 252 85 268.5 96 c 128,-1,63
 285 107 285 107 302 125 c 1,54,-1
EndSplineSet
EndChar

StartChar: quotesingle
Encoding: 39 39 9
Width: 160
GlyphClass: 1
Flags: W
LayerCount: 2
Fore
SplineSet
42 366 m 2,0,-1
 24 543 l 2,1,2
 23 556 23 556 37 556 c 2,3,-1
 58 556 l 2,4,5
 105 556 105 556 122 538 c 128,-1,6
 139 520 139 520 133 462 c 2,7,-1
 123 366 l 2,8,9
 122 353 122 353 110 353 c 2,10,-1
 55 353 l 2,11,12
 43 353 43 353 42 366 c 2,0,-1
EndSplineSet
EndChar

StartChar: parenleft
Encoding: 40 40 10
Width: 332
GlyphClass: 1
Flags: W
LayerCount: 2
Fore
SplineSet
40 274 m 256,0,1
 40 379 40 379 62.5 455.5 c 128,-1,2
 85 532 85 532 121 583 c 128,-1,3
 157 634 157 634 199.5 661 c 128,-1,4
 242 688 242 688 281 693 c 0,5,6
 286 693 286 693 286 688 c 2,7,-1
 286 678 l 2,8,9
 286 642 286 642 280.5 625 c 128,-1,10
 275 608 275 608 266 600 c 128,-1,11
 257 592 257 592 248 581 c 0,12,13
 197 523 197 523 170.5 447.5 c 128,-1,14
 144 372 144 372 144 274 c 0,15,16
 144 177 144 177 170.5 102 c 128,-1,17
 197 27 197 27 248 -32 c 0,18,19
 257 -43 257 -43 266 -51.5 c 128,-1,20
 275 -60 275 -60 280.5 -76.5 c 128,-1,21
 286 -93 286 -93 286 -129 c 2,22,-1
 286 -139 l 2,23,24
 286 -146 286 -146 281 -144 c 0,25,26
 242 -139 242 -139 199.5 -112 c 128,-1,27
 157 -85 157 -85 121 -34.5 c 128,-1,28
 85 16 85 16 62.5 92.5 c 128,-1,29
 40 169 40 169 40 274 c 256,0,1
EndSplineSet
PairPos2: "'kern' Horizontal Kerning lookup 2 per glyph data 1" uni0671 dx=19 dy=0 dh=19 dv=0 dx=0 dy=0 dh=0 dv=0
PairPos2: "'kern' Horizontal Kerning lookup 2 per glyph data 1" uni0632 dx=13 dy=0 dh=13 dv=0 dx=0 dy=0 dh=0 dv=0
PairPos2: "'kern' Horizontal Kerning lookup 2 per glyph data 1" uni0631 dx=13 dy=0 dh=13 dv=0 dx=0 dy=0 dh=0 dv=0
PairPos2: "'kern' Horizontal Kerning lookup 2 per glyph data 1" uni0622 dx=9 dy=0 dh=9 dv=0 dx=0 dy=0 dh=0 dv=0
EndChar

StartChar: parenright
Encoding: 41 41 11
Width: 348
GlyphClass: 1
Flags: W
LayerCount: 2
Fore
SplineSet
303 274 m 256,0,1
 303 169 303 169 280.5 92.5 c 128,-1,2
 258 16 258 16 222 -34.5 c 128,-1,3
 186 -85 186 -85 143.5 -112 c 128,-1,4
 101 -139 101 -139 62 -144 c 0,5,6
 57 -146 57 -146 57 -139 c 2,7,-1
 57 -129 l 2,8,9
 57 -93 57 -93 63 -76.5 c 128,-1,10
 69 -60 69 -60 78 -51.5 c 128,-1,11
 87 -43 87 -43 96 -32 c 0,12,13
 146 27 146 27 172.5 102 c 128,-1,14
 199 177 199 177 199 274 c 0,15,16
 199 372 199 372 172.5 447.5 c 128,-1,17
 146 523 146 523 96 581 c 0,18,19
 87 592 87 592 78 600 c 128,-1,20
 69 608 69 608 63 625 c 128,-1,21
 57 642 57 642 57 678 c 2,22,-1
 57 688 l 2,23,24
 57 693 57 693 62 693 c 0,25,26
 101 688 101 688 143.5 661 c 128,-1,27
 186 634 186 634 222 583 c 128,-1,28
 258 532 258 532 280.5 455.5 c 128,-1,29
 303 379 303 379 303 274 c 256,0,1
EndSplineSet
PairPos2: "'kern' Horizontal Kerning lookup 2 per glyph data 1" uni0698 dx=-28 dy=0 dh=-28 dv=0 dx=0 dy=0 dh=0 dv=0
PairPos2: "'kern' Horizontal Kerning lookup 2 per glyph data 1" uni0695 dx=-28 dy=0 dh=-28 dv=0 dx=0 dy=0 dh=0 dv=0
PairPos2: "'kern' Horizontal Kerning lookup 2 per glyph data 1" uni0694 dx=-28 dy=0 dh=-28 dv=0 dx=0 dy=0 dh=0 dv=0
PairPos2: "'kern' Horizontal Kerning lookup 2 per glyph data 1" uni0691 dx=-4 dy=0 dh=-4 dv=0 dx=0 dy=0 dh=0 dv=0
PairPos2: "'kern' Horizontal Kerning lookup 2 per glyph data 1" uni0671 dx=24 dy=0 dh=24 dv=0 dx=0 dy=0 dh=0 dv=0
PairPos2: "'kern' Horizontal Kerning lookup 2 per glyph data 1" uni0632 dx=-28 dy=0 dh=-28 dv=0 dx=0 dy=0 dh=0 dv=0
PairPos2: "'kern' Horizontal Kerning lookup 2 per glyph data 1" uni0631 dx=-28 dy=0 dh=-28 dv=0 dx=0 dy=0 dh=0 dv=0
PairPos2: "'kern' Horizontal Kerning lookup 2 per glyph data 1" uni0627 dx=-19 dy=0 dh=-19 dv=0 dx=0 dy=0 dh=0 dv=0
PairPos2: "'kern' Horizontal Kerning lookup 2 per glyph data 1" uni0625 dx=-6 dy=0 dh=-6 dv=0 dx=0 dy=0 dh=0 dv=0
PairPos2: "'kern' Horizontal Kerning lookup 2 per glyph data 1" uni0623 dx=8 dy=0 dh=8 dv=0 dx=0 dy=0 dh=0 dv=0
PairPos2: "'kern' Horizontal Kerning lookup 2 per glyph data 1" uni0622 dx=15 dy=0 dh=15 dv=0 dx=0 dy=0 dh=0 dv=0
EndChar

StartChar: asterisk
Encoding: 42 42 12
Width: 380
GlyphClass: 1
Flags: W
LayerCount: 2
Fore
SplineSet
130 359 m 1,0,-1
 36 382 l 2,1,2
 23 385 23 385 28 399 c 2,3,-1
 48 459 l 2,4,5
 53 471 53 471 64 467 c 2,6,-1
 153 430 l 1,7,-1
 146 526 l 2,8,9
 145 539 145 539 159 539 c 2,10,-1
 223 539 l 2,11,12
 237 539 237 539 236 526 c 2,13,-1
 229 430 l 1,14,-1
 318 467 l 2,15,16
 329 471 329 471 334 459 c 2,17,-1
 354 399 l 2,18,19
 359 385 359 385 346 382 c 2,20,-1
 254 359 l 1,21,-1
 316 284 l 2,22,23
 323 275 323 275 313 267 c 2,24,-1
 262 230 l 2,25,26
 251 222 251 222 244 233 c 2,27,-1
 191 316 l 1,28,-1
 140 233 l 2,29,30
 133 221 133 221 122 230 c 2,31,-1
 71 267 l 2,32,33
 60 275 60 275 68 284 c 2,34,-1
 130 359 l 1,0,-1
EndSplineSet
EndChar

StartChar: plus
Encoding: 43 43 13
Width: 431
GlyphClass: 1
Flags: W
LayerCount: 2
Fore
SplineSet
165 223 m 1,0,-1
 43 223 l 2,1,2
 30 223 30 223 30 236 c 2,3,-1
 30 305 l 2,4,5
 30 318 30 318 43 318 c 2,6,-1
 165 318 l 1,7,-1
 165 449 l 2,8,9
 165 462 165 462 178 462 c 0,10,11
 227 462 227 462 247 443 c 128,-1,12
 267 424 267 424 267 379 c 2,13,-1
 267 318 l 1,14,-1
 389 318 l 2,15,16
 402 318 402 318 402 305 c 2,17,-1
 402 236 l 2,18,19
 402 223 402 223 389 223 c 2,20,-1
 267 223 l 1,21,-1
 267 91 l 2,22,23
 267 79 267 79 254 79 c 2,24,-1
 178 79 l 2,25,26
 165 79 165 79 165 91 c 2,27,-1
 165 223 l 1,0,-1
EndSplineSet
EndChar

StartChar: comma
Encoding: 44 44 14
Width: 177
GlyphClass: 1
Flags: W
LayerCount: 2
Fore
SplineSet
77 -9 m 1,0,1
 52 -4 52 -4 36 14.5 c 128,-1,2
 20 33 20 33 20 60 c 0,3,4
 20 90 20 90 40.5 110 c 128,-1,5
 61 130 61 130 90 130 c 256,6,7
 119 130 119 130 138 111 c 128,-1,8
 157 92 157 92 157 60 c 0,9,10
 157 6 157 6 130.5 -33.5 c 128,-1,11
 104 -73 104 -73 62 -106 c 0,12,13
 54 -112 54 -112 48 -106 c 0,14,15
 25 -80 25 -80 48 -57 c 0,16,17
 57 -48 57 -48 66 -35 c 128,-1,18
 75 -22 75 -22 77 -9 c 1,0,1
EndSplineSet
EndChar

StartChar: hyphen
Encoding: 45 45 15
Width: 294
GlyphClass: 1
Flags: W
LayerCount: 2
Fore
SplineSet
43 149 m 2,0,1
 30 149 30 149 30 162 c 2,2,-1
 30 244 l 2,3,4
 30 257 30 257 43 257 c 2,5,-1
 252 257 l 2,6,7
 265 257 265 257 265 244 c 2,8,-1
 265 162 l 2,9,10
 265 149 265 149 252 149 c 2,11,-1
 43 149 l 2,0,1
EndSplineSet
EndChar

StartChar: period
Encoding: 46 46 16
Width: 198
GlyphClass: 1
Flags: W
LayerCount: 2
Fore
SplineSet
96 -12 m 256,0,1
 68 -12 68 -12 48 8.5 c 128,-1,2
 28 29 28 29 28 58 c 256,3,4
 28 87 28 87 48 107 c 128,-1,5
 68 127 68 127 96 127 c 256,6,7
 124 127 124 127 144 107 c 128,-1,8
 164 87 164 87 164 58 c 256,9,10
 164 29 164 29 144 8.5 c 128,-1,11
 124 -12 124 -12 96 -12 c 256,0,1
EndSplineSet
EndChar

StartChar: slash
Encoding: 47 47 17
Width: 314
GlyphClass: 1
Flags: W
LayerCount: 2
Fore
SplineSet
13 0 m 2,0,1
 6 0 6 0 4.5 4.5 c 128,-1,2
 3 9 3 9 5 13 c 2,3,-1
 229 543 l 2,4,5
 235 556 235 556 249 556 c 2,6,-1
 263 556 l 2,7,8
 298 556 298 556 309.5 532 c 128,-1,9
 321 508 321 508 307 474 c 2,10,-1
 112 13 l 2,11,12
 106 0 106 0 92 0 c 2,13,-1
 13 0 l 2,0,1
EndSplineSet
EndChar

StartChar: zero
Encoding: 48 48 18
Width: 489
GlyphClass: 1
Flags: W
LayerCount: 2
Fore
SplineSet
244 -10 m 256,0,1
 138 -10 138 -10 84.5 62.5 c 128,-1,2
 31 135 31 135 31 277 c 0,3,4
 31 417 31 417 85 491.5 c 128,-1,5
 139 566 139 566 244 566 c 0,6,7
 348 566 348 566 402.5 491 c 128,-1,8
 457 416 457 416 457 277 c 256,9,10
 457 138 457 138 403.5 64 c 128,-1,11
 350 -10 350 -10 244 -10 c 256,0,1
244 99 m 0,12,13
 297 99 297 99 317.5 140.5 c 128,-1,14
 338 182 338 182 338 277 c 256,15,16
 338 372 338 372 317.5 414.5 c 128,-1,17
 297 457 297 457 244 457 c 256,18,19
 191 457 191 457 170.5 414.5 c 128,-1,20
 150 372 150 372 150 277 c 256,21,22
 150 182 150 182 170 140.5 c 128,-1,23
 190 99 190 99 244 99 c 0,12,13
EndSplineSet
Substitution2: "'lnum' Lining Figures lookup 7 subtable" zero.tab
Substitution2: "'aalt' Access All Alternates lookup 0 subtable" zero.tab
EndChar

StartChar: one
Encoding: 49 49 19
Width: 373
GlyphClass: 1
Flags: W
LayerCount: 2
Fore
SplineSet
130 106 m 1,0,-1
 130 441 l 1,1,-1
 43 409 l 2,2,3
 37 407 37 407 32.5 409 c 128,-1,4
 28 411 28 411 28 418 c 2,5,-1
 28 506 l 2,6,7
 28 520 28 520 43 526 c 2,8,-1
 99 546 l 2,9,10
 109 550 109 550 123.5 553 c 128,-1,11
 138 556 138 556 151 556 c 2,12,-1
 176 556 l 2,13,14
 246 556 246 556 246 489 c 2,15,-1
 246 106 l 1,16,-1
 287 106 l 2,17,18
 357 106 357 106 357 40 c 2,19,-1
 357 17 l 2,20,21
 357 0 357 0 341 0 c 2,22,-1
 40 0 l 2,23,24
 27 0 27 0 27 13 c 2,25,-1
 27 93 l 2,26,27
 27 106 27 106 40 106 c 2,28,-1
 130 106 l 1,0,-1
EndSplineSet
Substitution2: "'lnum' Lining Figures lookup 7 subtable" one.tab
Substitution2: "'sups' Superscript lookup 3 subtable" onesuperior
AlternateSubs2: "'aalt' Access All Alternates lookup 1 subtable" onesuperior one.tab
EndChar

StartChar: two
Encoding: 50 50 20
Width: 463
GlyphClass: 1
Flags: W
LayerCount: 2
Fore
SplineSet
173 106 m 1,0,-1
 358 106 l 2,1,2
 428 106 428 106 428 42 c 2,3,-1
 428 17 l 2,4,5
 428 0 428 0 412 0 c 2,6,-1
 41 0 l 2,7,8
 28 0 28 0 28 13 c 0,9,10
 28 81 28 81 47.5 126.5 c 128,-1,11
 67 172 67 172 98 202.5 c 128,-1,12
 129 233 129 233 164 255 c 128,-1,13
 199 277 199 277 230 297 c 128,-1,14
 261 317 261 317 280.5 341 c 128,-1,15
 300 365 300 365 300 400 c 0,16,17
 300 429 300 429 279 446 c 128,-1,18
 258 463 258 463 220 463 c 256,19,20
 182 463 182 463 148.5 453 c 128,-1,21
 115 443 115 443 85 427 c 0,22,23
 78 423 78 423 72 423 c 0,24,25
 65 423 65 423 62 432 c 2,26,-1
 53 459 l 2,27,28
 43 491 43 491 52.5 512 c 128,-1,29
 62 533 62 533 97 545 c 0,30,31
 126 555 126 555 158.5 560.5 c 128,-1,32
 191 566 191 566 229 566 c 0,33,34
 284 566 284 566 327 549 c 128,-1,35
 370 532 370 532 395 496.5 c 128,-1,36
 420 461 420 461 420 406 c 0,37,38
 420 352 420 352 396.5 313.5 c 128,-1,39
 373 275 373 275 337.5 246.5 c 128,-1,40
 302 218 302 218 266 195.5 c 128,-1,41
 230 173 230 173 204 152 c 128,-1,42
 178 131 178 131 173 106 c 1,0,-1
EndSplineSet
Substitution2: "'lnum' Lining Figures lookup 7 subtable" two.tab
Substitution2: "'sups' Superscript lookup 3 subtable" twosuperior
AlternateSubs2: "'aalt' Access All Alternates lookup 1 subtable" twosuperior two.tab
EndChar

StartChar: three
Encoding: 51 51 21
Width: 451
GlyphClass: 1
Flags: W
LayerCount: 2
Fore
SplineSet
323 291 m 1,0,1
 376 275 376 275 398 243.5 c 128,-1,2
 420 212 420 212 420 166 c 0,3,4
 420 116 420 116 395 76 c 128,-1,5
 370 36 370 36 323.5 13 c 128,-1,6
 277 -10 277 -10 212 -10 c 0,7,8
 144 -10 144 -10 101 13.5 c 128,-1,9
 58 37 58 37 38 71 c 128,-1,10
 18 105 18 105 18 135 c 0,11,12
 18 161 18 161 36 161 c 0,13,14
 43 161 43 161 53 152 c 0,15,16
 79 130 79 130 113.5 111 c 128,-1,17
 148 92 148 92 203 92 c 0,18,19
 249 92 249 92 276 113 c 128,-1,20
 303 134 303 134 303 171 c 0,21,22
 303 201 303 201 282.5 215.5 c 128,-1,23
 262 230 262 230 225 230 c 2,24,-1
 162 230 l 2,25,26
 128 230 128 230 112.5 242.5 c 128,-1,27
 97 255 97 255 97 287 c 2,28,-1
 97 317 l 2,29,30
 97 325 97 325 101 330.5 c 128,-1,31
 105 336 105 336 112 336 c 2,32,-1
 208 336 l 2,33,34
 249 336 249 336 266.5 355 c 128,-1,35
 284 374 284 374 284 401 c 0,36,37
 284 429 284 429 264.5 447 c 128,-1,38
 245 465 245 465 205 465 c 0,39,40
 164 465 164 465 132.5 454.5 c 128,-1,41
 101 444 101 444 73 429 c 0,42,43
 65 424 65 424 58 424 c 256,44,45
 51 424 51 424 48 433 c 2,46,-1
 39 459 l 2,47,48
 29 491 29 491 38.5 512 c 128,-1,49
 48 533 48 533 83 545 c 0,50,51
 112 555 112 555 143.5 560.5 c 128,-1,52
 175 566 175 566 213 566 c 0,53,54
 264 566 264 566 307 550 c 128,-1,55
 350 534 350 534 376 500 c 128,-1,56
 402 466 402 466 402 413 c 0,57,58
 402 373 402 373 379.5 340.5 c 128,-1,59
 357 308 357 308 323 291 c 1,0,1
EndSplineSet
Substitution2: "'lnum' Lining Figures lookup 7 subtable" three.tab
Substitution2: "'sups' Superscript lookup 3 subtable" threesuperior
AlternateSubs2: "'aalt' Access All Alternates lookup 1 subtable" threesuperior three.tab
EndChar

StartChar: four
Encoding: 52 52 22
Width: 501
GlyphClass: 1
Flags: W
LayerCount: 2
Fore
SplineSet
273 109 m 1,0,-1
 24 109 l 2,1,2
 11 109 11 109 11 122 c 2,3,-1
 11 186 l 2,4,5
 11 196 11 196 13 201.5 c 128,-1,6
 15 207 15 207 21 217 c 2,7,-1
 218 531 l 2,8,9
 225 542 225 542 234 549 c 128,-1,10
 243 556 243 556 262 556 c 2,11,-1
 319 556 l 2,12,13
 389 556 389 556 389 489 c 2,14,-1
 389 216 l 1,15,-1
 414 216 l 2,16,17
 484 216 484 216 484 149 c 2,18,-1
 484 126 l 2,19,20
 484 109 484 109 468 109 c 2,21,-1
 389 109 l 1,22,-1
 388 13 l 2,23,24
 388 0 388 0 376 0 c 2,25,-1
 286 0 l 2,26,27
 273 0 273 0 273 13 c 2,28,-1
 273 109 l 1,0,-1
137 216 m 1,29,-1
 273 216 l 1,30,-1
 273 426 l 1,31,-1
 137 216 l 1,29,-1
EndSplineSet
Substitution2: "'lnum' Lining Figures lookup 7 subtable" four.tab
Substitution2: "'aalt' Access All Alternates lookup 0 subtable" four.tab
EndChar

StartChar: five
Encoding: 53 53 23
Width: 462
GlyphClass: 1
Flags: W
LayerCount: 2
Fore
SplineSet
157 449 m 1,0,-1
 157 359 l 1,1,2
 171 362 171 362 191.5 365 c 128,-1,3
 212 368 212 368 238 368 c 0,4,5
 330 368 330 368 380 320 c 128,-1,6
 430 272 430 272 430 190 c 0,7,8
 430 128 430 128 401 83 c 128,-1,9
 372 38 372 38 324 14 c 128,-1,10
 276 -10 276 -10 219 -10 c 0,11,12
 159 -10 159 -10 114.5 10 c 128,-1,13
 70 30 70 30 46 62.5 c 128,-1,14
 22 95 22 95 22 130 c 0,15,16
 22 157 22 157 40 157 c 0,17,18
 48 157 48 157 58 148 c 0,19,20
 81 128 81 128 117 110 c 128,-1,21
 153 92 153 92 206 92 c 256,22,23
 259 92 259 92 286.5 116.5 c 128,-1,24
 314 141 314 141 314 187 c 0,25,26
 314 226 314 226 283.5 246 c 128,-1,27
 253 266 253 266 207 266 c 256,28,29
 161 266 161 266 124.5 258.5 c 128,-1,30
 88 251 88 251 62 243 c 0,31,32
 46 238 46 238 46 254 c 2,33,-1
 46 543 l 2,34,35
 46 556 46 556 59 556 c 2,36,-1
 330 556 l 2,37,38
 400 556 400 556 400 489 c 2,39,-1
 400 466 l 2,40,41
 400 449 400 449 384 449 c 2,42,-1
 157 449 l 1,0,-1
EndSplineSet
Substitution2: "'lnum' Lining Figures lookup 7 subtable" five.tab
Substitution2: "'aalt' Access All Alternates lookup 0 subtable" five.tab
EndChar

StartChar: six
Encoding: 54 54 24
Width: 486
GlyphClass: 1
Flags: W
LayerCount: 2
Fore
SplineSet
238 383 m 1,0,1
 246 385 246 385 253 385.5 c 128,-1,2
 260 386 260 386 269 386 c 0,3,4
 329 386 329 386 371.5 358.5 c 128,-1,5
 414 331 414 331 436.5 288.5 c 128,-1,6
 459 246 459 246 459 199 c 0,7,8
 459 140 459 140 433.5 92.5 c 128,-1,9
 408 45 408 45 361.5 17.5 c 128,-1,10
 315 -10 315 -10 250 -10 c 0,11,12
 187 -10 187 -10 137.5 15.5 c 128,-1,13
 88 41 88 41 60 85 c 128,-1,14
 32 129 32 129 32 186 c 0,15,16
 32 225 32 225 48.5 266.5 c 128,-1,17
 65 308 65 308 105 374 c 2,18,-1
 216 555 l 2,19,20
 224 566 224 566 236 566 c 0,21,22
 263 566 263 566 279 549.5 c 128,-1,23
 295 533 295 533 296 506.5 c 128,-1,24
 297 480 297 480 278 449 c 2,25,-1
 238 383 l 1,0,1
149 189 m 0,26,27
 149 146 149 146 177.5 119.5 c 128,-1,28
 206 93 206 93 249 93 c 0,29,30
 290 93 290 93 317 120 c 128,-1,31
 344 147 344 147 344 189 c 0,32,33
 344 230 344 230 317 259 c 128,-1,34
 290 288 290 288 247 288 c 256,35,36
 204 288 204 288 176.5 259 c 128,-1,37
 149 230 149 230 149 189 c 0,26,27
EndSplineSet
Substitution2: "'lnum' Lining Figures lookup 7 subtable" six.tab
Substitution2: "'aalt' Access All Alternates lookup 0 subtable" six.tab
EndChar

StartChar: seven
Encoding: 55 55 25
Width: 418
GlyphClass: 1
Flags: W
LayerCount: 2
Fore
SplineSet
266 449 m 1,0,-1
 33 449 l 2,1,2
 20 449 20 449 20 462 c 2,3,-1
 20 543 l 2,4,5
 20 556 20 556 33 556 c 2,6,-1
 319 556 l 2,7,8
 389 556 389 556 389 489 c 2,9,-1
 389 476 l 2,10,11
 389 448 389 448 376 419 c 2,12,-1
 195 13 l 2,13,14
 189 0 189 0 176 0 c 2,15,-1
 79 0 l 2,16,17
 73 0 73 0 71 4.5 c 128,-1,18
 69 9 69 9 71 13 c 2,19,-1
 266 449 l 1,0,-1
EndSplineSet
Substitution2: "'lnum' Lining Figures lookup 7 subtable" seven.tab
Substitution2: "'aalt' Access All Alternates lookup 0 subtable" seven.tab
EndChar

StartChar: eight
Encoding: 56 56 26
Width: 489
GlyphClass: 1
Flags: W
LayerCount: 2
Fore
SplineSet
123 290 m 1,0,1
 87 307 87 307 63.5 338 c 128,-1,2
 40 369 40 369 40 417 c 0,3,4
 40 487 40 487 97 526.5 c 128,-1,5
 154 566 154 566 245 566 c 256,6,7
 336 566 336 566 392.5 526.5 c 128,-1,8
 449 487 449 487 449 417 c 0,9,10
 449 369 449 369 426 338 c 128,-1,11
 403 307 403 307 366 290 c 1,12,13
 419 271 419 271 440.5 236 c 128,-1,14
 462 201 462 201 462 159 c 0,15,16
 462 112 462 112 437 73.5 c 128,-1,17
 412 35 412 35 363.5 12.5 c 128,-1,18
 315 -10 315 -10 245 -10 c 256,19,20
 175 -10 175 -10 126.5 12.5 c 128,-1,21
 78 35 78 35 52.5 73.5 c 128,-1,22
 27 112 27 112 27 159 c 0,23,24
 27 201 27 201 49 236 c 128,-1,25
 71 271 71 271 123 290 c 1,0,1
154 403 m 0,26,27
 154 373 154 373 177 353 c 128,-1,28
 200 333 200 333 245 333 c 0,29,30
 289 333 289 333 312 353 c 128,-1,31
 335 373 335 373 335 403 c 0,32,33
 335 434 335 434 312 454 c 128,-1,34
 289 474 289 474 245 474 c 256,35,36
 201 474 201 474 177.5 454 c 128,-1,37
 154 434 154 434 154 403 c 0,26,27
144 160 m 0,38,39
 144 129 144 129 170 106 c 128,-1,40
 196 83 196 83 245 83 c 0,41,42
 293 83 293 83 319 106 c 128,-1,43
 345 129 345 129 345 160 c 0,44,45
 345 199 345 199 319 219.5 c 128,-1,46
 293 240 293 240 245 240 c 0,47,48
 196 240 196 240 170 219.5 c 128,-1,49
 144 199 144 199 144 160 c 0,38,39
EndSplineSet
Substitution2: "'lnum' Lining Figures lookup 7 subtable" eight.tab
Substitution2: "'aalt' Access All Alternates lookup 0 subtable" eight.tab
EndChar

StartChar: nine
Encoding: 57 57 27
Width: 486
GlyphClass: 1
Flags: W
LayerCount: 2
Fore
SplineSet
250 174 m 1,0,1
 230 170 230 170 213 170 c 0,2,3
 154 170 154 170 112.5 197 c 128,-1,4
 71 224 71 224 49 266 c 128,-1,5
 27 308 27 308 27 353 c 0,6,7
 27 415 27 415 54 463 c 128,-1,8
 81 511 81 511 129 538 c 128,-1,9
 177 565 177 565 240 565 c 0,10,11
 304 565 304 565 352 540.5 c 128,-1,12
 400 516 400 516 427 472 c 128,-1,13
 454 428 454 428 454 370 c 0,14,15
 454 331 454 331 438.5 289.5 c 128,-1,16
 423 248 423 248 383 183 c 2,17,-1
 272 3 l 2,18,19
 265 -10 265 -10 251 -10 c 0,20,21
 224 -10 224 -10 208 7.5 c 128,-1,22
 192 25 192 25 191.5 52 c 128,-1,23
 191 79 191 79 209 107 c 2,24,-1
 250 174 l 1,0,1
240 267 m 0,25,26
 283 267 283 267 310 296 c 128,-1,27
 337 325 337 325 337 367 c 256,28,29
 337 409 337 409 309 435.5 c 128,-1,30
 281 462 281 462 238 462 c 0,31,32
 196 462 196 462 169 435 c 128,-1,33
 142 408 142 408 142 367 c 0,34,35
 142 323 142 323 168 295 c 128,-1,36
 194 267 194 267 240 267 c 0,25,26
EndSplineSet
Substitution2: "'lnum' Lining Figures lookup 7 subtable" nine.tab
Substitution2: "'aalt' Access All Alternates lookup 0 subtable" nine.tab
EndChar

StartChar: colon
Encoding: 58 58 28
Width: 209
GlyphClass: 1
Flags: W
LayerCount: 2
Fore
SplineSet
169 280 m 0,0,1
 169 250 169 250 149.5 230.5 c 128,-1,2
 130 211 130 211 101 211 c 256,3,4
 72 211 72 211 53 230.5 c 128,-1,5
 34 250 34 250 34 280 c 0,6,7
 34 311 34 311 53 330 c 128,-1,8
 72 349 72 349 101 349 c 256,9,10
 130 349 130 349 149.5 330 c 128,-1,11
 169 311 169 311 169 280 c 0,0,1
101 -12 m 256,12,13
 73 -12 73 -12 53 8.5 c 128,-1,14
 33 29 33 29 33 58 c 256,15,16
 33 87 33 87 53 107 c 128,-1,17
 73 127 73 127 101 127 c 256,18,19
 129 127 129 127 149 107 c 128,-1,20
 169 87 169 87 169 58 c 256,21,22
 169 29 169 29 149 8.5 c 128,-1,23
 129 -12 129 -12 101 -12 c 256,12,13
EndSplineSet
EndChar

StartChar: semicolon
Encoding: 59 59 29
Width: 198
GlyphClass: 1
Flags: W
LayerCount: 2
Fore
SplineSet
30 288 m 256,0,1
 30 319 30 319 50.5 339 c 128,-1,2
 71 359 71 359 100 359 c 256,3,4
 129 359 129 359 148 339 c 128,-1,5
 167 319 167 319 167 288 c 256,6,7
 167 257 167 257 148 238 c 128,-1,8
 129 219 129 219 100 219 c 256,9,10
 71 219 71 219 50.5 238 c 128,-1,11
 30 257 30 257 30 288 c 256,0,1
87 -9 m 1,12,13
 62 -4 62 -4 46 14.5 c 128,-1,14
 30 33 30 33 30 60 c 0,15,16
 30 90 30 90 50.5 110 c 128,-1,17
 71 130 71 130 100 130 c 256,18,19
 129 130 129 130 148 111 c 128,-1,20
 167 92 167 92 167 60 c 0,21,22
 167 6 167 6 140.5 -33.5 c 128,-1,23
 114 -73 114 -73 72 -106 c 0,24,25
 64 -112 64 -112 58 -106 c 0,26,27
 35 -80 35 -80 58 -57 c 0,28,29
 67 -48 67 -48 76 -35 c 128,-1,30
 85 -22 85 -22 87 -9 c 1,12,13
EndSplineSet
EndChar

StartChar: less
Encoding: 60 60 30
Width: 452
GlyphClass: 1
Flags: W
LayerCount: 2
Fore
SplineSet
167 269 m 1,0,-1
 337 198 l 2,1,2
 385 178 385 178 401.5 150 c 128,-1,3
 418 122 418 122 418 74 c 2,4,-1
 418 72 l 2,5,6
 418 60 418 60 406 65 c 2,7,-1
 43 224 l 2,8,9
 30 230 30 230 30 244 c 2,10,-1
 30 296 l 2,11,12
 30 309 30 309 43 315 c 2,13,-1
 403 473 l 2,14,15
 409 476 409 476 413.5 473.5 c 128,-1,16
 418 471 418 471 418 466 c 2,17,-1
 418 393 l 2,18,19
 418 377 418 377 403 370 c 2,20,-1
 167 269 l 1,0,-1
EndSplineSet
EndChar

StartChar: equal
Encoding: 61 61 31
Width: 431
GlyphClass: 1
Flags: W
LayerCount: 2
Fore
SplineSet
30 326 m 2,0,-1
 30 396 l 2,1,2
 30 408 30 408 43 408 c 2,3,-1
 332 408 l 2,4,5
 402 408 402 408 402 342 c 2,6,-1
 402 326 l 2,7,8
 402 313 402 313 389 313 c 2,9,-1
 43 313 l 2,10,11
 30 313 30 313 30 326 c 2,0,-1
30 145 m 2,12,-1
 30 215 l 2,13,14
 30 228 30 228 43 228 c 2,15,-1
 332 228 l 2,16,17
 402 228 402 228 402 161 c 2,18,-1
 402 145 l 2,19,20
 402 132 402 132 389 132 c 2,21,-1
 43 132 l 2,22,23
 30 132 30 132 30 145 c 2,12,-1
EndSplineSet
EndChar

StartChar: greater
Encoding: 62 62 32
Width: 452
GlyphClass: 1
Flags: W
LayerCount: 2
Fore
SplineSet
285 269 m 1,0,-1
 50 370 l 2,1,2
 35 377 35 377 35 393 c 2,3,-1
 35 466 l 2,4,5
 35 471 35 471 39.5 473.5 c 128,-1,6
 44 476 44 476 50 473 c 2,7,-1
 410 315 l 2,8,9
 423 309 423 309 423 296 c 2,10,-1
 423 244 l 2,11,12
 423 230 423 230 410 224 c 2,13,-1
 47 65 l 2,14,15
 35 60 35 60 35 72 c 2,16,-1
 35 74 l 2,17,18
 35 122 35 122 51.5 150 c 128,-1,19
 68 178 68 178 115 198 c 2,20,-1
 285 269 l 1,0,-1
EndSplineSet
EndChar

StartChar: question
Encoding: 63 63 33
Width: 402
GlyphClass: 1
Flags: W
LayerCount: 2
Fore
SplineSet
128 176 m 2,0,-1
 128 206 l 2,1,2
 128 234 128 234 141 255 c 128,-1,3
 154 276 154 276 174 293 c 128,-1,4
 194 310 194 310 213.5 326 c 128,-1,5
 233 342 233 342 246 360 c 128,-1,6
 259 378 259 378 259 402 c 0,7,8
 259 430 259 430 240.5 445.5 c 128,-1,9
 222 461 222 461 187 461 c 0,10,11
 148 461 148 461 120 452 c 128,-1,12
 92 443 92 443 57 425 c 0,13,14
 49 421 49 421 44 421 c 0,15,16
 37 421 37 421 34 430 c 2,17,-1
 26 456 l 2,18,19
 16 487 16 487 24.5 508 c 128,-1,20
 33 529 33 529 69 543 c 0,21,22
 96 554 96 554 124 560 c 128,-1,23
 152 566 152 566 190 566 c 0,24,25
 244 566 244 566 287.5 550 c 128,-1,26
 331 534 331 534 356 502 c 128,-1,27
 381 470 381 470 381 422 c 0,28,29
 381 378 381 378 364 344.5 c 128,-1,30
 347 311 347 311 316 282 c 128,-1,31
 285 253 285 253 242 222 c 0,32,33
 231 214 231 214 227.5 207 c 128,-1,34
 224 200 224 200 224 190 c 2,35,-1
 224 176 l 2,36,37
 224 163 224 163 211 163 c 2,38,-1
 141 163 l 2,39,40
 128 163 128 163 128 176 c 2,0,-1
108 60 m 0,41,42
 108 90 108 90 128.5 110 c 128,-1,43
 149 130 149 130 178 130 c 256,44,45
 207 130 207 130 226.5 110 c 128,-1,46
 246 90 246 90 246 60 c 0,47,48
 246 29 246 29 226.5 9.5 c 128,-1,49
 207 -10 207 -10 178 -10 c 256,50,51
 149 -10 149 -10 128.5 9.5 c 128,-1,52
 108 29 108 29 108 60 c 0,41,42
EndSplineSet
EndChar

StartChar: at
Encoding: 64 64 34
Width: 759
GlyphClass: 1
Flags: W
LayerCount: 2
Fore
SplineSet
450 94 m 1,0,1
 438 74 438 74 411.5 51.5 c 128,-1,2
 385 29 385 29 335 29 c 0,3,4
 294 29 294 29 260.5 51 c 128,-1,5
 227 73 227 73 207 114.5 c 128,-1,6
 187 156 187 156 187 214 c 0,7,8
 187 266 187 266 209.5 309 c 128,-1,9
 232 352 232 352 271.5 378.5 c 128,-1,10
 311 405 311 405 360 405 c 0,11,12
 401 405 401 405 427 387.5 c 128,-1,13
 453 370 453 370 463 347 c 1,14,15
 474 376 474 376 496.5 388 c 128,-1,16
 519 400 519 400 550 400 c 2,17,-1
 551 400 l 2,18,19
 564 400 564 400 562 386 c 2,20,-1
 540 164 l 2,21,22
 539 158 539 158 538.5 150.5 c 128,-1,23
 538 143 538 143 538 138 c 0,24,25
 538 126 538 126 543 121.5 c 128,-1,26
 548 117 548 117 555 117 c 0,27,28
 583 117 583 117 606.5 151.5 c 128,-1,29
 630 186 630 186 630 256 c 0,30,31
 630 368 630 368 564.5 425 c 128,-1,32
 499 482 499 482 392 482 c 0,33,34
 317 482 317 482 259 447.5 c 128,-1,35
 201 413 201 413 167.5 354 c 128,-1,36
 134 295 134 295 134 221 c 0,37,38
 134 131 134 131 169 69 c 128,-1,39
 204 7 204 7 266 -24.5 c 128,-1,40
 328 -56 328 -56 408 -56 c 256,41,42
 488 -56 488 -56 537.5 -37 c 128,-1,43
 587 -18 587 -18 624 9 c 0,44,45
 629 13 629 13 633 15 c 128,-1,46
 637 17 637 17 642 17 c 0,47,48
 651 17 651 17 651 5 c 0,49,50
 651 -13 651 -13 635.5 -37.5 c 128,-1,51
 620 -62 620 -62 589 -86 c 128,-1,52
 558 -110 558 -110 510.5 -126 c 128,-1,53
 463 -142 463 -142 399 -142 c 0,54,55
 289 -142 289 -142 207 -97 c 128,-1,56
 125 -52 125 -52 80 28.5 c 128,-1,57
 35 109 35 109 35 218 c 0,58,59
 35 292 35 292 63 356 c 128,-1,60
 91 420 91 420 140.5 467.5 c 128,-1,61
 190 515 190 515 255 541.5 c 128,-1,62
 320 568 320 568 394 568 c 0,63,64
 459 568 459 568 518 548 c 128,-1,65
 577 528 577 528 624 489 c 128,-1,66
 671 450 671 450 698 392.5 c 128,-1,67
 725 335 725 335 725 261 c 0,68,69
 725 199 725 199 699 146 c 128,-1,70
 673 93 673 93 628.5 61 c 128,-1,71
 584 29 584 29 530 29 c 0,72,73
 503 29 503 29 485.5 40.5 c 128,-1,74
 468 52 468 52 459.5 67.5 c 128,-1,75
 451 83 451 83 450 94 c 1,0,1
365 127 m 0,76,77
 404 127 404 127 423.5 158.5 c 128,-1,78
 443 190 443 190 443 236 c 0,79,80
 443 267 443 267 426.5 287 c 128,-1,81
 410 307 410 307 377 307 c 0,82,83
 340 307 340 307 318.5 278 c 128,-1,84
 297 249 297 249 297 209 c 0,85,86
 297 178 297 178 314 152.5 c 128,-1,87
 331 127 331 127 365 127 c 0,76,77
EndSplineSet
EndChar

StartChar: A
Encoding: 65 65 35
Width: 530
GlyphClass: 1
Flags: W
LayerCount: 2
Fore
SplineSet
165 128 m 1,0,-1
 126 13 l 2,1,2
 122 0 122 0 111 0 c 2,3,-1
 17 0 l 2,4,5
 11 0 11 0 9 4.5 c 128,-1,6
 7 9 7 9 8 13 c 2,7,-1
 194 545 l 2,8,9
 198 556 198 556 209 556 c 2,10,-1
 253 556 l 2,11,12
 295 556 295 556 318.5 538 c 128,-1,13
 342 520 342 520 361 466 c 2,14,-1
 523 13 l 2,15,16
 525 9 525 9 522.5 4.5 c 128,-1,17
 520 0 520 0 513 0 c 2,18,-1
 417 0 l 2,19,20
 403 0 403 0 398 13 c 2,21,-1
 359 128 l 1,22,-1
 165 128 l 1,0,-1
200 228 m 1,23,-1
 325 228 l 1,24,-1
 262 415 l 1,25,-1
 200 228 l 1,23,-1
EndSplineSet
Substitution2: "Single Substitution lookup 2 subtable" ordfeminine
EndChar

StartChar: B
Encoding: 66 66 36
Width: 486
GlyphClass: 1
Flags: W
LayerCount: 2
Fore
SplineSet
358 287 m 1,0,1
 405 274 405 274 433.5 239.5 c 128,-1,2
 462 205 462 205 462 157 c 0,3,4
 462 82 462 82 416 41 c 128,-1,5
 370 0 370 0 276 0 c 2,6,-1
 64 0 l 2,7,8
 51 0 51 0 51 13 c 2,9,-1
 51 543 l 2,10,11
 51 556 51 556 64 556 c 2,12,-1
 257 556 l 2,13,14
 347 556 347 556 395 517.5 c 128,-1,15
 443 479 443 479 443 407 c 0,16,17
 443 372 443 372 430 348.5 c 128,-1,18
 417 325 417 325 397.5 310.5 c 128,-1,19
 378 296 378 296 358 287 c 1,0,1
168 338 m 1,20,-1
 265 338 l 2,21,22
 300 338 300 338 312.5 357.5 c 128,-1,23
 325 377 325 377 325 398 c 0,24,25
 325 420 325 420 310.5 437 c 128,-1,26
 296 454 296 454 261 454 c 2,27,-1
 168 454 l 1,28,-1
 168 338 l 1,20,-1
168 101 m 1,29,-1
 262 101 l 2,30,31
 277 101 277 101 295.5 104 c 128,-1,32
 314 107 314 107 327.5 121.5 c 128,-1,33
 341 136 341 136 341 170 c 0,34,35
 341 199 341 199 322.5 219.5 c 128,-1,36
 304 240 304 240 263 240 c 2,37,-1
 168 240 l 1,38,-1
 168 101 l 1,29,-1
EndSplineSet
EndChar

StartChar: C
Encoding: 67 67 37
Width: 510
GlyphClass: 1
Flags: W
LayerCount: 2
Fore
SplineSet
301 -10 m 0,0,1
 222 -10 222 -10 163 24.5 c 128,-1,2
 104 59 104 59 71.5 123 c 128,-1,3
 39 187 39 187 39 275 c 0,4,5
 39 366 39 366 73.5 431 c 128,-1,6
 108 496 108 496 169 531 c 128,-1,7
 230 566 230 566 307 566 c 0,8,9
 348 566 348 566 377 560.5 c 128,-1,10
 406 555 406 555 434 544 c 0,11,12
 468 531 468 531 476 510 c 128,-1,13
 484 489 484 489 476 457 c 2,14,-1
 469 428 l 2,15,16
 466 415 466 415 456 415 c 0,17,18
 450 415 450 415 440 420 c 0,19,20
 410 435 410 435 382.5 444.5 c 128,-1,21
 355 454 355 454 311 454 c 0,22,23
 245 454 245 454 202.5 411 c 128,-1,24
 160 368 160 368 160 275 c 0,25,26
 160 187 160 187 204.5 144 c 128,-1,27
 249 101 249 101 316 101 c 0,28,29
 351 101 351 101 379 111.5 c 128,-1,30
 407 122 407 122 427.5 136 c 128,-1,31
 448 150 448 150 459 160 c 0,32,33
 465 166 465 166 469.5 167.5 c 128,-1,34
 474 169 474 169 477 169 c 0,35,36
 495 169 495 169 495 142 c 0,37,38
 495 123 495 123 485 97 c 128,-1,39
 475 71 475 71 452.5 46.5 c 128,-1,40
 430 22 430 22 392.5 6 c 128,-1,41
 355 -10 355 -10 301 -10 c 0,0,1
EndSplineSet
EndChar

StartChar: D
Encoding: 68 68 38
Width: 560
GlyphClass: 1
Flags: W
LayerCount: 2
Fore
SplineSet
64 0 m 2,0,1
 51 0 51 0 51 13 c 2,2,-1
 51 543 l 2,3,4
 51 556 51 556 64 556 c 2,5,-1
 231 556 l 2,6,7
 284 556 284 556 335.5 543.5 c 128,-1,8
 387 531 387 531 429 500.5 c 128,-1,9
 471 470 471 470 496 418 c 128,-1,10
 521 366 521 366 521 286 c 0,11,12
 521 135 521 135 441.5 67.5 c 128,-1,13
 362 0 362 0 223 0 c 2,14,-1
 64 0 l 2,0,1
168 108 m 1,15,-1
 235 108 l 2,16,17
 312 108 312 108 355.5 152 c 128,-1,18
 399 196 399 196 399 282 c 0,19,20
 399 372 399 372 355 409.5 c 128,-1,21
 311 447 311 447 231 447 c 2,22,-1
 168 447 l 1,23,-1
 168 108 l 1,15,-1
EndSplineSet
EndChar

StartChar: E
Encoding: 69 69 39
Width: 423
GlyphClass: 1
Flags: W
LayerCount: 2
Fore
SplineSet
168 108 m 1,0,-1
 331 108 l 2,1,2
 401 108 401 108 401 42 c 2,3,-1
 401 17 l 2,4,5
 401 0 401 0 385 0 c 2,6,-1
 64 0 l 2,7,8
 51 0 51 0 51 13 c 2,9,-1
 51 543 l 2,10,11
 51 556 51 556 64 556 c 2,12,-1
 323 556 l 2,13,14
 393 556 393 556 393 489 c 2,15,-1
 393 464 l 2,16,17
 393 447 393 447 377 447 c 2,18,-1
 168 447 l 1,19,-1
 168 334 l 1,20,-1
 303 334 l 2,21,22
 373 334 373 334 373 267 c 2,23,-1
 373 242 l 2,24,25
 373 226 373 226 357 226 c 2,26,-1
 168 226 l 1,27,-1
 168 108 l 1,0,-1
EndSplineSet
EndChar

StartChar: F
Encoding: 70 70 40
Width: 410
GlyphClass: 1
Flags: W
LayerCount: 2
Fore
SplineSet
168 221 m 1,0,-1
 168 13 l 2,1,2
 168 0 168 0 155 0 c 2,3,-1
 64 0 l 2,4,5
 51 0 51 0 51 13 c 2,6,-1
 51 543 l 2,7,8
 51 556 51 556 64 556 c 2,9,-1
 323 556 l 2,10,11
 393 556 393 556 393 489 c 2,12,-1
 393 464 l 2,13,14
 393 447 393 447 377 447 c 2,15,-1
 168 447 l 1,16,-1
 168 329 l 1,17,-1
 299 329 l 2,18,19
 369 329 369 329 369 262 c 2,20,-1
 369 238 l 2,21,22
 369 221 369 221 353 221 c 2,23,-1
 168 221 l 1,0,-1
EndSplineSet
EndChar

StartChar: G
Encoding: 71 71 41
Width: 560
GlyphClass: 1
Flags: W
LayerCount: 2
Fore
SplineSet
410 126 m 1,0,-1
 410 205 l 1,1,-1
 356 205 l 2,2,3
 286 205 286 205 286 271 c 2,4,-1
 286 296 l 2,5,6
 286 313 286 313 302 313 c 2,7,-1
 506 313 l 2,8,9
 522 313 522 313 522 296 c 2,10,-1
 522 91 l 2,11,12
 522 76 522 76 517.5 67 c 128,-1,13
 513 58 513 58 499 48 c 0,14,15
 453 15 453 15 411 2.5 c 128,-1,16
 369 -10 369 -10 315 -10 c 0,17,18
 242 -10 242 -10 179 18 c 128,-1,19
 116 46 116 46 77.5 109.5 c 128,-1,20
 39 173 39 173 39 280 c 0,21,22
 39 369 39 369 73 433 c 128,-1,23
 107 497 107 497 170 531.5 c 128,-1,24
 233 566 233 566 320 566 c 0,25,26
 361 566 361 566 392 561.5 c 128,-1,27
 423 557 423 557 451 547 c 0,28,29
 486 535 486 535 494.5 514 c 128,-1,30
 503 493 503 493 495 461 c 2,31,-1
 488 433 l 2,32,33
 485 420 485 420 475 420 c 0,34,35
 469 420 469 420 459 425 c 0,36,37
 428 439 428 439 396 447 c 128,-1,38
 364 455 364 455 330 455 c 0,39,40
 253 455 253 455 208 412.5 c 128,-1,41
 163 370 163 370 163 272 c 0,42,43
 163 190 163 190 202.5 145 c 128,-1,44
 242 100 242 100 313 100 c 0,45,46
 342 100 342 100 364 106 c 128,-1,47
 386 112 386 112 410 126 c 1,0,-1
EndSplineSet
EndChar

StartChar: H
Encoding: 72 72 42
Width: 533
GlyphClass: 1
Flags: W
LayerCount: 2
Fore
SplineSet
168 221 m 1,0,-1
 168 13 l 2,1,2
 168 0 168 0 155 0 c 2,3,-1
 64 0 l 2,4,5
 51 0 51 0 51 13 c 2,6,-1
 51 543 l 2,7,8
 51 556 51 556 64 556 c 2,9,-1
 74 556 l 2,10,11
 121 556 121 556 144.5 533.5 c 128,-1,12
 168 511 168 511 168 455 c 2,13,-1
 168 329 l 1,14,-1
 365 329 l 1,15,-1
 365 543 l 2,16,17
 365 556 365 556 378 556 c 2,18,-1
 388 556 l 2,19,20
 436 556 436 556 459 533.5 c 128,-1,21
 482 511 482 511 482 455 c 2,22,-1
 482 13 l 2,23,24
 482 0 482 0 469 0 c 2,25,-1
 378 0 l 2,26,27
 365 0 365 0 365 13 c 2,28,-1
 365 221 l 1,29,-1
 168 221 l 1,0,-1
EndSplineSet
EndChar

StartChar: I
Encoding: 73 73 43
Width: 219
GlyphClass: 1
Flags: W
LayerCount: 2
Fore
SplineSet
51 13 m 2,0,-1
 51 543 l 2,1,2
 51 556 51 556 64 556 c 2,3,-1
 74 556 l 2,4,5
 121 556 121 556 144.5 533.5 c 128,-1,6
 168 511 168 511 168 455 c 2,7,-1
 168 13 l 2,8,9
 168 0 168 0 155 0 c 2,10,-1
 64 0 l 2,11,12
 51 0 51 0 51 13 c 2,0,-1
EndSplineSet
EndChar

StartChar: J
Encoding: 74 74 44
Width: 317
GlyphClass: 1
Flags: W
LayerCount: 2
Fore
SplineSet
4 91 m 0,0,1
 4 112 4 112 18 112 c 0,2,3
 23 112 23 112 27 109 c 0,4,5
 41 99 41 99 55 93 c 128,-1,6
 69 87 69 87 87 87 c 0,7,8
 117 87 117 87 134 102 c 128,-1,9
 151 117 151 117 151 151 c 2,10,-1
 151 543 l 2,11,12
 151 556 151 556 164 556 c 2,13,-1
 174 556 l 2,14,15
 222 556 222 556 245 533.5 c 128,-1,16
 268 511 268 511 268 455 c 2,17,-1
 268 147 l 2,18,19
 268 71 268 71 230.5 30.5 c 128,-1,20
 193 -10 193 -10 122 -10 c 0,21,22
 72 -10 72 -10 38 18.5 c 128,-1,23
 4 47 4 47 4 91 c 0,0,1
EndSplineSet
EndChar

StartChar: K
Encoding: 75 75 45
Width: 514
GlyphClass: 1
Flags: W
LayerCount: 2
Fore
SplineSet
168 179 m 1,0,-1
 168 13 l 2,1,2
 168 0 168 0 155 0 c 2,3,-1
 64 0 l 2,4,5
 51 0 51 0 51 13 c 2,6,-1
 51 543 l 2,7,8
 51 556 51 556 64 556 c 2,9,-1
 74 556 l 2,10,11
 121 556 121 556 144.5 533.5 c 128,-1,12
 168 511 168 511 168 455 c 2,13,-1
 168 329 l 1,14,-1
 346 543 l 2,15,16
 358 556 358 556 369 556 c 2,17,-1
 468 556 l 2,18,19
 474 556 474 556 475.5 551.5 c 128,-1,20
 477 547 477 547 474 543 c 2,21,-1
 307 344 l 1,22,-1
 503 13 l 2,23,24
 505 9 505 9 503.5 4.5 c 128,-1,25
 502 0 502 0 496 0 c 2,26,-1
 389 0 l 2,27,28
 374 0 374 0 367 13 c 2,29,-1
 227 248 l 1,30,-1
 168 179 l 1,0,-1
EndSplineSet
EndChar

StartChar: L
Encoding: 76 76 46
Width: 384
GlyphClass: 1
Flags: W
LayerCount: 2
Fore
SplineSet
168 108 m 1,0,-1
 300 108 l 2,1,2
 370 108 370 108 370 42 c 2,3,-1
 370 17 l 2,4,5
 370 0 370 0 354 0 c 2,6,-1
 64 0 l 2,7,8
 51 0 51 0 51 13 c 2,9,-1
 51 543 l 2,10,11
 51 556 51 556 64 556 c 2,12,-1
 74 556 l 2,13,14
 121 556 121 556 144.5 533.5 c 128,-1,15
 168 511 168 511 168 455 c 2,16,-1
 168 108 l 1,0,-1
EndSplineSet
EndChar

StartChar: M
Encoding: 77 77 47
Width: 659
GlyphClass: 1
Flags: W
LayerCount: 2
Fore
SplineSet
329 179 m 1,0,-1
 425 543 l 2,1,2
 428 556 428 556 440 556 c 2,3,-1
 521 556 l 2,4,5
 555 556 555 556 576.5 537 c 128,-1,6
 598 518 598 518 599 488 c 2,7,-1
 625 13 l 2,8,9
 625 0 625 0 615 0 c 2,10,-1
 522 0 l 2,11,12
 510 0 510 0 510 13 c 2,13,-1
 490 387 l 1,14,-1
 389 13 l 2,15,16
 386 0 386 0 373 0 c 2,17,-1
 283 0 l 2,18,19
 273 0 273 0 269 13 c 2,20,-1
 170 388 l 1,21,-1
 150 13 l 2,22,23
 150 0 150 0 139 0 c 2,24,-1
 45 0 l 2,25,26
 34 0 34 0 34 13 c 2,27,-1
 65 543 l 2,28,29
 65 556 65 556 77 556 c 2,30,-1
 156 556 l 2,31,32
 190 556 190 556 213.5 546 c 128,-1,33
 237 536 237 536 245 504 c 2,34,-1
 329 179 l 1,0,-1
EndSplineSet
EndChar

StartChar: N
Encoding: 78 78 48
Width: 539
GlyphClass: 1
Flags: W
LayerCount: 2
Fore
SplineSet
168 336 m 1,0,-1
 168 13 l 2,1,2
 168 0 168 0 155 0 c 2,3,-1
 64 0 l 2,4,5
 51 0 51 0 51 13 c 2,6,-1
 51 543 l 2,7,8
 51 556 51 556 64 556 c 2,9,-1
 104 556 l 2,10,11
 137 556 137 556 157 544.5 c 128,-1,12
 177 533 177 533 195 504 c 2,13,-1
 371 218 l 1,14,-1
 371 543 l 2,15,16
 371 556 371 556 384 556 c 2,17,-1
 394 556 l 2,18,19
 441 556 441 556 464.5 533.5 c 128,-1,20
 488 511 488 511 488 455 c 2,21,-1
 488 13 l 2,22,23
 488 0 488 0 475 0 c 2,24,-1
 389 0 l 2,25,26
 375 0 375 0 367 13 c 2,27,-1
 168 336 l 1,0,-1
EndSplineSet
EndChar

StartChar: O
Encoding: 79 79 49
Width: 612
GlyphClass: 1
Flags: W
LayerCount: 2
Fore
SplineSet
306 -10 m 0,0,1
 179 -10 179 -10 109 67 c 128,-1,2
 39 144 39 144 39 277 c 0,3,4
 39 365 39 365 71 430 c 128,-1,5
 103 495 103 495 162.5 530.5 c 128,-1,6
 222 566 222 566 306 566 c 256,7,8
 390 566 390 566 450 530.5 c 128,-1,9
 510 495 510 495 542 430 c 128,-1,10
 574 365 574 365 574 277 c 0,11,12
 574 144 574 144 504 67 c 128,-1,13
 434 -10 434 -10 306 -10 c 0,0,1
306 102 m 0,14,15
 348 102 348 102 381 118.5 c 128,-1,16
 414 135 414 135 433 173.5 c 128,-1,17
 452 212 452 212 452 277 c 256,18,19
 452 342 452 342 433 381 c 128,-1,20
 414 420 414 420 381 437 c 128,-1,21
 348 454 348 454 306 454 c 0,22,23
 265 454 265 454 232 437 c 128,-1,24
 199 420 199 420 179.5 381 c 128,-1,25
 160 342 160 342 160 277 c 256,26,27
 160 212 160 212 179.5 173.5 c 128,-1,28
 199 135 199 135 232 118.5 c 128,-1,29
 265 102 265 102 306 102 c 0,14,15
EndSplineSet
Substitution2: "Single Substitution lookup 2 subtable" ordmasculine
EndChar

StartChar: P
Encoding: 80 80 50
Width: 496
GlyphClass: 1
Flags: W
LayerCount: 2
Fore
SplineSet
168 184 m 1,0,-1
 168 13 l 2,1,2
 168 0 168 0 155 0 c 2,3,-1
 64 0 l 2,4,5
 51 0 51 0 51 13 c 2,6,-1
 51 543 l 2,7,8
 51 556 51 556 64 556 c 2,9,-1
 258 556 l 2,10,11
 371 556 371 556 420 505 c 128,-1,12
 469 454 469 454 469 373 c 0,13,14
 469 318 469 318 445.5 275.5 c 128,-1,15
 422 233 422 233 378.5 208.5 c 128,-1,16
 335 184 335 184 274 184 c 2,17,-1
 168 184 l 1,0,-1
168 292 m 1,18,-1
 268 292 l 2,19,20
 287 292 287 292 306.5 298 c 128,-1,21
 326 304 326 304 339 321.5 c 128,-1,22
 352 339 352 339 352 372 c 0,23,24
 352 410 352 410 328.5 428.5 c 128,-1,25
 305 447 305 447 268 447 c 2,26,-1
 168 447 l 1,27,-1
 168 292 l 1,18,-1
EndSplineSet
EndChar

StartChar: Q
Encoding: 81 81 51
Width: 612
GlyphClass: 1
Flags: W
LayerCount: 2
Fore
SplineSet
271 -8 m 1,0,1
 159 3 159 3 99 78.5 c 128,-1,2
 39 154 39 154 39 277 c 0,3,4
 39 365 39 365 71 430 c 128,-1,5
 103 495 103 495 162.5 530.5 c 128,-1,6
 222 566 222 566 306 566 c 256,7,8
 390 566 390 566 450 530.5 c 128,-1,9
 510 495 510 495 542 430 c 128,-1,10
 574 365 574 365 574 277 c 0,11,12
 574 176 574 176 532.5 106.5 c 128,-1,13
 491 37 491 37 414 8 c 1,14,15
 440 -20 440 -20 477 -20 c 0,16,17
 491 -20 491 -20 507 -15.5 c 128,-1,18
 523 -11 523 -11 538 -1 c 0,19,20
 543 2 543 2 547 2 c 0,21,22
 554 2 554 2 557 -4.5 c 128,-1,23
 560 -11 560 -11 560 -19 c 0,24,25
 560 -41 560 -41 546 -63.5 c 128,-1,26
 532 -86 532 -86 505 -101.5 c 128,-1,27
 478 -117 478 -117 440 -117 c 0,28,29
 378 -117 378 -117 337.5 -88 c 128,-1,30
 297 -59 297 -59 271 -8 c 1,0,1
306 101 m 0,31,32
 348 101 348 101 381 118 c 128,-1,33
 414 135 414 135 433 173.5 c 128,-1,34
 452 212 452 212 452 277 c 256,35,36
 452 342 452 342 433 381 c 128,-1,37
 414 420 414 420 381 437.5 c 128,-1,38
 348 455 348 455 306 455 c 0,39,40
 265 455 265 455 232 437.5 c 128,-1,41
 199 420 199 420 179.5 381 c 128,-1,42
 160 342 160 342 160 277 c 256,43,44
 160 212 160 212 179.5 173.5 c 128,-1,45
 199 135 199 135 232 118 c 128,-1,46
 265 101 265 101 306 101 c 0,31,32
EndSplineSet
EndChar

StartChar: R
Encoding: 82 82 52
Width: 502
GlyphClass: 1
Flags: W
LayerCount: 2
Fore
SplineSet
168 184 m 1,0,-1
 168 13 l 2,1,2
 168 0 168 0 155 0 c 2,3,-1
 64 0 l 2,4,5
 51 0 51 0 51 13 c 2,6,-1
 51 543 l 2,7,8
 51 556 51 556 64 556 c 2,9,-1
 257 556 l 2,10,11
 370 556 370 556 419.5 505 c 128,-1,12
 469 454 469 454 469 373 c 0,13,14
 469 312 469 312 440.5 267 c 128,-1,15
 412 222 412 222 359 200 c 1,16,-1
 472 13 l 2,17,18
 475 9 475 9 473 4.5 c 128,-1,19
 471 0 471 0 465 0 c 2,20,-1
 362 0 l 2,21,22
 344 0 344 0 337 13 c 2,23,-1
 244 184 l 1,24,-1
 168 184 l 1,0,-1
168 292 m 1,25,-1
 268 292 l 2,26,27
 287 292 287 292 306.5 298 c 128,-1,28
 326 304 326 304 339 321.5 c 128,-1,29
 352 339 352 339 352 372 c 0,30,31
 352 410 352 410 328.5 428.5 c 128,-1,32
 305 447 305 447 268 447 c 2,33,-1
 168 447 l 1,34,-1
 168 292 l 1,25,-1
EndSplineSet
EndChar

StartChar: S
Encoding: 83 83 53
Width: 458
GlyphClass: 1
Flags: W
LayerCount: 2
Fore
SplineSet
15 147 m 0,0,1
 15 170 15 170 30 170 c 0,2,3
 36 170 36 170 40 166 c 0,4,5
 73 137 73 137 113.5 117.5 c 128,-1,6
 154 98 154 98 215 98 c 0,7,8
 265 98 265 98 290 113.5 c 128,-1,9
 315 129 315 129 315 157 c 0,10,11
 315 180 315 180 294.5 193 c 128,-1,12
 274 206 274 206 242 216 c 128,-1,13
 210 226 210 226 174 238 c 128,-1,14
 138 250 138 250 106 269.5 c 128,-1,15
 74 289 74 289 53.5 321 c 128,-1,16
 33 353 33 353 33 403 c 0,17,18
 33 458 33 458 60.5 494 c 128,-1,19
 88 530 88 530 134 548 c 128,-1,20
 180 566 180 566 234 566 c 0,21,22
 310 566 310 566 367 547 c 0,23,24
 402 535 402 535 410.5 514 c 128,-1,25
 419 493 419 493 411 461 c 2,26,-1
 405 437 l 2,27,28
 402 424 402 424 393 424 c 0,29,30
 386 424 386 424 376 429 c 0,31,32
 345 444 345 444 311 452.5 c 128,-1,33
 277 461 277 461 237 461 c 0,34,35
 203 461 203 461 178.5 449 c 128,-1,36
 154 437 154 437 154 409 c 0,37,38
 154 385 154 385 174.5 371 c 128,-1,39
 195 357 195 357 227 347.5 c 128,-1,40
 259 338 259 338 295.5 326.5 c 128,-1,41
 332 315 332 315 364 296.5 c 128,-1,42
 396 278 396 278 416.5 247 c 128,-1,43
 437 216 437 216 437 166 c 0,44,45
 437 87 437 87 382.5 38.5 c 128,-1,46
 328 -10 328 -10 228 -10 c 0,47,48
 155 -10 155 -10 108 13.5 c 128,-1,49
 61 37 61 37 38 73 c 128,-1,50
 15 109 15 109 15 147 c 0,0,1
EndSplineSet
EndChar

StartChar: T
Encoding: 84 84 54
Width: 463
GlyphClass: 1
Flags: W
LayerCount: 2
Fore
SplineSet
171 447 m 1,0,-1
 23 447 l 2,1,2
 10 447 10 447 10 460 c 2,3,-1
 10 543 l 2,4,5
 10 556 10 556 23 556 c 2,6,-1
 384 556 l 2,7,8
 453 556 453 556 453 489 c 2,9,-1
 453 464 l 2,10,11
 453 447 453 447 437 447 c 2,12,-1
 288 447 l 1,13,-1
 288 13 l 2,14,15
 288 0 288 0 275 0 c 2,16,-1
 184 0 l 2,17,18
 171 0 171 0 171 13 c 2,19,-1
 171 447 l 1,0,-1
EndSplineSet
EndChar

StartChar: U
Encoding: 85 85 55
Width: 530
GlyphClass: 1
Flags: W
LayerCount: 2
Fore
SplineSet
264 -10 m 256,0,1
 192 -10 192 -10 149 13.5 c 128,-1,2
 106 37 106 37 84.5 72 c 128,-1,3
 63 107 63 107 55.5 143.5 c 128,-1,4
 48 180 48 180 48 207 c 2,5,-1
 48 543 l 2,6,7
 48 556 48 556 61 556 c 2,8,-1
 71 556 l 2,9,10
 118 556 118 556 141.5 533.5 c 128,-1,11
 165 511 165 511 165 455 c 2,12,-1
 165 231 l 2,13,14
 165 172 165 172 187 136 c 128,-1,15
 209 100 209 100 264 100 c 256,16,17
 319 100 319 100 342 136 c 128,-1,18
 365 172 365 172 365 230 c 2,19,-1
 365 543 l 2,20,21
 365 556 365 556 378 556 c 2,22,-1
 388 556 l 2,23,24
 435 556 435 556 458.5 533.5 c 128,-1,25
 482 511 482 511 482 455 c 2,26,-1
 482 207 l 2,27,28
 482 180 482 180 474.5 143.5 c 128,-1,29
 467 107 467 107 445 72 c 128,-1,30
 423 37 423 37 379.5 13.5 c 128,-1,31
 336 -10 336 -10 264 -10 c 256,0,1
EndSplineSet
EndChar

StartChar: V
Encoding: 86 86 56
Width: 511
GlyphClass: 1
Flags: W
LayerCount: 2
Fore
SplineSet
261 140 m 1,0,-1
 388 543 l 2,1,2
 392 556 392 556 407 556 c 2,3,-1
 496 556 l 2,4,5
 510 556 510 556 506 543 c 2,6,-1
 330 13 l 2,7,8
 326 0 326 0 314 0 c 2,9,-1
 202 0 l 2,10,11
 189 0 189 0 184 13 c 2,12,-1
 8 543 l 2,13,14
 7 548 7 548 8.5 552 c 128,-1,15
 10 556 10 556 16 556 c 2,16,-1
 55 556 l 2,17,18
 98 556 98 556 121.5 539 c 128,-1,19
 145 522 145 522 162 466 c 2,20,-1
 261 140 l 1,0,-1
EndSplineSet
EndChar

StartChar: W
Encoding: 87 87 57
Width: 761
GlyphClass: 1
Flags: W
LayerCount: 2
Fore
SplineSet
220 148 m 1,0,-1
 310 543 l 2,1,2
 313 556 313 556 325 556 c 2,3,-1
 362 556 l 2,4,5
 405 556 405 556 431 539 c 128,-1,6
 457 522 457 522 469 466 c 2,7,-1
 538 148 l 1,8,-1
 622 543 l 2,9,10
 625 556 625 556 638 556 c 2,11,-1
 735 556 l 2,12,13
 746 556 746 556 743 543 c 2,14,-1
 613 13 l 2,15,16
 610 0 610 0 597 0 c 2,17,-1
 490 0 l 2,18,19
 477 0 477 0 474 13 c 2,20,-1
 378 394 l 1,21,-1
 282 13 l 2,22,23
 279 0 279 0 266 0 c 2,24,-1
 158 0 l 2,25,26
 144 0 144 0 141 13 c 2,27,-1
 18 543 l 2,28,29
 17 548 17 548 19 552 c 128,-1,30
 21 556 21 556 28 556 c 2,31,-1
 51 556 l 2,32,33
 94 556 94 556 120.5 539 c 128,-1,34
 147 522 147 522 158 466 c 2,35,-1
 220 148 l 1,0,-1
EndSplineSet
EndChar

StartChar: X
Encoding: 88 88 58
Width: 512
GlyphClass: 1
Flags: W
LayerCount: 2
Fore
SplineSet
255 214 m 1,0,-1
 138 13 l 2,1,2
 131 0 131 0 119 0 c 2,3,-1
 18 0 l 2,4,5
 11 0 11 0 9.5 4.5 c 128,-1,6
 8 9 8 9 10 13 c 2,7,-1
 170 289 l 1,8,-1
 21 543 l 2,9,10
 19 547 19 547 20.5 551.5 c 128,-1,11
 22 556 22 556 28 556 c 2,12,-1
 75 556 l 2,13,14
 104 556 104 556 121.5 552 c 128,-1,15
 139 548 139 548 153.5 533 c 128,-1,16
 168 518 168 518 187 484 c 2,17,-1
 251 373 l 1,18,-1
 351 543 l 2,19,20
 359 556 359 556 372 556 c 2,21,-1
 471 556 l 2,22,23
 477 556 477 556 479 552 c 128,-1,24
 481 548 481 548 478 543 c 2,25,-1
 336 298 l 1,26,-1
 505 13 l 2,27,28
 508 9 508 9 506 4.5 c 128,-1,29
 504 0 504 0 497 0 c 2,30,-1
 396 0 l 2,31,32
 381 0 381 0 374 13 c 2,33,-1
 255 214 l 1,0,-1
EndSplineSet
EndChar

StartChar: Y
Encoding: 89 89 59
Width: 485
GlyphClass: 1
Flags: W
LayerCount: 2
Fore
SplineSet
184 203 m 1,0,-1
 4 543 l 2,1,2
 2 548 2 548 3.5 552 c 128,-1,3
 5 556 5 556 12 556 c 2,4,-1
 61 556 l 2,5,6
 96 556 96 556 119.5 542.5 c 128,-1,7
 143 529 143 529 160 495 c 2,8,-1
 247 322 l 1,9,-1
 359 543 l 2,10,11
 365 556 365 556 379 556 c 2,12,-1
 475 556 l 2,13,14
 482 556 482 556 483.5 552 c 128,-1,15
 485 548 485 548 483 543 c 2,16,-1
 301 200 l 1,17,-1
 301 13 l 2,18,19
 301 0 301 0 288 0 c 2,20,-1
 197 0 l 2,21,22
 184 0 184 0 184 13 c 2,23,-1
 184 203 l 1,0,-1
EndSplineSet
EndChar

StartChar: Z
Encoding: 90 90 60
Width: 453
GlyphClass: 1
Flags: W
LayerCount: 2
Fore
SplineSet
170 108 m 1,0,-1
 356 108 l 2,1,2
 426 108 426 108 426 42 c 2,3,-1
 426 17 l 2,4,5
 426 0 426 0 410 0 c 2,6,-1
 39 0 l 2,7,8
 26 0 26 0 26 13 c 2,9,-1
 26 85 l 2,10,11
 26 107 26 107 41 127 c 2,12,-1
 276 447 l 1,13,-1
 45 447 l 2,14,15
 32 447 32 447 32 460 c 2,16,-1
 32 543 l 2,17,18
 32 556 32 556 45 556 c 2,19,-1
 356 556 l 2,20,21
 426 556 426 556 426 489 c 2,22,-1
 426 473 l 2,23,24
 426 455 426 455 411 435 c 2,25,-1
 170 108 l 1,0,-1
EndSplineSet
EndChar

StartChar: bracketleft
Encoding: 91 91 61
Width: 299
GlyphClass: 1
Flags: W
LayerCount: 2
Fore
SplineSet
145 594 m 2,0,-1
 145 -45 l 2,1,2
 145 -51 145 -51 151 -51 c 2,3,-1
 180 -51 l 2,4,5
 250 -51 250 -51 250 -118 c 2,6,-1
 250 -126 l 2,7,8
 250 -144 250 -144 234 -144 c 2,9,-1
 115 -144 l 2,10,11
 46 -144 46 -144 46 -77 c 2,12,-1
 46 626 l 2,13,14
 46 692 46 692 115 692 c 2,15,-1
 234 692 l 2,16,17
 250 692 250 692 250 675 c 2,18,-1
 250 666 l 2,19,20
 250 600 250 600 180 600 c 2,21,-1
 151 600 l 2,22,23
 145 600 145 600 145 594 c 2,0,-1
EndSplineSet
PairPos2: "'kern' Horizontal Kerning lookup 2 per glyph data 1" uni0632 dx=13 dy=0 dh=13 dv=0 dx=0 dy=0 dh=0 dv=0
EndChar

StartChar: backslash
Encoding: 92 92 62
Width: 339
GlyphClass: 1
Flags: W
LayerCount: 2
Fore
SplineSet
229 13 m 2,0,-1
 5 543 l 2,1,2
 4 548 4 548 5 552 c 128,-1,3
 6 556 6 556 13 556 c 2,4,-1
 35 556 l 2,5,6
 84 556 84 556 103 537.5 c 128,-1,7
 122 519 122 519 136 485 c 2,8,-1
 336 13 l 2,9,10
 338 9 338 9 336.5 4.5 c 128,-1,11
 335 0 335 0 328 0 c 2,12,-1
 248 0 l 2,13,14
 235 0 235 0 229 13 c 2,0,-1
EndSplineSet
EndChar

StartChar: bracketright
Encoding: 93 93 63
Width: 300
GlyphClass: 1
Flags: W
LayerCount: 2
Fore
SplineSet
152 -45 m 2,0,-1
 152 594 l 2,1,2
 152 600 152 600 146 600 c 2,3,-1
 117 600 l 2,4,5
 47 600 47 600 47 666 c 2,6,-1
 47 675 l 2,7,8
 47 692 47 692 63 692 c 2,9,-1
 182 692 l 2,10,11
 251 692 251 692 251 626 c 2,12,-1
 251 -77 l 2,13,14
 251 -144 251 -144 182 -144 c 2,15,-1
 63 -144 l 2,16,17
 47 -144 47 -144 47 -126 c 2,18,-1
 47 -118 l 2,19,20
 47 -51 47 -51 117 -51 c 2,21,-1
 146 -51 l 2,22,23
 152 -51 152 -51 152 -45 c 2,0,-1
EndSplineSet
PairPos2: "'kern' Horizontal Kerning lookup 2 per glyph data 1" uni0698 dx=-32 dy=0 dh=-32 dv=0 dx=0 dy=0 dh=0 dv=0
PairPos2: "'kern' Horizontal Kerning lookup 2 per glyph data 1" uni0695 dx=-32 dy=0 dh=-32 dv=0 dx=0 dy=0 dh=0 dv=0
PairPos2: "'kern' Horizontal Kerning lookup 2 per glyph data 1" uni0694 dx=-32 dy=0 dh=-32 dv=0 dx=0 dy=0 dh=0 dv=0
PairPos2: "'kern' Horizontal Kerning lookup 2 per glyph data 1" uni0691 dx=-18 dy=0 dh=-18 dv=0 dx=0 dy=0 dh=0 dv=0
PairPos2: "'kern' Horizontal Kerning lookup 2 per glyph data 1" uni0671 dx=24 dy=0 dh=24 dv=0 dx=0 dy=0 dh=0 dv=0
PairPos2: "'kern' Horizontal Kerning lookup 2 per glyph data 1" uni0632 dx=-32 dy=0 dh=-32 dv=0 dx=0 dy=0 dh=0 dv=0
PairPos2: "'kern' Horizontal Kerning lookup 2 per glyph data 1" uni0631 dx=-32 dy=0 dh=-32 dv=0 dx=0 dy=0 dh=0 dv=0
PairPos2: "'kern' Horizontal Kerning lookup 2 per glyph data 1" uni0627 dx=-32 dy=0 dh=-32 dv=0 dx=0 dy=0 dh=0 dv=0
PairPos2: "'kern' Horizontal Kerning lookup 2 per glyph data 1" uni0625 dx=4 dy=0 dh=4 dv=0 dx=0 dy=0 dh=0 dv=0
PairPos2: "'kern' Horizontal Kerning lookup 2 per glyph data 1" uni0623 dx=9 dy=0 dh=9 dv=0 dx=0 dy=0 dh=0 dv=0
PairPos2: "'kern' Horizontal Kerning lookup 2 per glyph data 1" uni0622 dx=19 dy=0 dh=19 dv=0 dx=0 dy=0 dh=0 dv=0
EndChar

StartChar: asciicircum
Encoding: 94 94 64
Width: 414
GlyphClass: 1
Flags: W
LayerCount: 2
Fore
SplineSet
210 432 m 1,0,-1
 132 280 l 2,1,2
 125 266 125 266 111 266 c 2,3,-1
 33 266 l 2,4,5
 27 266 27 266 24.5 270.5 c 128,-1,6
 22 275 22 275 24 279 c 2,7,-1
 164 543 l 2,8,9
 171 556 171 556 187 556 c 0,10,11
 220 556 220 556 240 544.5 c 128,-1,12
 260 533 260 533 274 505 c 2,13,-1
 395 279 l 2,14,15
 397 275 397 275 394.5 270.5 c 128,-1,16
 392 266 392 266 386 266 c 2,17,-1
 307 266 l 2,18,19
 293 266 293 266 286 280 c 2,20,-1
 210 432 l 1,0,-1
EndSplineSet
EndChar

StartChar: underscore
Encoding: 95 95 65
Width: 467
GlyphClass: 1
Flags: W
LayerCount: 2
Fore
SplineSet
7 -205 m 2,0,1
 -6 -205 -6 -205 -6 -192 c 2,2,-1
 -6 -117 l 2,3,4
 -6 -104 -6 -104 7 -104 c 2,5,-1
 460 -104 l 2,6,7
 473 -104 473 -104 473 -117 c 2,8,-1
 473 -192 l 2,9,10
 473 -205 473 -205 460 -205 c 2,11,-1
 7 -205 l 2,0,1
EndSplineSet
EndChar

StartChar: grave
Encoding: 96 96 66
Width: 225
GlyphClass: 1
Flags: W
LayerCount: 2
Fore
SplineSet
7 524 m 2,0,1
 2 529 2 529 3.5 534.5 c 128,-1,2
 5 540 5 540 12 540 c 2,3,-1
 103 540 l 2,4,5
 120 540 120 540 133 528 c 2,6,-1
 225 445 l 2,7,8
 229 441 229 441 227.5 435.5 c 128,-1,9
 226 430 226 430 219 430 c 2,10,-1
 140 430 l 2,11,12
 117 430 117 430 104 442 c 2,13,-1
 7 524 l 2,0,1
EndSplineSet
EndChar

StartChar: a
Encoding: 97 97 67
Width: 468
GlyphClass: 1
Flags: W
LayerCount: 2
Fore
SplineSet
313 43 m 1,0,1
 294 19 294 19 265 5 c 128,-1,2
 236 -9 236 -9 201 -9 c 0,3,4
 144 -9 144 -9 106 18.5 c 128,-1,5
 68 46 68 46 48.5 92 c 128,-1,6
 29 138 29 138 29 194 c 256,7,8
 29 250 29 250 50 295.5 c 128,-1,9
 71 341 71 341 110 367.5 c 128,-1,10
 149 394 149 394 203 394 c 0,11,12
 249 394 249 394 278.5 378 c 128,-1,13
 308 362 308 362 325 343 c 1,14,15
 336 364 336 364 357.5 373 c 128,-1,16
 379 382 379 382 410 382 c 2,17,-1
 415 382 l 2,18,19
 428 382 428 382 428 369 c 2,20,-1
 428 13 l 2,21,22
 428 0 428 0 415 0 c 2,23,-1
 326 0 l 2,24,25
 313 0 313 0 313 13 c 2,26,-1
 313 43 l 1,0,1
232 98 m 256,27,28
 245 98 245 98 264 104.5 c 128,-1,29
 283 111 283 111 298 131.5 c 128,-1,30
 313 152 313 152 313 193 c 256,31,32
 313 234 313 234 298.5 253 c 128,-1,33
 284 272 284 272 265 277.5 c 128,-1,34
 246 283 246 283 232 283 c 0,35,36
 219 283 219 283 199 277.5 c 128,-1,37
 179 272 179 272 163 253 c 128,-1,38
 147 234 147 234 147 193 c 256,39,40
 147 152 147 152 162.5 131.5 c 128,-1,41
 178 111 178 111 198.5 104.5 c 128,-1,42
 219 98 219 98 232 98 c 256,27,28
EndSplineSet
Substitution2: "Single Substitution lookup 2 subtable" ordfeminine
EndChar

StartChar: b
Encoding: 98 98 68
Width: 468
GlyphClass: 1
Flags: W
LayerCount: 2
Fore
SplineSet
155 43 m 1,0,-1
 155 13 l 2,1,2
 155 0 155 0 142 0 c 2,3,-1
 54 0 l 2,4,5
 41 0 41 0 41 13 c 2,6,-1
 41 543 l 2,7,8
 41 556 41 556 54 556 c 2,9,-1
 59 556 l 2,10,11
 106 556 106 556 130.5 534 c 128,-1,12
 155 512 155 512 155 458 c 2,13,-1
 155 339 l 1,14,15
 170 362 170 362 198 378 c 128,-1,16
 226 394 226 394 267 394 c 0,17,18
 347 394 347 394 393.5 340 c 128,-1,19
 440 286 440 286 440 194 c 0,20,21
 440 138 440 138 420.5 92 c 128,-1,22
 401 46 401 46 363 18.5 c 128,-1,23
 325 -9 325 -9 268 -9 c 0,24,25
 233 -9 233 -9 204 5 c 128,-1,26
 175 19 175 19 155 43 c 1,0,-1
237 98 m 0,27,28
 251 98 251 98 270.5 104.5 c 128,-1,29
 290 111 290 111 305.5 131.5 c 128,-1,30
 321 152 321 152 321 193 c 256,31,32
 321 234 321 234 305.5 253 c 128,-1,33
 290 272 290 272 270 277.5 c 128,-1,34
 250 283 250 283 237 283 c 256,35,36
 224 283 224 283 204.5 277.5 c 128,-1,37
 185 272 185 272 170 253 c 128,-1,38
 155 234 155 234 155 193 c 256,39,40
 155 152 155 152 170 131.5 c 128,-1,41
 185 111 185 111 204.5 104.5 c 128,-1,42
 224 98 224 98 237 98 c 0,27,28
EndSplineSet
EndChar

StartChar: c
Encoding: 99 99 69
Width: 365
GlyphClass: 1
Flags: W
LayerCount: 2
Fore
SplineSet
212 -10 m 0,0,1
 130 -10 130 -10 79.5 43.5 c 128,-1,2
 29 97 29 97 29 192 c 256,3,4
 29 287 29 287 83 340 c 128,-1,5
 137 393 137 393 225 393 c 0,6,7
 265 393 265 393 299 381 c 0,8,9
 329 371 329 371 337.5 351 c 128,-1,10
 346 331 346 331 338 296 c 2,11,-1
 332 271 l 2,12,13
 329 261 329 261 323 261 c 0,14,15
 318 261 318 261 312 264 c 0,16,17
 289 275 289 275 272 280 c 128,-1,18
 255 285 255 285 232 285 c 0,19,20
 198 285 198 285 172.5 262 c 128,-1,21
 147 239 147 239 147 189 c 0,22,23
 147 143 147 143 171 115.5 c 128,-1,24
 195 88 195 88 245 88 c 0,25,26
 274 88 274 88 295 97.5 c 128,-1,27
 316 107 316 107 327 114 c 0,28,29
 336 120 336 120 341 120 c 0,30,31
 352 120 352 120 352 104 c 0,32,33
 352 84 352 84 340.5 57 c 128,-1,34
 329 30 329 30 298.5 10 c 128,-1,35
 268 -10 268 -10 212 -10 c 0,0,1
EndSplineSet
EndChar

StartChar: d
Encoding: 100 100 70
Width: 468
GlyphClass: 1
Flags: W
LayerCount: 2
Fore
SplineSet
313 344 m 1,0,-1
 313 543 l 2,1,2
 313 556 313 556 326 556 c 2,3,-1
 331 556 l 2,4,5
 379 556 379 556 403.5 534 c 128,-1,6
 428 512 428 512 428 458 c 2,7,-1
 428 13 l 2,8,9
 428 0 428 0 415 0 c 2,10,-1
 326 0 l 2,11,12
 313 0 313 0 313 13 c 2,13,-1
 313 43 l 1,14,15
 294 19 294 19 265 5 c 128,-1,16
 236 -9 236 -9 201 -9 c 0,17,18
 144 -9 144 -9 106 18.5 c 128,-1,19
 68 46 68 46 48.5 92 c 128,-1,20
 29 138 29 138 29 194 c 256,21,22
 29 250 29 250 49.5 295.5 c 128,-1,23
 70 341 70 341 110 367.5 c 128,-1,24
 150 394 150 394 208 394 c 0,25,26
 246 394 246 394 271.5 380.5 c 128,-1,27
 297 367 297 367 313 344 c 1,0,-1
232 98 m 256,28,29
 245 98 245 98 264 104.5 c 128,-1,30
 283 111 283 111 298 131.5 c 128,-1,31
 313 152 313 152 313 193 c 256,32,33
 313 234 313 234 298.5 253 c 128,-1,34
 284 272 284 272 265 277.5 c 128,-1,35
 246 283 246 283 232 283 c 0,36,37
 219 283 219 283 199 277.5 c 128,-1,38
 179 272 179 272 163 253 c 128,-1,39
 147 234 147 234 147 193 c 256,40,41
 147 152 147 152 162.5 131.5 c 128,-1,42
 178 111 178 111 198.5 104.5 c 128,-1,43
 219 98 219 98 232 98 c 256,28,29
EndSplineSet
EndChar

StartChar: e
Encoding: 101 101 71
Width: 422
GlyphClass: 1
Flags: W
LayerCount: 2
Fore
SplineSet
147 151 m 1,0,1
 159 86 159 86 246 86 c 0,2,3
 280 86 280 86 305 91.5 c 128,-1,4
 330 97 330 97 359 110 c 0,5,6
 371 115 371 115 376 115 c 0,7,8
 388 115 388 115 388 100 c 0,9,10
 388 80 388 80 373.5 54 c 128,-1,11
 359 28 359 28 325 9 c 128,-1,12
 291 -10 291 -10 230 -10 c 0,13,14
 139 -10 139 -10 84 44.5 c 128,-1,15
 29 99 29 99 29 193 c 0,16,17
 29 251 29 251 52 296 c 128,-1,18
 75 341 75 341 118 367 c 128,-1,19
 161 393 161 393 221 393 c 0,20,21
 282 393 282 393 320.5 368 c 128,-1,22
 359 343 359 343 377.5 303.5 c 128,-1,23
 396 264 396 264 396 220 c 0,24,25
 396 201 396 201 395.5 188 c 128,-1,26
 395 175 395 175 394 166 c 0,27,28
 393 151 393 151 375 151 c 2,29,-1
 147 151 l 1,0,1
148 231 m 1,30,-1
 282 231 l 1,31,32
 284 243 284 243 279 258 c 128,-1,33
 274 273 274 273 260.5 284 c 128,-1,34
 247 295 247 295 221 295 c 0,35,36
 187 295 187 295 168.5 277.5 c 128,-1,37
 150 260 150 260 148 231 c 1,30,-1
EndSplineSet
EndChar

StartChar: f
Encoding: 102 102 72
Width: 324
GlyphClass: 1
Flags: W
LayerCount: 2
Fore
SplineSet
77 280 m 1,0,-1
 23 280 l 2,1,2
 10 280 10 280 10 293 c 2,3,-1
 10 369 l 2,4,5
 10 382 10 382 23 382 c 2,6,-1
 77 382 l 1,7,-1
 77 407 l 2,8,9
 77 487 77 487 110.5 524 c 128,-1,10
 144 561 144 561 199 561 c 0,11,12
 237 561 237 561 261 547 c 128,-1,13
 285 533 285 533 297 511.5 c 128,-1,14
 309 490 309 490 309 468 c 0,15,16
 309 460 309 460 306 454 c 128,-1,17
 303 448 303 448 296 448 c 0,18,19
 293 448 293 448 287 450 c 0,20,21
 271 457 271 457 260 460.5 c 128,-1,22
 249 464 249 464 236 464 c 0,23,24
 211 464 211 464 201 449 c 128,-1,25
 191 434 191 434 191 401 c 2,26,-1
 191 382 l 1,27,-1
 285 382 l 2,28,29
 298 382 298 382 298 369 c 2,30,-1
 298 293 l 2,31,32
 298 280 298 280 285 280 c 2,33,-1
 191 280 l 1,34,-1
 191 13 l 2,35,36
 191 0 191 0 178 0 c 2,37,-1
 90 0 l 2,38,39
 77 0 77 0 77 13 c 2,40,-1
 77 280 l 1,0,-1
EndSplineSet
EndChar

StartChar: g
Encoding: 103 103 73
Width: 468
GlyphClass: 1
Flags: W
LayerCount: 2
Fore
SplineSet
313 52 m 1,0,1
 294 28 294 28 265 14 c 128,-1,2
 236 0 236 0 201 0 c 0,3,4
 116 0 116 0 72.5 55 c 128,-1,5
 29 110 29 110 29 194 c 0,6,7
 29 250 29 250 50 295.5 c 128,-1,8
 71 341 71 341 110 367.5 c 128,-1,9
 149 394 149 394 203 394 c 0,10,11
 249 394 249 394 278.5 378.5 c 128,-1,12
 308 363 308 363 325 343 c 1,13,14
 336 364 336 364 357.5 373 c 128,-1,15
 379 382 379 382 410 382 c 2,16,-1
 415 382 l 2,17,18
 428 382 428 382 428 369 c 2,19,-1
 428 20 l 2,20,21
 428 -67 428 -67 378.5 -119 c 128,-1,22
 329 -171 329 -171 229 -171 c 0,23,24
 173 -171 173 -171 132.5 -153 c 128,-1,25
 92 -135 92 -135 70.5 -106.5 c 128,-1,26
 49 -78 49 -78 49 -47 c 0,27,28
 49 -37 49 -37 52.5 -30.5 c 128,-1,29
 56 -24 56 -24 63 -24 c 0,30,31
 68 -24 68 -24 77 -31 c 0,32,33
 95 -44 95 -44 123.5 -55.5 c 128,-1,34
 152 -67 152 -67 201 -67 c 0,35,36
 263 -67 263 -67 288 -42.5 c 128,-1,37
 313 -18 313 -18 313 19 c 2,38,-1
 313 52 l 1,0,1
232 98 m 256,39,40
 245 98 245 98 264 104.5 c 128,-1,41
 283 111 283 111 298 131.5 c 128,-1,42
 313 152 313 152 313 193 c 256,43,44
 313 234 313 234 298.5 253 c 128,-1,45
 284 272 284 272 265 277.5 c 128,-1,46
 246 283 246 283 232 283 c 0,47,48
 219 283 219 283 199 277.5 c 128,-1,49
 179 272 179 272 163 253 c 128,-1,50
 147 234 147 234 147 193 c 256,51,52
 147 152 147 152 162.5 131.5 c 128,-1,53
 178 111 178 111 198.5 104.5 c 128,-1,54
 219 98 219 98 232 98 c 256,39,40
EndSplineSet
EndChar

StartChar: h
Encoding: 104 104 74
Width: 447
GlyphClass: 1
Flags: W
LayerCount: 2
Fore
SplineSet
155 348 m 1,0,1
 190 394 190 394 255 394 c 0,2,3
 322 394 322 394 365.5 351.5 c 128,-1,4
 409 309 409 309 409 220 c 2,5,-1
 409 13 l 2,6,7
 409 0 409 0 396 0 c 2,8,-1
 307 0 l 2,9,10
 294 0 294 0 294 13 c 2,11,-1
 294 210 l 2,12,13
 294 254 294 254 272.5 271 c 128,-1,14
 251 288 251 288 224 288 c 256,15,16
 197 288 197 288 176 271 c 128,-1,17
 155 254 155 254 155 209 c 2,18,-1
 155 13 l 2,19,20
 155 0 155 0 142 0 c 2,21,-1
 54 0 l 2,22,23
 41 0 41 0 41 13 c 2,24,-1
 41 543 l 2,25,26
 41 556 41 556 54 556 c 2,27,-1
 59 556 l 2,28,29
 106 556 106 556 130.5 534 c 128,-1,30
 155 512 155 512 155 458 c 2,31,-1
 155 348 l 1,0,1
EndSplineSet
EndChar

StartChar: i
Encoding: 105 105 75
Width: 196
GlyphClass: 1
Flags: W
LayerCount: 2
Fore
SplineSet
35 481 m 256,0,1
 35 509 35 509 53.5 527.5 c 128,-1,2
 72 546 72 546 99 546 c 0,3,4
 125 546 125 546 142.5 527.5 c 128,-1,5
 160 509 160 509 160 481 c 256,6,7
 160 453 160 453 142.5 435 c 128,-1,8
 125 417 125 417 99 417 c 0,9,10
 72 417 72 417 53.5 435 c 128,-1,11
 35 453 35 453 35 481 c 256,0,1
41 13 m 2,12,-1
 41 369 l 2,13,14
 41 382 41 382 54 382 c 2,15,-1
 59 382 l 2,16,17
 106 382 106 382 130.5 360 c 128,-1,18
 155 338 155 338 155 284 c 2,19,-1
 155 13 l 2,20,21
 155 0 155 0 142 0 c 2,22,-1
 54 0 l 2,23,24
 41 0 41 0 41 13 c 2,12,-1
EndSplineSet
EndChar

StartChar: j
Encoding: 106 106 76
Width: 196
GlyphClass: 1
Flags: W
LayerCount: 2
Fore
SplineSet
34 481 m 256,0,1
 34 509 34 509 52.5 527.5 c 128,-1,2
 71 546 71 546 98 546 c 0,3,4
 124 546 124 546 142 527.5 c 128,-1,5
 160 509 160 509 160 481 c 256,6,7
 160 453 160 453 142 435 c 128,-1,8
 124 417 124 417 98 417 c 0,9,10
 71 417 71 417 52.5 435 c 128,-1,11
 34 453 34 453 34 481 c 256,0,1
-78 -78 m 0,12,13
 -78 -70 -78 -70 -75 -64 c 128,-1,14
 -72 -58 -72 -58 -65 -58 c 0,15,16
 -62 -58 -62 -58 -56 -60 c 0,17,18
 -40 -67 -40 -67 -28.5 -70.5 c 128,-1,19
 -17 -74 -17 -74 -4 -74 c 0,20,21
 21 -74 21 -74 30.5 -59 c 128,-1,22
 40 -44 40 -44 40 -10 c 2,23,-1
 40 369 l 2,24,25
 40 382 40 382 53 382 c 2,26,-1
 58 382 l 2,27,28
 106 382 106 382 130.5 360 c 128,-1,29
 155 338 155 338 155 284 c 2,30,-1
 155 -17 l 2,31,32
 155 -96 155 -96 122.5 -133.5 c 128,-1,33
 90 -171 90 -171 34 -171 c 0,34,35
 -3 -171 -3 -171 -28 -156.5 c 128,-1,36
 -53 -142 -53 -142 -65.5 -120.5 c 128,-1,37
 -78 -99 -78 -99 -78 -78 c 0,12,13
EndSplineSet
EndChar

StartChar: k
Encoding: 107 107 77
Width: 410
GlyphClass: 1
Flags: W
LayerCount: 2
Fore
SplineSet
155 113 m 1,0,-1
 155 13 l 2,1,2
 155 0 155 0 142 0 c 2,3,-1
 54 0 l 2,4,5
 41 0 41 0 41 13 c 2,6,-1
 41 543 l 2,7,8
 41 556 41 556 54 556 c 2,9,-1
 59 556 l 2,10,11
 106 556 106 556 130.5 534 c 128,-1,12
 155 512 155 512 155 458 c 2,13,-1
 155 253 l 1,14,-1
 257 369 l 2,15,16
 269 382 269 382 281 382 c 2,17,-1
 382 382 l 2,18,19
 388 382 388 382 389.5 377.5 c 128,-1,20
 391 373 391 373 387 369 c 2,21,-1
 273 242 l 1,22,-1
 401 13 l 2,23,24
 403 9 403 9 401 4.5 c 128,-1,25
 399 0 399 0 394 0 c 2,26,-1
 294 0 l 2,27,28
 278 0 278 0 271 13 c 2,29,-1
 195 157 l 1,30,-1
 155 113 l 1,0,-1
EndSplineSet
EndChar

StartChar: l
Encoding: 108 108 78
Width: 256
GlyphClass: 1
Flags: W
LayerCount: 2
Fore
SplineSet
153 -8 m 0,0,1
 101 -8 101 -8 71 26.5 c 128,-1,2
 41 61 41 61 41 131 c 2,3,-1
 41 543 l 2,4,5
 41 556 41 556 54 556 c 2,6,-1
 59 556 l 2,7,8
 106 556 106 556 130.5 534 c 128,-1,9
 155 512 155 512 155 458 c 2,10,-1
 155 144 l 2,11,12
 155 90 155 90 193 90 c 0,13,14
 207 90 207 90 215.5 94 c 128,-1,15
 224 98 224 98 234 105 c 0,16,17
 236 107 236 107 239 108.5 c 128,-1,18
 242 110 242 110 246 110 c 0,19,20
 252 110 252 110 254.5 105 c 128,-1,21
 257 100 257 100 257 95 c 0,22,23
 257 72 257 72 247.5 48 c 128,-1,24
 238 24 238 24 215.5 8 c 128,-1,25
 193 -8 193 -8 153 -8 c 0,0,1
EndSplineSet
EndChar

StartChar: m
Encoding: 109 109 79
Width: 685
GlyphClass: 1
Flags: W
LayerCount: 2
Fore
SplineSet
146 338 m 1,0,1
 166 362 166 362 192 376.5 c 128,-1,2
 218 391 218 391 250 391 c 0,3,4
 338 391 338 391 376 326 c 1,5,6
 396 353 396 353 426.5 372 c 128,-1,7
 457 391 457 391 495 391 c 0,8,9
 566 391 566 391 606 348.5 c 128,-1,10
 646 306 646 306 646 217 c 2,11,-1
 646 13 l 2,12,13
 646 0 646 0 633 0 c 2,14,-1
 545 0 l 2,15,16
 532 0 532 0 532 13 c 2,17,-1
 532 207 l 2,18,19
 532 252 532 252 513 269.5 c 128,-1,20
 494 287 494 287 468 287 c 0,21,22
 444 287 444 287 422.5 269.5 c 128,-1,23
 401 252 401 252 401 208 c 2,24,-1
 401 13 l 2,25,26
 401 0 401 0 388 0 c 2,27,-1
 299 0 l 2,28,29
 286 0 286 0 286 13 c 2,30,-1
 286 207 l 2,31,32
 286 252 286 252 267.5 269.5 c 128,-1,33
 249 287 249 287 223 287 c 0,34,35
 198 287 198 287 176.5 269.5 c 128,-1,36
 155 252 155 252 155 208 c 2,37,-1
 155 13 l 2,38,39
 155 0 155 0 142 0 c 2,40,-1
 54 0 l 2,41,42
 41 0 41 0 41 13 c 2,43,-1
 41 369 l 2,44,45
 41 382 41 382 54 382 c 2,46,-1
 59 382 l 2,47,48
 92 382 92 382 114 372 c 128,-1,49
 136 362 136 362 146 338 c 1,0,1
EndSplineSet
EndChar

StartChar: n
Encoding: 110 110 80
Width: 447
GlyphClass: 1
Flags: W
LayerCount: 2
Fore
SplineSet
147 335 m 1,0,1
 167 362 167 362 196 376.5 c 128,-1,2
 225 391 225 391 256 391 c 0,3,4
 327 391 327 391 368 348.5 c 128,-1,5
 409 306 409 306 409 217 c 2,6,-1
 409 13 l 2,7,8
 409 0 409 0 396 0 c 2,9,-1
 307 0 l 2,10,11
 294 0 294 0 294 13 c 2,12,-1
 294 205 l 2,13,14
 294 251 294 251 272.5 268 c 128,-1,15
 251 285 251 285 224 285 c 256,16,17
 197 285 197 285 176 268 c 128,-1,18
 155 251 155 251 155 206 c 2,19,-1
 155 13 l 2,20,21
 155 0 155 0 142 0 c 2,22,-1
 54 0 l 2,23,24
 41 0 41 0 41 13 c 2,25,-1
 41 369 l 2,26,27
 41 382 41 382 54 382 c 2,28,-1
 59 382 l 2,29,30
 94 382 94 382 115.5 371.5 c 128,-1,31
 137 361 137 361 147 335 c 1,0,1
EndSplineSet
EndChar

StartChar: o
Encoding: 111 111 81
Width: 455
GlyphClass: 1
Flags: W
LayerCount: 2
Fore
SplineSet
229 -10 m 0,0,1
 138 -10 138 -10 83.5 45.5 c 128,-1,2
 29 101 29 101 29 192 c 256,3,4
 29 283 29 283 82.5 338 c 128,-1,5
 136 393 136 393 227 393 c 0,6,7
 319 393 319 393 373 338 c 128,-1,8
 427 283 427 283 427 192 c 256,9,10
 427 101 427 101 374 45.5 c 128,-1,11
 321 -10 321 -10 229 -10 c 0,0,1
227 98 m 256,12,13
 258 98 258 98 283 117.5 c 128,-1,14
 308 137 308 137 308 190 c 0,15,16
 308 242 308 242 283.5 263 c 128,-1,17
 259 284 259 284 228 284 c 256,18,19
 197 284 197 284 172 263 c 128,-1,20
 147 242 147 242 147 190 c 0,21,22
 147 137 147 137 171.5 117.5 c 128,-1,23
 196 98 196 98 227 98 c 256,12,13
EndSplineSet
Substitution2: "Single Substitution lookup 2 subtable" ordmasculine
EndChar

StartChar: p
Encoding: 112 112 82
Width: 468
GlyphClass: 1
Flags: W
LayerCount: 2
Fore
SplineSet
155 40 m 1,0,-1
 155 -147 l 2,1,2
 155 -160 155 -160 142 -160 c 2,3,-1
 54 -160 l 2,4,5
 41 -160 41 -160 41 -147 c 2,6,-1
 41 369 l 2,7,8
 41 382 41 382 54 382 c 2,9,-1
 59 382 l 2,10,11
 126 382 126 382 146 338 c 1,12,13
 160 357 160 357 189 375 c 128,-1,14
 218 393 218 393 258 393 c 0,15,16
 319 393 319 393 359 366.5 c 128,-1,17
 399 340 399 340 419.5 295 c 128,-1,18
 440 250 440 250 440 194 c 256,19,20
 440 138 440 138 420.5 92 c 128,-1,21
 401 46 401 46 363 18.5 c 128,-1,22
 325 -9 325 -9 268 -9 c 0,23,24
 195 -9 195 -9 155 40 c 1,0,-1
237 98 m 0,25,26
 251 98 251 98 270.5 104.5 c 128,-1,27
 290 111 290 111 305.5 131.5 c 128,-1,28
 321 152 321 152 321 193 c 256,29,30
 321 234 321 234 305.5 253 c 128,-1,31
 290 272 290 272 270 277.5 c 128,-1,32
 250 283 250 283 237 283 c 256,33,34
 224 283 224 283 204.5 277.5 c 128,-1,35
 185 272 185 272 170 253 c 128,-1,36
 155 234 155 234 155 193 c 256,37,38
 155 152 155 152 170 131.5 c 128,-1,39
 185 111 185 111 204.5 104.5 c 128,-1,40
 224 98 224 98 237 98 c 0,25,26
EndSplineSet
EndChar

StartChar: q
Encoding: 113 113 83
Width: 468
GlyphClass: 1
Flags: W
LayerCount: 2
Fore
SplineSet
313 43 m 1,0,1
 294 19 294 19 265 5 c 128,-1,2
 236 -9 236 -9 201 -9 c 0,3,4
 144 -9 144 -9 106 18.5 c 128,-1,5
 68 46 68 46 48.5 92 c 128,-1,6
 29 138 29 138 29 194 c 256,7,8
 29 250 29 250 50 295.5 c 128,-1,9
 71 341 71 341 110 367.5 c 128,-1,10
 149 394 149 394 203 394 c 0,11,12
 249 394 249 394 278.5 378 c 128,-1,13
 308 362 308 362 325 343 c 1,14,15
 336 364 336 364 357.5 373 c 128,-1,16
 379 382 379 382 410 382 c 2,17,-1
 415 382 l 2,18,19
 428 382 428 382 428 369 c 2,20,-1
 428 -147 l 2,21,22
 428 -160 428 -160 415 -160 c 2,23,-1
 326 -160 l 2,24,25
 313 -160 313 -160 313 -147 c 2,26,-1
 313 43 l 1,0,1
232 98 m 256,27,28
 245 98 245 98 264 104.5 c 128,-1,29
 283 111 283 111 298 131.5 c 128,-1,30
 313 152 313 152 313 193 c 256,31,32
 313 234 313 234 298.5 253 c 128,-1,33
 284 272 284 272 265 277.5 c 128,-1,34
 246 283 246 283 232 283 c 0,35,36
 219 283 219 283 199 277.5 c 128,-1,37
 179 272 179 272 163 253 c 128,-1,38
 147 234 147 234 147 193 c 256,39,40
 147 152 147 152 162.5 131.5 c 128,-1,41
 178 111 178 111 198.5 104.5 c 128,-1,42
 219 98 219 98 232 98 c 256,27,28
EndSplineSet
EndChar

StartChar: r
Encoding: 114 114 84
Width: 298
GlyphClass: 1
Flags: W
LayerCount: 2
Fore
SplineSet
150 327 m 1,0,1
 168 359 168 359 189.5 370.5 c 128,-1,2
 211 382 211 382 254 382 c 2,3,-1
 266 382 l 2,4,5
 279 382 279 382 279 369 c 2,6,-1
 279 288 l 2,7,8
 279 275 279 275 266 275 c 2,9,-1
 237 275 l 2,10,11
 200 275 200 275 182.5 262.5 c 128,-1,12
 165 250 165 250 160 226.5 c 128,-1,13
 155 203 155 203 155 170 c 2,14,-1
 155 13 l 2,15,16
 155 0 155 0 142 0 c 2,17,-1
 54 0 l 2,18,19
 41 0 41 0 41 13 c 2,20,-1
 41 369 l 2,21,22
 41 382 41 382 54 382 c 2,23,-1
 59 382 l 2,24,25
 96 382 96 382 118.5 369 c 128,-1,26
 141 356 141 356 150 327 c 1,0,1
EndSplineSet
EndChar

StartChar: s
Encoding: 115 115 85
Width: 331
GlyphClass: 1
Flags: W
LayerCount: 2
Fore
SplineSet
37 120 m 0,0,1
 64 101 64 101 90 91 c 128,-1,2
 116 81 116 81 150 81 c 0,3,4
 200 81 200 81 200 112 c 0,5,6
 200 127 200 127 182.5 135.5 c 128,-1,7
 165 144 165 144 139.5 152 c 128,-1,8
 114 160 114 160 88.5 172.5 c 128,-1,9
 63 185 63 185 45.5 207.5 c 128,-1,10
 28 230 28 230 28 268 c 0,11,12
 28 315 28 315 50.5 342 c 128,-1,13
 73 369 73 369 109 381 c 128,-1,14
 145 393 145 393 183 393 c 0,15,16
 226 393 226 393 257 379 c 0,17,18
 286 366 286 366 296.5 347.5 c 128,-1,19
 307 329 307 329 296 294 c 2,20,-1
 293 284 l 2,21,22
 290 276 290 276 284 276 c 0,23,24
 280 276 280 276 277 277.5 c 128,-1,25
 274 279 274 279 270 280 c 0,26,27
 245 292 245 292 223.5 297 c 128,-1,28
 202 302 202 302 180 302 c 0,29,30
 166 302 166 302 154.5 296 c 128,-1,31
 143 290 143 290 143 275 c 256,32,33
 143 260 143 260 160.5 251 c 128,-1,34
 178 242 178 242 203.5 233.5 c 128,-1,35
 229 225 229 225 254.5 212 c 128,-1,36
 280 199 280 199 297.5 178 c 128,-1,37
 315 157 315 157 315 122 c 0,38,39
 315 63 315 63 274 26.5 c 128,-1,40
 233 -10 233 -10 165 -10 c 0,41,42
 101 -10 101 -10 58.5 22.5 c 128,-1,43
 16 55 16 55 16 102 c 0,44,45
 16 123 16 123 29 123 c 0,46,47
 31 123 31 123 33.5 122 c 128,-1,48
 36 121 36 121 37 120 c 0,0,1
EndSplineSet
EndChar

StartChar: t
Encoding: 116 116 86
Width: 318
GlyphClass: 1
Flags: W
LayerCount: 2
Fore
SplineSet
91 280 m 1,0,-1
 25 280 l 2,1,2
 12 280 12 280 12 293 c 2,3,-1
 12 369 l 2,4,5
 12 382 12 382 25 382 c 2,6,-1
 91 382 l 1,7,-1
 91 503 l 2,8,9
 91 516 91 516 103 516 c 2,10,-1
 108 516 l 2,11,12
 156 516 156 516 180.5 494 c 128,-1,13
 205 472 205 472 205 418 c 2,14,-1
 205 382 l 1,15,-1
 287 382 l 2,16,17
 300 382 300 382 300 369 c 2,18,-1
 300 293 l 2,19,20
 300 280 300 280 287 280 c 2,21,-1
 205 280 l 1,22,-1
 205 13 l 2,23,24
 205 0 205 0 192 0 c 2,25,-1
 103 0 l 2,26,27
 91 0 91 0 91 13 c 2,28,-1
 91 280 l 1,0,-1
EndSplineSet
EndChar

StartChar: u
Encoding: 117 117 87
Width: 447
GlyphClass: 1
Flags: W
LayerCount: 2
Fore
SplineSet
223 -10 m 0,0,1
 157 -10 157 -10 116.5 15.5 c 128,-1,2
 76 41 76 41 58 87 c 128,-1,3
 40 133 40 133 40 192 c 2,4,-1
 40 369 l 2,5,6
 40 382 40 382 53 382 c 2,7,-1
 58 382 l 2,8,9
 105 382 105 382 129.5 360 c 128,-1,10
 154 338 154 338 154 284 c 2,11,-1
 154 176 l 2,12,13
 154 130 154 130 175 113 c 128,-1,14
 196 96 196 96 223 96 c 256,15,16
 250 96 250 96 271.5 113 c 128,-1,17
 293 130 293 130 293 175 c 2,18,-1
 293 369 l 2,19,20
 293 382 293 382 306 382 c 2,21,-1
 311 382 l 2,22,23
 359 382 359 382 383.5 360 c 128,-1,24
 408 338 408 338 408 284 c 2,25,-1
 408 185 l 2,26,27
 408 96 408 96 365 43 c 128,-1,28
 322 -10 322 -10 223 -10 c 0,0,1
EndSplineSet
EndChar

StartChar: v
Encoding: 118 118 88
Width: 406
GlyphClass: 1
Flags: W
LayerCount: 2
Fore
SplineSet
205 104 m 1,0,-1
 283 369 l 2,1,2
 286 382 286 382 299 382 c 2,3,-1
 391 382 l 2,4,5
 404 382 404 382 400 369 c 2,6,-1
 277 13 l 2,7,8
 273 0 273 0 260 0 c 2,9,-1
 148 0 l 2,10,11
 134 0 134 0 130 13 c 2,12,-1
 9 369 l 2,13,14
 4 382 4 382 16 382 c 2,15,-1
 35 382 l 2,16,17
 70 382 70 382 91.5 374 c 128,-1,18
 113 366 113 366 127 345 c 128,-1,19
 141 324 141 324 152 284 c 2,20,-1
 205 104 l 1,0,-1
EndSplineSet
EndChar

StartChar: w
Encoding: 119 119 89
Width: 612
GlyphClass: 1
Flags: W
LayerCount: 2
Fore
SplineSet
191 135 m 1,0,-1
 252 369 l 2,1,2
 255 382 255 382 270 382 c 2,3,-1
 282 382 l 2,4,5
 317 382 317 382 339 374 c 128,-1,6
 361 366 361 366 374.5 345 c 128,-1,7
 388 324 388 324 398 284 c 2,8,-1
 434 133 l 1,9,-1
 500 369 l 2,10,11
 504 382 504 382 518 382 c 2,12,-1
 594 382 l 2,13,14
 606 382 606 382 603 369 c 2,15,-1
 499 13 l 2,16,17
 495 0 495 0 482 0 c 2,18,-1
 390 0 l 2,19,20
 377 0 377 0 373 13 c 2,21,-1
 310 236 l 1,22,-1
 249 13 l 2,23,24
 248 0 248 0 234 0 c 2,25,-1
 139 0 l 2,26,27
 126 0 126 0 121 13 c 2,28,-1
 11 369 l 2,29,30
 7 382 7 382 20 382 c 2,31,-1
 37 382 l 2,32,33
 72 382 72 382 93.5 374 c 128,-1,34
 115 366 115 366 128.5 345 c 128,-1,35
 142 324 142 324 152 284 c 2,36,-1
 191 135 l 1,0,-1
EndSplineSet
EndChar

StartChar: x
Encoding: 120 120 90
Width: 406
GlyphClass: 1
Flags: W
LayerCount: 2
Fore
SplineSet
201 132 m 1,0,-1
 130 13 l 2,1,2
 121 0 121 0 109 0 c 2,3,-1
 20 0 l 2,4,5
 15 0 15 0 13 4.5 c 128,-1,6
 11 9 11 9 14 13 c 2,7,-1
 130 200 l 1,8,-1
 26 369 l 2,9,10
 23 374 23 374 24.5 378 c 128,-1,11
 26 382 26 382 32 382 c 2,12,-1
 74 382 l 2,13,14
 103 382 103 382 120 377 c 128,-1,15
 137 372 137 372 151 357 c 128,-1,16
 165 342 165 342 184 310 c 2,17,-1
 204 277 l 1,18,-1
 261 369 l 2,19,20
 270 382 270 382 284 382 c 2,21,-1
 368 382 l 2,22,23
 374 382 374 382 376 378 c 128,-1,24
 378 374 378 374 375 369 c 2,25,-1
 277 207 l 1,26,-1
 396 13 l 2,27,28
 399 9 399 9 396.5 4.5 c 128,-1,29
 394 0 394 0 389 0 c 2,30,-1
 296 0 l 2,31,32
 280 0 280 0 272 13 c 2,33,-1
 201 132 l 1,0,-1
EndSplineSet
EndChar

StartChar: y
Encoding: 121 121 91
Width: 412
GlyphClass: 1
Flags: W
LayerCount: 2
Fore
SplineSet
148 -10 m 1,0,-1
 9 369 l 2,1,2
 7 374 7 374 9.5 378 c 128,-1,3
 12 382 12 382 16 382 c 2,4,-1
 40 382 l 2,5,6
 75 382 75 382 95.5 373.5 c 128,-1,7
 116 365 116 365 130 344 c 128,-1,8
 144 323 144 323 157 284 c 2,9,-1
 211 128 l 1,10,-1
 292 369 l 2,11,12
 296 382 296 382 308 382 c 2,13,-1
 398 382 l 2,14,15
 403 382 403 382 404.5 378 c 128,-1,16
 406 374 406 374 404 369 c 2,17,-1
 276 7 l 2,18,19
 259 -42 259 -42 237.5 -82.5 c 128,-1,20
 216 -123 216 -123 185 -147 c 128,-1,21
 154 -171 154 -171 106 -171 c 0,22,23
 69 -171 69 -171 45 -155.5 c 128,-1,24
 21 -140 21 -140 9.5 -117 c 128,-1,25
 -2 -94 -2 -94 -2 -73 c 0,26,27
 -2 -65 -2 -65 1 -58.5 c 128,-1,28
 4 -52 4 -52 11 -52 c 0,29,30
 16 -52 16 -52 20 -55 c 0,31,32
 49 -74 49 -74 76 -74 c 0,33,34
 104 -74 104 -74 120 -57.5 c 128,-1,35
 136 -41 136 -41 148 -10 c 1,0,-1
EndSplineSet
EndChar

StartChar: z
Encoding: 122 122 92
Width: 361
GlyphClass: 1
Flags: W
LayerCount: 2
Fore
SplineSet
173 101 m 1,0,-1
 324 101 l 2,1,2
 337 101 337 101 337 88 c 2,3,-1
 337 13 l 2,4,5
 337 0 337 0 324 0 c 2,6,-1
 37 0 l 2,7,8
 24 0 24 0 24 13 c 2,9,-1
 24 62 l 2,10,11
 24 74 24 74 27 80.5 c 128,-1,12
 30 87 30 87 37 97 c 2,13,-1
 186 280 l 1,14,-1
 45 280 l 2,15,16
 32 280 32 280 32 293 c 2,17,-1
 32 369 l 2,18,19
 32 382 32 382 45 382 c 2,20,-1
 265 382 l 2,21,22
 303 382 303 382 317 366.5 c 128,-1,23
 331 351 331 351 331 309 c 0,24,25
 331 299 331 299 327 291 c 128,-1,26
 323 283 323 283 318 276 c 2,27,-1
 173 101 l 1,0,-1
EndSplineSet
EndChar

StartChar: braceleft
Encoding: 123 123 93
Width: 352
GlyphClass: 1
Flags: W
LayerCount: 2
Fore
SplineSet
151 275 m 1,0,1
 171 262 171 262 184 237 c 128,-1,2
 197 212 197 212 197 157 c 2,3,-1
 197 -45 l 2,4,5
 197 -51 197 -51 203 -51 c 2,6,-1
 233 -51 l 2,7,8
 302 -51 302 -51 302 -118 c 2,9,-1
 302 -126 l 2,10,11
 302 -144 302 -144 286 -144 c 2,12,-1
 168 -144 l 2,13,14
 99 -144 99 -144 99 -77 c 2,15,-1
 99 149 l 2,16,17
 99 222 99 222 50 232 c 0,18,19
 40 234 40 234 40 243 c 2,20,-1
 40 305 l 2,21,22
 40 315 40 315 50 317 c 0,23,24
 99 327 99 327 99 399 c 2,25,-1
 99 626 l 2,26,27
 99 692 99 692 168 692 c 2,28,-1
 286 692 l 2,29,30
 302 692 302 692 302 675 c 2,31,-1
 302 666 l 2,32,33
 302 600 302 600 233 600 c 2,34,-1
 203 600 l 2,35,36
 197 600 197 600 197 594 c 2,37,-1
 197 393 l 2,38,39
 197 337 197 337 184 312.5 c 128,-1,40
 171 288 171 288 151 275 c 1,0,1
EndSplineSet
EndChar

StartChar: bar
Encoding: 124 124 94
Width: 200
GlyphClass: 1
Flags: W
LayerCount: 2
Fore
SplineSet
50 -136 m 2,0,-1
 50 554 l 2,1,2
 50 566 50 566 63 566 c 0,3,4
 104 566 104 566 127 544.5 c 128,-1,5
 150 523 150 523 150 469 c 2,6,-1
 150 -136 l 2,7,8
 150 -149 150 -149 137 -149 c 2,9,-1
 63 -149 l 2,10,11
 50 -149 50 -149 50 -136 c 2,0,-1
EndSplineSet
EndChar

StartChar: braceright
Encoding: 125 125 95
Width: 353
GlyphClass: 1
Flags: W
LayerCount: 2
Fore
SplineSet
198 275 m 1,0,1
 179 288 179 288 165.5 312.5 c 128,-1,2
 152 337 152 337 152 393 c 2,3,-1
 152 594 l 2,4,5
 152 600 152 600 146 600 c 2,6,-1
 117 600 l 2,7,8
 47 600 47 600 47 666 c 2,9,-1
 47 675 l 2,10,11
 47 692 47 692 63 692 c 2,12,-1
 182 692 l 2,13,14
 251 692 251 692 251 626 c 2,15,-1
 251 399 l 2,16,17
 251 327 251 327 299 317 c 0,18,19
 309 315 309 315 309 305 c 2,20,-1
 309 243 l 2,21,22
 309 234 309 234 299 232 c 0,23,24
 251 222 251 222 251 149 c 2,25,-1
 251 -77 l 2,26,27
 251 -144 251 -144 182 -144 c 2,28,-1
 63 -144 l 2,29,30
 47 -144 47 -144 47 -126 c 2,31,-1
 47 -118 l 2,32,33
 47 -51 47 -51 117 -51 c 2,34,-1
 146 -51 l 2,35,36
 152 -51 152 -51 152 -45 c 2,37,-1
 152 157 l 2,38,39
 152 212 152 212 165.5 237 c 128,-1,40
 179 262 179 262 198 275 c 1,0,1
EndSplineSet
PairPos2: "'kern' Horizontal Kerning lookup 2 per glyph data 1" uni0698 dx=-32 dy=0 dh=-32 dv=0 dx=0 dy=0 dh=0 dv=0
PairPos2: "'kern' Horizontal Kerning lookup 2 per glyph data 1" uni0695 dx=-32 dy=0 dh=-32 dv=0 dx=0 dy=0 dh=0 dv=0
PairPos2: "'kern' Horizontal Kerning lookup 2 per glyph data 1" uni0694 dx=-32 dy=0 dh=-32 dv=0 dx=0 dy=0 dh=0 dv=0
PairPos2: "'kern' Horizontal Kerning lookup 2 per glyph data 1" uni0691 dx=-18 dy=0 dh=-18 dv=0 dx=0 dy=0 dh=0 dv=0
PairPos2: "'kern' Horizontal Kerning lookup 2 per glyph data 1" uni0671 dx=24 dy=0 dh=24 dv=0 dx=0 dy=0 dh=0 dv=0
PairPos2: "'kern' Horizontal Kerning lookup 2 per glyph data 1" uni0632 dx=-32 dy=0 dh=-32 dv=0 dx=0 dy=0 dh=0 dv=0
PairPos2: "'kern' Horizontal Kerning lookup 2 per glyph data 1" uni0631 dx=-32 dy=0 dh=-32 dv=0 dx=0 dy=0 dh=0 dv=0
PairPos2: "'kern' Horizontal Kerning lookup 2 per glyph data 1" uni0627 dx=-32 dy=0 dh=-32 dv=0 dx=0 dy=0 dh=0 dv=0
PairPos2: "'kern' Horizontal Kerning lookup 2 per glyph data 1" uni0625 dx=4 dy=0 dh=4 dv=0 dx=0 dy=0 dh=0 dv=0
PairPos2: "'kern' Horizontal Kerning lookup 2 per glyph data 1" uni0623 dx=9 dy=0 dh=9 dv=0 dx=0 dy=0 dh=0 dv=0
PairPos2: "'kern' Horizontal Kerning lookup 2 per glyph data 1" uni0622 dx=19 dy=0 dh=19 dv=0 dx=0 dy=0 dh=0 dv=0
EndChar

StartChar: asciitilde
Encoding: 126 126 96
Width: 447
GlyphClass: 1
Flags: W
LayerCount: 2
Fore
SplineSet
46 224 m 0,0,1
 44 221 44 221 39.5 221 c 128,-1,2
 35 221 35 221 35 228 c 2,3,-1
 35 298 l 2,4,5
 35 317 35 317 45 327 c 0,6,7
 83 361 83 361 131 361 c 0,8,9
 168 361 168 361 198.5 349.5 c 128,-1,10
 229 338 229 338 257.5 326 c 128,-1,11
 286 314 286 314 316 314 c 0,12,13
 340 314 340 314 361.5 321.5 c 128,-1,14
 383 329 383 329 402 351 c 0,15,16
 405 354 405 354 409 354 c 128,-1,17
 413 354 413 354 413 347 c 2,18,-1
 413 276 l 2,19,20
 413 265 413 265 411.5 259 c 128,-1,21
 410 253 410 253 403 247 c 0,22,23
 366 214 366 214 316 214 c 0,24,25
 278 214 278 214 248 225.5 c 128,-1,26
 218 237 218 237 190 248.5 c 128,-1,27
 162 260 162 260 131 260 c 0,28,29
 108 260 108 260 87 252.5 c 128,-1,30
 66 245 66 245 46 224 c 0,0,1
EndSplineSet
EndChar

StartChar: exclamdown
Encoding: 161 161 97
Width: 200
GlyphClass: 1
Flags: W
LayerCount: 2
Fore
SplineSet
96 252 m 256,0,1
 67 252 67 252 47.5 272 c 128,-1,2
 28 292 28 292 28 323 c 256,3,4
 28 354 28 354 47.5 373.5 c 128,-1,5
 67 393 67 393 96 393 c 256,6,7
 125 393 125 393 145 373.5 c 128,-1,8
 165 354 165 354 165 323 c 256,9,10
 165 292 165 292 145 272 c 128,-1,11
 125 252 125 252 96 252 c 256,0,1
36 -160 m 2,12,-1
 48 207 l 2,13,14
 48 220 48 220 61 220 c 0,15,16
 102 220 102 220 123 196.5 c 128,-1,17
 144 173 144 173 146 119 c 2,18,-1
 156 -160 l 2,19,20
 156 -173 156 -173 143 -173 c 2,21,-1
 49 -173 l 2,22,23
 36 -173 36 -173 36 -160 c 2,12,-1
EndSplineSet
EndChar

StartChar: cent
Encoding: 162 162 98
Width: 369
GlyphClass: 1
Flags: W
LayerCount: 2
Fore
SplineSet
262 -4 m 1,0,-1
 262 -52 l 2,1,2
 262 -65 262 -65 249 -65 c 2,3,-1
 215 -65 l 2,4,5
 202 -65 202 -65 202 -52 c 2,6,-1
 202 -10 l 1,7,8
 126 -6 126 -6 77.5 47.5 c 128,-1,9
 29 101 29 101 29 192 c 0,10,11
 29 280 29 280 77 332.5 c 128,-1,12
 125 385 125 385 202 392 c 1,13,-1
 202 444 l 2,14,15
 202 457 202 457 215 457 c 2,16,-1
 249 457 l 2,17,18
 262 457 262 457 262 444 c 2,19,-1
 262 390 l 1,20,21
 282 387 282 387 299 381 c 0,22,23
 329 371 329 371 338 351 c 128,-1,24
 347 331 347 331 338 296 c 2,25,-1
 333 275 l 2,26,27
 331 265 331 265 324 265 c 0,28,29
 319 265 319 265 313 268 c 0,30,31
 283 283 283 283 262 287 c 1,32,-1
 262 86 l 1,33,34
 284 89 284 89 300.5 97 c 128,-1,35
 317 105 317 105 327 111 c 0,36,37
 336 117 336 117 341 117 c 0,38,39
 352 117 352 117 352 101 c 0,40,41
 352 86 352 86 344 64.5 c 128,-1,42
 336 43 336 43 316.5 24 c 128,-1,43
 297 5 297 5 262 -4 c 1,0,-1
202 92 m 1,44,-1
 202 283 l 1,45,46
 177 275 177 275 160.5 251.5 c 128,-1,47
 144 228 144 228 144 189 c 0,48,49
 144 153 144 153 158.5 128 c 128,-1,50
 173 103 173 103 202 92 c 1,44,-1
EndSplineSet
EndChar

StartChar: sterling
Encoding: 163 163 99
Width: 467
GlyphClass: 1
Flags: W
LayerCount: 2
Fore
SplineSet
247 106 m 1,0,-1
 365 106 l 2,1,2
 435 106 435 106 435 40 c 2,3,-1
 435 17 l 2,4,5
 435 0 435 0 419 0 c 2,6,-1
 50 0 l 2,7,8
 37 0 37 0 37 13 c 2,9,-1
 37 93 l 2,10,11
 37 106 37 106 50 106 c 2,12,-1
 134 106 l 1,13,14
 142 127 142 127 147 150 c 128,-1,15
 152 173 152 173 152 193 c 0,16,17
 152 203 152 203 150.5 212 c 128,-1,18
 149 221 149 221 147 230 c 1,19,-1
 50 230 l 2,20,21
 37 230 37 230 37 242 c 2,22,-1
 37 323 l 2,23,24
 37 336 37 336 50 336 c 2,25,-1
 104 336 l 1,26,27
 97 353 97 353 92 370.5 c 128,-1,28
 87 388 87 388 87 406 c 0,29,30
 87 489 87 489 141 527.5 c 128,-1,31
 195 566 195 566 277 566 c 0,32,33
 313 566 313 566 334 562 c 128,-1,34
 355 558 355 558 384 547 c 0,35,36
 420 533 420 533 429 513 c 128,-1,37
 438 493 438 493 428 461 c 2,38,-1
 420 436 l 2,39,40
 417 427 417 427 410 427 c 0,41,42
 405 427 405 427 395 432 c 0,43,44
 365 448 365 448 339 455.5 c 128,-1,45
 313 463 313 463 278 463 c 0,46,47
 244 463 244 463 225 446 c 128,-1,48
 206 429 206 429 206 400 c 0,49,50
 206 387 206 387 211 370.5 c 128,-1,51
 216 354 216 354 223 336 c 1,52,-1
 316 336 l 2,53,54
 386 336 386 336 386 269 c 2,55,-1
 386 246 l 2,56,57
 386 230 386 230 370 230 c 2,58,-1
 261 230 l 1,59,60
 263 221 263 221 264 211.5 c 128,-1,61
 265 202 265 202 265 193 c 0,62,63
 265 171 265 171 260 148 c 128,-1,64
 255 125 255 125 247 106 c 1,0,-1
EndSplineSet
EndChar

StartChar: yen
Encoding: 165 165 100
Width: 509
GlyphClass: 1
Flags: W
LayerCount: 2
Fore
SplineSet
196 120 m 1,0,-1
 64 120 l 2,1,2
 51 120 51 120 51 133 c 2,3,-1
 51 189 l 2,4,5
 51 202 51 202 64 202 c 2,6,-1
 196 202 l 1,7,-1
 196 203 l 1,8,-1
 170 251 l 1,9,-1
 64 251 l 2,10,11
 51 251 51 251 51 264 c 2,12,-1
 51 320 l 2,13,14
 51 333 51 333 64 333 c 2,15,-1
 127 333 l 1,16,-1
 16 543 l 2,17,18
 14 548 14 548 15.5 552 c 128,-1,19
 17 556 17 556 24 556 c 2,20,-1
 73 556 l 2,21,22
 108 556 108 556 131.5 542.5 c 128,-1,23
 155 529 155 529 172 495 c 2,24,-1
 259 322 l 1,25,-1
 371 543 l 2,26,27
 377 556 377 556 391 556 c 2,28,-1
 487 556 l 2,29,30
 494 556 494 556 495.5 552 c 128,-1,31
 497 548 497 548 495 543 c 2,32,-1
 384 333 l 1,33,-1
 445 333 l 2,34,35
 458 333 458 333 458 320 c 2,36,-1
 458 264 l 2,37,38
 458 251 458 251 445 251 c 2,39,-1
 341 251 l 1,40,-1
 314 202 l 1,41,-1
 445 202 l 2,42,43
 458 202 458 202 458 189 c 2,44,-1
 458 133 l 2,45,46
 458 120 458 120 445 120 c 2,47,-1
 313 120 l 1,48,-1
 313 13 l 2,49,50
 313 0 313 0 300 0 c 2,51,-1
 209 0 l 2,52,53
 196 0 196 0 196 13 c 2,54,-1
 196 120 l 1,0,-1
EndSplineSet
EndChar

StartChar: brokenbar
Encoding: 166 166 101
Width: 200
GlyphClass: 1
Flags: W
LayerCount: 2
Fore
SplineSet
50 264 m 2,0,-1
 50 554 l 2,1,2
 50 566 50 566 63 566 c 0,3,4
 104 566 104 566 127 544.5 c 128,-1,5
 150 523 150 523 150 469 c 2,6,-1
 150 264 l 2,7,8
 150 251 150 251 137 251 c 2,9,-1
 63 251 l 2,10,11
 50 251 50 251 50 264 c 2,0,-1
50 -136 m 2,12,-1
 50 153 l 2,13,14
 50 166 50 166 63 166 c 2,15,-1
 137 166 l 2,16,17
 150 166 150 166 150 153 c 2,18,-1
 150 -136 l 2,19,20
 150 -149 150 -149 137 -149 c 2,21,-1
 63 -149 l 2,22,23
 50 -149 50 -149 50 -136 c 2,12,-1
EndSplineSet
EndChar

StartChar: section
Encoding: 167 167 102
Width: 447
GlyphClass: 1
Flags: W
LayerCount: 2
Fore
SplineSet
344 122 m 1,0,1
 362 106 362 106 373 86 c 128,-1,2
 384 66 384 66 384 40 c 0,3,4
 384 -18 384 -18 342.5 -58.5 c 128,-1,5
 301 -99 301 -99 214 -99 c 0,6,7
 179 -99 179 -99 146 -90 c 128,-1,8
 113 -81 113 -81 87 -63 c 0,9,10
 61 -43 61 -43 54 -21.5 c 128,-1,11
 47 0 47 0 57 29 c 2,12,-1
 62 43 l 2,13,14
 64 48 64 48 68 48.5 c 128,-1,15
 72 49 72 49 76 45 c 0,16,17
 93 27 93 27 126 5.5 c 128,-1,18
 159 -16 159 -16 202 -16 c 0,19,20
 237 -16 237 -16 251 -2.5 c 128,-1,21
 265 11 265 11 265 27 c 0,22,23
 265 49 265 49 243 65.5 c 128,-1,24
 221 82 221 82 188 97 c 128,-1,25
 155 112 155 112 122 131 c 128,-1,26
 89 150 89 150 67 177.5 c 128,-1,27
 45 205 45 205 45 245 c 0,28,29
 45 283 45 283 64.5 309 c 128,-1,30
 84 335 84 335 109 353 c 1,31,32
 94 370 94 370 84.5 391 c 128,-1,33
 75 412 75 412 75 441 c 0,34,35
 75 481 75 481 96 508.5 c 128,-1,36
 117 536 117 536 153 551 c 128,-1,37
 189 566 189 566 232 566 c 0,38,39
 267 566 267 566 289.5 561 c 128,-1,40
 312 556 312 556 327 548 c 0,41,42
 356 534 356 534 362 512.5 c 128,-1,43
 368 491 368 491 358 462 c 2,44,-1
 356 456 l 2,45,46
 353 448 353 448 347 448 c 0,47,48
 343 448 343 448 340.5 450.5 c 128,-1,49
 338 453 338 453 334 455 c 0,50,51
 312 471 312 471 290.5 477.5 c 128,-1,52
 269 484 269 484 247 484 c 0,53,54
 221 484 221 484 207.5 472.5 c 128,-1,55
 194 461 194 461 194 444 c 0,56,57
 194 422 194 422 215.5 407 c 128,-1,58
 237 392 237 392 269 378 c 128,-1,59
 301 364 301 364 332.5 346.5 c 128,-1,60
 364 329 364 329 385.5 303.5 c 128,-1,61
 407 278 407 278 407 240 c 0,62,63
 407 197 407 197 387.5 168.5 c 128,-1,64
 368 140 368 140 344 122 c 1,0,1
268 169 m 1,65,66
 279 180 279 180 286 193 c 128,-1,67
 293 206 293 206 293 225 c 256,68,69
 293 244 293 244 276 256.5 c 128,-1,70
 259 269 259 269 233 280.5 c 128,-1,71
 207 292 207 292 178 306 c 1,72,73
 168 296 168 296 161.5 284.5 c 128,-1,74
 155 273 155 273 155 259 c 0,75,76
 155 239 155 239 171.5 224 c 128,-1,77
 188 209 188 209 214 196 c 128,-1,78
 240 183 240 183 268 169 c 1,65,66
EndSplineSet
EndChar

StartChar: dieresis
Encoding: 168 168 103
Width: 301
GlyphClass: 1
Flags: W
LayerCount: 2
Fore
SplineSet
0 481 m 256,0,1
 0 509 0 509 18.5 527.5 c 128,-1,2
 37 546 37 546 64 546 c 0,3,4
 90 546 90 546 107.5 527.5 c 128,-1,5
 125 509 125 509 125 481 c 256,6,7
 125 453 125 453 107.5 435 c 128,-1,8
 90 417 90 417 64 417 c 0,9,10
 37 417 37 417 18.5 435 c 128,-1,11
 0 453 0 453 0 481 c 256,0,1
176 481 m 256,12,13
 176 509 176 509 194.5 527.5 c 128,-1,14
 213 546 213 546 240 546 c 0,15,16
 266 546 266 546 283.5 527.5 c 128,-1,17
 301 509 301 509 301 481 c 256,18,19
 301 453 301 453 283.5 435 c 128,-1,20
 266 417 266 417 240 417 c 0,21,22
 213 417 213 417 194.5 435 c 128,-1,23
 176 453 176 453 176 481 c 256,12,13
EndSplineSet
EndChar

StartChar: copyright
Encoding: 169 169 104
Width: 494
GlyphClass: 1
Flags: W
LayerCount: 2
Fore
SplineSet
24 340 m 256,0,1
 24 407 24 407 51.5 457 c 128,-1,2
 79 507 79 507 129.5 535 c 128,-1,3
 180 563 180 563 247 563 c 256,4,5
 314 563 314 563 364 535 c 128,-1,6
 414 507 414 507 442 457 c 128,-1,7
 470 407 470 407 470 340 c 256,8,9
 470 273 470 273 442 223 c 128,-1,10
 414 173 414 173 364 145 c 128,-1,11
 314 117 314 117 247 117 c 256,12,13
 180 117 180 117 129.5 145 c 128,-1,14
 79 173 79 173 51.5 223 c 128,-1,15
 24 273 24 273 24 340 c 256,0,1
247 170 m 0,16,17
 324 170 324 170 370 217 c 128,-1,18
 416 264 416 264 416 340 c 256,19,20
 416 416 416 416 370 463 c 128,-1,21
 324 510 324 510 247 510 c 0,22,23
 171 510 171 510 125 463 c 128,-1,24
 79 416 79 416 79 340 c 256,25,26
 79 264 79 264 125 217 c 128,-1,27
 171 170 171 170 247 170 c 0,16,17
321 298 m 0,28,29
 325 302 325 302 329 302 c 0,30,31
 336 302 336 302 336 291 c 256,32,33
 336 280 336 280 328 264 c 128,-1,34
 320 248 320 248 301.5 235.5 c 128,-1,35
 283 223 283 223 249 223 c 0,36,37
 199 223 199 223 169 255.5 c 128,-1,38
 139 288 139 288 139 340 c 0,39,40
 139 396 139 396 175 428.5 c 128,-1,41
 211 461 211 461 259 461 c 0,42,43
 275 461 275 461 287 458.5 c 128,-1,44
 299 456 299 456 311 451 c 0,45,46
 325 445 325 445 327.5 437 c 128,-1,47
 330 429 330 429 328 415 c 2,48,-1
 325 400 l 2,49,50
 323 390 323 390 312 396 c 0,51,52
 299 402 299 402 288.5 405.5 c 128,-1,53
 278 409 278 409 261 409 c 0,54,55
 233 409 233 409 215.5 391 c 128,-1,56
 198 373 198 373 198 340 c 0,57,58
 198 309 198 309 216 291.5 c 128,-1,59
 234 274 234 274 263 274 c 0,60,61
 283 274 283 274 298.5 283 c 128,-1,62
 314 292 314 292 321 298 c 0,28,29
EndSplineSet
EndChar

StartChar: ordfeminine
Encoding: 170 170 105
Width: 370
GlyphClass: 1
Flags: W
LayerCount: 2
Fore
SplineSet
254 288 m 1,0,1
 238 269 238 269 213.5 258 c 128,-1,2
 189 247 189 247 159 247 c 0,3,4
 112 247 112 247 79.5 269 c 128,-1,5
 47 291 47 291 31 327.5 c 128,-1,6
 15 364 15 364 15 407 c 0,7,8
 15 474 15 474 54.5 519.5 c 128,-1,9
 94 565 94 565 161 565 c 0,10,11
 200 565 200 565 225 553 c 128,-1,12
 250 541 250 541 263 526 c 1,13,14
 273 543 273 543 291 549.5 c 128,-1,15
 309 556 309 556 335 556 c 2,16,-1
 340 556 l 2,17,18
 350 556 350 556 350 546 c 2,19,-1
 350 264 l 2,20,21
 350 254 350 254 341 254 c 2,22,-1
 262 254 l 2,23,24
 254 254 254 254 254 264 c 2,25,-1
 254 288 l 1,0,1
185 332 m 256,26,27
 196 332 196 332 212.5 337 c 128,-1,28
 229 342 229 342 241.5 358 c 128,-1,29
 254 374 254 374 254 406 c 0,30,31
 254 439 254 439 241.5 454 c 128,-1,32
 229 469 229 469 213 473.5 c 128,-1,33
 197 478 197 478 185 478 c 0,34,35
 175 478 175 478 158 474 c 128,-1,36
 141 470 141 470 127.5 454.5 c 128,-1,37
 114 439 114 439 114 406 c 0,38,39
 114 374 114 374 127 358 c 128,-1,40
 140 342 140 342 157 337 c 128,-1,41
 174 332 174 332 185 332 c 256,26,27
EndSplineSet
EndChar

StartChar: guillemotleft
Encoding: 171 171 106
Width: 436
GlyphClass: 1
Flags: W
LayerCount: 2
Fore
SplineSet
125 196 m 1,0,-1
 236 50 l 2,1,2
 239 46 239 46 237 41.5 c 128,-1,3
 235 37 235 37 230 37 c 2,4,-1
 157 37 l 2,5,6
 138 37 138 37 129 50 c 2,7,-1
 28 182 l 2,8,9
 21 191 21 191 21 196 c 256,10,11
 21 201 21 201 28 210 c 2,12,-1
 129 342 l 2,13,14
 138 355 138 355 157 355 c 2,15,-1
 230 355 l 2,16,17
 235 355 235 355 237 351 c 128,-1,18
 239 347 239 347 236 342 c 2,19,-1
 125 196 l 1,0,-1
304 196 m 1,20,-1
 415 50 l 2,21,22
 418 46 418 46 416 41.5 c 128,-1,23
 414 37 414 37 409 37 c 2,24,-1
 336 37 l 2,25,26
 317 37 317 37 308 50 c 2,27,-1
 207 182 l 2,28,29
 200 191 200 191 200 196 c 256,30,31
 200 201 200 201 207 210 c 2,32,-1
 308 342 l 2,33,34
 317 355 317 355 336 355 c 2,35,-1
 409 355 l 2,36,37
 414 355 414 355 416 351 c 128,-1,38
 418 347 418 347 415 342 c 2,39,-1
 304 196 l 1,20,-1
EndSplineSet
EndChar

StartChar: uni00AD
Encoding: 173 173 107
Width: 294
GlyphClass: 1
Flags: W
LayerCount: 2
Fore
SplineSet
43 149 m 2,0,1
 30 149 30 149 30 162 c 2,2,-1
 30 244 l 2,3,4
 30 257 30 257 43 257 c 2,5,-1
 252 257 l 2,6,7
 265 257 265 257 265 244 c 2,8,-1
 265 162 l 2,9,10
 265 149 265 149 252 149 c 2,11,-1
 43 149 l 2,0,1
EndSplineSet
EndChar

StartChar: registered
Encoding: 174 174 108
Width: 494
GlyphClass: 1
Flags: W
LayerCount: 2
Fore
SplineSet
24 340 m 256,0,1
 24 407 24 407 51.5 457 c 128,-1,2
 79 507 79 507 129.5 535 c 128,-1,3
 180 563 180 563 247 563 c 256,4,5
 314 563 314 563 364 535 c 128,-1,6
 414 507 414 507 442 457 c 128,-1,7
 470 407 470 407 470 340 c 256,8,9
 470 273 470 273 442 223 c 128,-1,10
 414 173 414 173 364 145 c 128,-1,11
 314 117 314 117 247 117 c 256,12,13
 180 117 180 117 129.5 145 c 128,-1,14
 79 173 79 173 51.5 223 c 128,-1,15
 24 273 24 273 24 340 c 256,0,1
247 170 m 0,16,17
 324 170 324 170 370 217 c 128,-1,18
 416 264 416 264 416 340 c 256,19,20
 416 416 416 416 370 463 c 128,-1,21
 324 510 324 510 247 510 c 0,22,23
 171 510 171 510 125 463 c 128,-1,24
 79 416 79 416 79 340 c 256,25,26
 79 264 79 264 125 217 c 128,-1,27
 171 170 171 170 247 170 c 0,16,17
215 303 m 1,28,-1
 215 236 l 2,29,30
 215 228 215 228 208 228 c 2,31,-1
 169 228 l 2,32,33
 162 228 162 228 162 236 c 2,34,-1
 162 448 l 2,35,36
 162 456 162 456 169 456 c 2,37,-1
 255 456 l 2,38,39
 306 456 306 456 328.5 435 c 128,-1,40
 351 414 351 414 351 381 c 0,41,42
 351 356 351 356 338 337 c 128,-1,43
 325 318 325 318 301 309 c 1,44,-1
 350 236 l 2,45,46
 352 233 352 233 351 230.5 c 128,-1,47
 350 228 350 228 347 228 c 2,48,-1
 303 228 l 2,49,50
 293 228 293 228 289 236 c 2,51,-1
 250 303 l 1,52,-1
 215 303 l 1,28,-1
215 348 m 1,53,-1
 260 348 l 2,54,55
 273 348 273 348 285.5 354 c 128,-1,56
 298 360 298 360 298 381 c 0,57,58
 298 396 298 396 287.5 403.5 c 128,-1,59
 277 411 277 411 260 411 c 2,60,-1
 215 411 l 1,61,-1
 215 348 l 1,53,-1
EndSplineSet
EndChar

StartChar: macron
Encoding: 175 175 109
Width: 276
GlyphClass: 1
Flags: W
LayerCount: 2
Fore
SplineSet
13 430 m 2,0,1
 0 430 0 430 0 443 c 2,2,-1
 0 500 l 2,3,4
 0 513 0 513 13 513 c 2,5,-1
 263 513 l 2,6,7
 276 513 276 513 276 500 c 2,8,-1
 276 443 l 2,9,10
 276 430 276 430 263 430 c 2,11,-1
 13 430 l 2,0,1
EndSplineSet
EndChar

StartChar: degree
Encoding: 176 176 110
Width: 250
GlyphClass: 1
Flags: W
LayerCount: 2
Fore
SplineSet
125 369 m 0,0,1
 78 369 78 369 48.5 399 c 128,-1,2
 19 429 19 429 19 475 c 0,3,4
 19 522 19 522 48.5 551.5 c 128,-1,5
 78 581 78 581 125 581 c 0,6,7
 173 581 173 581 202.5 551.5 c 128,-1,8
 232 522 232 522 232 475 c 0,9,10
 232 429 232 429 202.5 399 c 128,-1,11
 173 369 173 369 125 369 c 0,0,1
125 428 m 0,12,13
 145 428 145 428 156 442 c 128,-1,14
 167 456 167 456 167 475 c 256,15,16
 167 494 167 494 156 507.5 c 128,-1,17
 145 521 145 521 125 521 c 0,18,19
 106 521 106 521 95 507.5 c 128,-1,20
 84 494 84 494 84 475 c 256,21,22
 84 456 84 456 95 442 c 128,-1,23
 106 428 106 428 125 428 c 0,12,13
EndSplineSet
EndChar

StartChar: plusminus
Encoding: 177 177 111
Width: 431
GlyphClass: 1
Flags: W
LayerCount: 2
Fore
SplineSet
165 299 m 1,0,-1
 43 299 l 2,1,2
 30 299 30 299 30 312 c 2,3,-1
 30 382 l 2,4,5
 30 395 30 395 43 395 c 2,6,-1
 165 395 l 1,7,-1
 165 526 l 2,8,9
 165 539 165 539 178 539 c 0,10,11
 227 539 227 539 247 520 c 128,-1,12
 267 501 267 501 267 455 c 2,13,-1
 267 395 l 1,14,-1
 389 395 l 2,15,16
 402 395 402 395 402 382 c 2,17,-1
 402 312 l 2,18,19
 402 299 402 299 389 299 c 2,20,-1
 267 299 l 1,21,-1
 267 168 l 2,22,23
 267 155 267 155 254 155 c 2,24,-1
 178 155 l 2,25,26
 165 155 165 155 165 168 c 2,27,-1
 165 299 l 1,0,-1
30 13 m 2,28,-1
 30 82 l 2,29,30
 30 95 30 95 43 95 c 2,31,-1
 332 95 l 2,32,33
 402 95 402 95 402 29 c 2,34,-1
 402 13 l 2,35,36
 402 0 402 0 389 0 c 2,37,-1
 43 0 l 2,38,39
 30 0 30 0 30 13 c 2,28,-1
EndSplineSet
EndChar

StartChar: twosuperior
Encoding: 178 178 112
Width: 316
GlyphClass: 1
Flags: W
LayerCount: 2
Fore
SplineSet
140 297 m 1,0,-1
 248 297 l 2,1,2
 291 297 291 297 291 258 c 2,3,-1
 291 233 l 2,4,5
 291 223 291 223 281 223 c 2,6,-1
 34 223 l 2,7,8
 25 223 25 223 25 233 c 0,9,10
 25 282 25 282 41.5 312 c 128,-1,11
 58 342 58 342 82.5 360.5 c 128,-1,12
 107 379 107 379 132 392 c 128,-1,13
 157 405 157 405 173.5 419.5 c 128,-1,14
 190 434 190 434 190 456 c 0,15,16
 190 491 190 491 145 491 c 0,17,18
 120 491 120 491 103 484 c 128,-1,19
 86 477 86 477 66 467 c 0,20,21
 53 460 53 460 48 471 c 2,22,-1
 37 498 l 2,23,24
 30 517 30 517 36.5 528.5 c 128,-1,25
 43 540 43 540 65 550 c 0,26,27
 102 566 102 566 151 566 c 0,28,29
 186 566 186 566 216 555.5 c 128,-1,30
 246 545 246 545 265 524 c 128,-1,31
 284 503 284 503 284 470 c 0,32,33
 284 428 284 428 264 401.5 c 128,-1,34
 244 375 244 375 217.5 357.5 c 128,-1,35
 191 340 191 340 168.5 326.5 c 128,-1,36
 146 313 146 313 140 297 c 1,0,-1
EndSplineSet
EndChar

StartChar: threesuperior
Encoding: 179 179 113
Width: 311
GlyphClass: 1
Flags: W
LayerCount: 2
Fore
SplineSet
224 400 m 1,0,1
 285 378 285 378 285 318 c 0,2,3
 285 271 285 271 251.5 243.5 c 128,-1,4
 218 216 218 216 155 216 c 0,5,6
 109 216 109 216 80.5 232.5 c 128,-1,7
 52 249 52 249 39 272 c 128,-1,8
 26 295 26 295 26 314 c 0,9,10
 26 329 26 329 37 329 c 0,11,12
 42 329 42 329 48 324 c 0,13,14
 64 311 64 311 86 300 c 128,-1,15
 108 289 108 289 142 289 c 0,16,17
 202 289 202 289 202 327 c 0,18,19
 202 345 202 345 188.5 350.5 c 128,-1,20
 175 356 175 356 152 356 c 2,21,-1
 121 356 l 2,22,23
 100 356 100 356 90.5 363.5 c 128,-1,24
 81 371 81 371 81 390 c 2,25,-1
 81 418 l 2,26,27
 81 430 81 430 91 430 c 2,28,-1
 141 430 l 2,29,30
 167 430 167 430 178.5 439.5 c 128,-1,31
 190 449 190 449 190 465 c 0,32,33
 190 493 190 493 143 493 c 0,34,35
 118 493 118 493 100.5 486.5 c 128,-1,36
 83 480 83 480 66 472 c 0,37,38
 52 464 52 464 47 475 c 2,39,-1
 37 499 l 2,40,41
 22 536 22 536 65 552 c 0,42,43
 101 566 101 566 148 566 c 0,44,45
 204 566 204 566 238.5 545.5 c 128,-1,46
 273 525 273 525 273 478 c 0,47,48
 273 447 273 447 259.5 429.5 c 128,-1,49
 246 412 246 412 224 400 c 1,0,1
EndSplineSet
EndChar

StartChar: acute
Encoding: 180 180 114
Width: 225
GlyphClass: 1
Flags: W
LayerCount: 2
Fore
SplineSet
11 430 m 2,0,1
 4 430 4 430 2.5 435.5 c 128,-1,2
 1 441 1 441 5 445 c 2,3,-1
 96 528 l 2,4,5
 109 540 109 540 126 540 c 2,6,-1
 218 540 l 2,7,8
 225 540 225 540 226.5 534.5 c 128,-1,9
 228 529 228 529 223 524 c 2,10,-1
 125 442 l 2,11,12
 112 430 112 430 89 430 c 2,13,-1
 11 430 l 2,0,1
EndSplineSet
EndChar

StartChar: paragraph
Encoding: 182 182 115
Width: 437
GlyphClass: 1
Flags: W
LayerCount: 2
Fore
SplineSet
210 221 m 1,0,-1
 206 221 l 2,1,2
 124 221 124 221 76.5 269 c 128,-1,3
 29 317 29 317 29 391 c 0,4,5
 29 464 29 464 74 510 c 128,-1,6
 119 556 119 556 220 556 c 2,7,-1
 290 556 l 2,8,9
 338 556 338 556 362.5 534 c 128,-1,10
 387 512 387 512 387 458 c 2,11,-1
 387 12 l 2,12,13
 387 0 387 0 375 0 c 2,14,-1
 334 0 l 2,15,16
 322 0 322 0 322 12 c 2,17,-1
 322 485 l 1,18,-1
 274 485 l 1,19,-1
 274 12 l 2,20,21
 274 0 274 0 263 0 c 2,22,-1
 222 0 l 2,23,24
 210 0 210 0 210 12 c 2,25,-1
 210 221 l 1,0,-1
EndSplineSet
EndChar

StartChar: periodcentered
Encoding: 183 183 116
Width: 177
GlyphClass: 1
Flags: W
LayerCount: 2
Fore
SplineSet
20 279 m 0,0,1
 20 310 20 310 40.5 330 c 128,-1,2
 61 350 61 350 90 350 c 256,3,4
 119 350 119 350 138 330 c 128,-1,5
 157 310 157 310 157 279 c 0,6,7
 157 249 157 249 138 229.5 c 128,-1,8
 119 210 119 210 90 210 c 256,9,10
 61 210 61 210 40.5 229.5 c 128,-1,11
 20 249 20 249 20 279 c 0,0,1
EndSplineSet
EndChar

StartChar: cedilla
Encoding: 184 184 117
Width: 160
GlyphClass: 1
Flags: W
LayerCount: 2
Fore
SplineSet
10 -119 m 2,0,1
 3 -119 3 -119 2 -114 c 128,-1,2
 1 -109 1 -109 4 -104 c 2,3,-1
 67 -7 l 2,4,5
 72 1 72 1 79 3 c 128,-1,6
 86 5 86 5 96 5 c 2,7,-1
 153 5 l 2,8,9
 165 5 165 5 160 -7 c 2,10,-1
 114 -102 l 2,11,12
 110 -112 110 -112 102 -115.5 c 128,-1,13
 94 -119 94 -119 83 -119 c 2,14,-1
 10 -119 l 2,0,1
EndSplineSet
EndChar

StartChar: onesuperior
Encoding: 185 185 118
Width: 237
GlyphClass: 1
Flags: W
LayerCount: 2
Fore
SplineSet
100 467 m 1,0,-1
 48 449 l 2,1,2
 35 445 35 445 35 457 c 2,3,-1
 35 520 l 2,4,5
 35 535 35 535 50 540 c 2,6,-1
 80 550 l 2,7,8
 86 552 86 552 95.5 554 c 128,-1,9
 105 556 105 556 113 556 c 2,10,-1
 148 556 l 2,11,12
 192 556 192 556 192 516 c 2,13,-1
 192 234 l 2,14,15
 192 223 192 223 181 223 c 2,16,-1
 111 223 l 2,17,18
 100 223 100 223 100 234 c 2,19,-1
 100 467 l 1,0,-1
EndSplineSet
EndChar

StartChar: ordmasculine
Encoding: 186 186 119
Width: 364
GlyphClass: 1
Flags: W
LayerCount: 2
Fore
SplineSet
15 406 m 0,0,1
 15 479 15 479 60 522 c 128,-1,2
 105 565 105 565 181 565 c 0,3,4
 258 565 258 565 303.5 522 c 128,-1,5
 349 479 349 479 349 406 c 0,6,7
 349 335 349 335 304.5 291 c 128,-1,8
 260 247 260 247 183 247 c 0,9,10
 107 247 107 247 61 291 c 128,-1,11
 15 335 15 335 15 406 c 0,0,1
181 333 m 0,12,13
 207 333 207 333 228.5 348.5 c 128,-1,14
 250 364 250 364 250 405 c 256,15,16
 250 446 250 446 229 463 c 128,-1,17
 208 480 208 480 182 480 c 256,18,19
 156 480 156 480 135 463 c 128,-1,20
 114 446 114 446 114 405 c 256,21,22
 114 364 114 364 135 348.5 c 128,-1,23
 156 333 156 333 181 333 c 0,12,13
EndSplineSet
EndChar

StartChar: guillemotright
Encoding: 187 187 120
Width: 436
GlyphClass: 1
Flags: W
LayerCount: 2
Fore
SplineSet
313 196 m 1,0,-1
 203 342 l 2,1,2
 200 347 200 347 202 351 c 128,-1,3
 204 355 204 355 209 355 c 2,4,-1
 281 355 l 2,5,6
 300 355 300 355 309 342 c 2,7,-1
 411 210 l 2,8,9
 418 201 418 201 418 196 c 256,10,11
 418 191 418 191 411 182 c 2,12,-1
 309 50 l 2,13,14
 300 37 300 37 281 37 c 2,15,-1
 209 37 l 2,16,17
 204 37 204 37 202 41.5 c 128,-1,18
 200 46 200 46 203 50 c 2,19,-1
 313 196 l 1,0,-1
134 196 m 1,20,-1
 24 342 l 2,21,22
 21 347 21 347 23 351 c 128,-1,23
 25 355 25 355 30 355 c 2,24,-1
 102 355 l 2,25,26
 121 355 121 355 130 342 c 2,27,-1
 232 210 l 2,28,29
 239 201 239 201 239 196 c 256,30,31
 239 191 239 191 232 182 c 2,32,-1
 130 50 l 2,33,34
 121 37 121 37 102 37 c 2,35,-1
 30 37 l 2,36,37
 25 37 25 37 23 41.5 c 128,-1,38
 21 46 21 46 24 50 c 2,39,-1
 134 196 l 1,20,-1
EndSplineSet
EndChar

StartChar: onequarter
Encoding: 188 188 121
Width: 746
GlyphClass: 1
Flags: W
LayerCount: 2
Fore
SplineSet
100 467 m 1,0,-1
 48 449 l 2,1,2
 35 445 35 445 35 457 c 2,3,-1
 35 520 l 2,4,5
 35 535 35 535 50 540 c 2,6,-1
 80 550 l 2,7,8
 86 552 86 552 95.5 554 c 128,-1,9
 105 556 105 556 113 556 c 2,10,-1
 148 556 l 2,11,12
 192 556 192 556 192 516 c 2,13,-1
 192 234 l 2,14,15
 192 223 192 223 181 223 c 2,16,-1
 111 223 l 2,17,18
 100 223 100 223 100 234 c 2,19,-1
 100 467 l 1,0,-1
150 0 m 2,20,21
 143 0 143 0 141.5 4.5 c 128,-1,22
 140 9 140 9 142 13 c 2,23,-1
 433 543 l 2,24,25
 439 556 439 556 453 556 c 2,26,-1
 468 556 l 2,27,28
 501 556 501 556 512 535 c 128,-1,29
 523 514 523 514 506 483 c 2,30,-1
 250 13 l 2,31,32
 243 0 243 0 230 0 c 2,33,-1
 150 0 l 2,20,21
566 66 m 1,34,-1
 409 66 l 2,35,36
 398 66 398 66 398 77 c 2,37,-1
 398 118 l 2,38,39
 398 127 398 127 404 137 c 2,40,-1
 528 318 l 2,41,42
 533 324 533 324 538.5 328.5 c 128,-1,43
 544 333 544 333 556 333 c 2,44,-1
 610 333 l 2,45,46
 654 333 654 333 654 293 c 2,47,-1
 654 136 l 1,48,-1
 670 136 l 2,49,50
 714 136 714 136 714 96 c 2,51,-1
 714 76 l 2,52,53
 714 66 714 66 704 66 c 2,54,-1
 654 66 l 1,55,-1
 654 11 l 2,56,57
 654 0 654 0 643 0 c 2,58,-1
 577 0 l 2,59,60
 566 0 566 0 566 11 c 2,61,-1
 566 66 l 1,34,-1
484 136 m 1,62,-1
 566 136 l 1,63,-1
 566 255 l 1,64,-1
 484 136 l 1,62,-1
EndSplineSet
Ligature2: "'frac' Diagonal Fractions lookup 4 subtable" one fraction four
Ligature2: "'frac' Diagonal Fractions lookup 4 subtable" one slash four
EndChar

StartChar: onehalf
Encoding: 189 189 122
Width: 778
GlyphClass: 1
Flags: W
LayerCount: 2
Fore
SplineSet
100 467 m 1,0,-1
 48 449 l 2,1,2
 35 445 35 445 35 457 c 2,3,-1
 35 520 l 2,4,5
 35 535 35 535 50 540 c 2,6,-1
 80 550 l 2,7,8
 86 552 86 552 95.5 554 c 128,-1,9
 105 556 105 556 113 556 c 2,10,-1
 148 556 l 2,11,12
 192 556 192 556 192 516 c 2,13,-1
 192 234 l 2,14,15
 192 223 192 223 181 223 c 2,16,-1
 111 223 l 2,17,18
 100 223 100 223 100 234 c 2,19,-1
 100 467 l 1,0,-1
150 0 m 2,20,21
 143 0 143 0 141.5 4.5 c 128,-1,22
 140 9 140 9 142 13 c 2,23,-1
 433 543 l 2,24,25
 439 556 439 556 453 556 c 2,26,-1
 468 556 l 2,27,28
 501 556 501 556 512 535 c 128,-1,29
 523 514 523 514 506 483 c 2,30,-1
 250 13 l 2,31,32
 243 0 243 0 230 0 c 2,33,-1
 150 0 l 2,20,21
576 75 m 1,34,-1
 683 75 l 2,35,36
 727 75 727 75 727 36 c 2,37,-1
 727 10 l 2,38,39
 727 0 727 0 717 0 c 2,40,-1
 469 0 l 2,41,42
 460 0 460 0 460 10 c 0,43,44
 460 59 460 59 476.5 89 c 128,-1,45
 493 119 493 119 517.5 137.5 c 128,-1,46
 542 156 542 156 567 169.5 c 128,-1,47
 592 183 592 183 608.5 197.5 c 128,-1,48
 625 212 625 212 625 234 c 0,49,50
 625 268 625 268 581 268 c 0,51,52
 556 268 556 268 538.5 261.5 c 128,-1,53
 521 255 521 255 501 244 c 0,54,55
 487 238 487 238 483 248 c 2,56,-1
 472 275 l 2,57,58
 465 294 465 294 471.5 305.5 c 128,-1,59
 478 317 478 317 500 327 c 0,60,61
 517 335 517 335 540 339.5 c 128,-1,62
 563 344 563 344 587 344 c 0,63,64
 621 344 621 344 651.5 333.5 c 128,-1,65
 682 323 682 323 701 301.5 c 128,-1,66
 720 280 720 280 720 247 c 0,67,68
 720 205 720 205 700 178.5 c 128,-1,69
 680 152 680 152 653.5 134.5 c 128,-1,70
 627 117 627 117 604.5 103.5 c 128,-1,71
 582 90 582 90 576 75 c 1,34,-1
EndSplineSet
Ligature2: "'frac' Diagonal Fractions lookup 4 subtable" one fraction two
Ligature2: "'frac' Diagonal Fractions lookup 4 subtable" one slash two
EndChar

StartChar: threequarters
Encoding: 190 190 123
Width: 804
GlyphClass: 1
Flags: W
LayerCount: 2
Fore
SplineSet
224 400 m 1,0,1
 285 378 285 378 285 318 c 0,2,3
 285 271 285 271 251.5 243.5 c 128,-1,4
 218 216 218 216 155 216 c 0,5,6
 109 216 109 216 80.5 232.5 c 128,-1,7
 52 249 52 249 39 272 c 128,-1,8
 26 295 26 295 26 314 c 0,9,10
 26 329 26 329 37 329 c 0,11,12
 42 329 42 329 48 324 c 0,13,14
 64 311 64 311 86 300 c 128,-1,15
 108 289 108 289 142 289 c 0,16,17
 202 289 202 289 202 327 c 0,18,19
 202 345 202 345 188.5 350.5 c 128,-1,20
 175 356 175 356 152 356 c 2,21,-1
 121 356 l 2,22,23
 100 356 100 356 90.5 363.5 c 128,-1,24
 81 371 81 371 81 390 c 2,25,-1
 81 418 l 2,26,27
 81 430 81 430 91 430 c 2,28,-1
 141 430 l 2,29,30
 167 430 167 430 178.5 439.5 c 128,-1,31
 190 449 190 449 190 465 c 0,32,33
 190 493 190 493 143 493 c 0,34,35
 118 493 118 493 100.5 486.5 c 128,-1,36
 83 480 83 480 66 472 c 0,37,38
 52 464 52 464 47 475 c 2,39,-1
 37 499 l 2,40,41
 22 536 22 536 65 552 c 0,42,43
 101 566 101 566 148 566 c 0,44,45
 204 566 204 566 238.5 545.5 c 128,-1,46
 273 525 273 525 273 478 c 0,47,48
 273 447 273 447 259.5 429.5 c 128,-1,49
 246 412 246 412 224 400 c 1,0,1
207 0 m 2,50,51
 200 0 200 0 198.5 4.5 c 128,-1,52
 197 9 197 9 199 13 c 2,53,-1
 489 543 l 2,54,55
 496 556 496 556 510 556 c 2,56,-1
 525 556 l 2,57,58
 558 556 558 556 569 535 c 128,-1,59
 580 514 580 514 563 483 c 2,60,-1
 306 13 l 2,61,62
 299 0 299 0 286 0 c 2,63,-1
 207 0 l 2,50,51
623 66 m 1,64,-1
 466 66 l 2,65,66
 455 66 455 66 455 77 c 2,67,-1
 455 118 l 2,68,69
 455 127 455 127 461 137 c 2,70,-1
 586 318 l 2,71,72
 590 324 590 324 595.5 328.5 c 128,-1,73
 601 333 601 333 613 333 c 2,74,-1
 668 333 l 2,75,76
 712 333 712 333 712 293 c 2,77,-1
 712 136 l 1,78,-1
 728 136 l 2,79,80
 771 136 771 136 771 96 c 2,81,-1
 771 76 l 2,82,83
 771 66 771 66 761 66 c 2,84,-1
 712 66 l 1,85,-1
 712 11 l 2,86,87
 712 0 712 0 701 0 c 2,88,-1
 634 0 l 2,89,90
 623 0 623 0 623 11 c 2,91,-1
 623 66 l 1,64,-1
542 136 m 1,92,-1
 623 136 l 1,93,-1
 623 255 l 1,94,-1
 542 136 l 1,92,-1
EndSplineSet
Ligature2: "'frac' Diagonal Fractions lookup 4 subtable" three fraction four
Ligature2: "'frac' Diagonal Fractions lookup 4 subtable" three slash four
EndChar

StartChar: questiondown
Encoding: 191 191 124
Width: 350
GlyphClass: 1
Flags: W
LayerCount: 2
Fore
SplineSet
212 252 m 256,0,1
 183 252 183 252 163.5 272 c 128,-1,2
 144 292 144 292 144 323 c 256,3,4
 144 354 144 354 163.5 373.5 c 128,-1,5
 183 393 183 393 212 393 c 256,6,7
 241 393 241 393 261 373.5 c 128,-1,8
 281 354 281 354 281 323 c 256,9,10
 281 292 281 292 261 272 c 128,-1,11
 241 252 241 252 212 252 c 256,0,1
9 -40 m 0,12,13
 9 5 9 5 26 38 c 128,-1,14
 43 71 43 71 74.5 100.5 c 128,-1,15
 106 130 106 130 148 161 c 0,16,17
 159 169 159 169 162.5 176 c 128,-1,18
 166 183 166 183 166 193 c 2,19,-1
 166 207 l 2,20,21
 166 220 166 220 179 220 c 2,22,-1
 203 220 l 2,23,24
 228 220 228 220 244.5 204.5 c 128,-1,25
 261 189 261 189 261 167 c 0,26,27
 261 142 261 142 248 123 c 128,-1,28
 235 104 235 104 215.5 88 c 128,-1,29
 196 72 196 72 176 56.5 c 128,-1,30
 156 41 156 41 143 22.5 c 128,-1,31
 130 4 130 4 130 -20 c 0,32,33
 130 -48 130 -48 149.5 -63.5 c 128,-1,34
 169 -79 169 -79 203 -79 c 0,35,36
 241 -79 241 -79 271 -69 c 128,-1,37
 301 -59 301 -59 333 -43 c 0,38,39
 340 -39 340 -39 346 -39 c 0,40,41
 353 -39 353 -39 356 -48 c 2,42,-1
 377 -115 l 2,43,44
 379 -122 379 -122 377.5 -128 c 128,-1,45
 376 -134 376 -134 368 -139 c 0,46,47
 327 -161 327 -161 286.5 -172.5 c 128,-1,48
 246 -184 246 -184 200 -184 c 0,49,50
 146 -184 146 -184 102.5 -168 c 128,-1,51
 59 -152 59 -152 34 -119.5 c 128,-1,52
 9 -87 9 -87 9 -40 c 0,12,13
EndSplineSet
EndChar

StartChar: Agrave
Encoding: 192 192 125
Width: 530
GlyphClass: 1
Flags: W
LayerCount: 2
Fore
SplineSet
143 683 m 2,0,1
 138 688 138 688 139.5 693.5 c 128,-1,2
 141 699 141 699 148 699 c 2,3,-1
 240 699 l 2,4,5
 256 699 256 699 269 687 c 2,6,-1
 361 604 l 2,7,8
 365 600 365 600 363.5 594.5 c 128,-1,9
 362 589 362 589 355 589 c 2,10,-1
 276 589 l 2,11,12
 253 589 253 589 241 601 c 2,13,-1
 143 683 l 2,0,1
165 128 m 1,14,-1
 126 13 l 2,15,16
 122 0 122 0 111 0 c 2,17,-1
 17 0 l 2,18,19
 11 0 11 0 9 4.5 c 128,-1,20
 7 9 7 9 8 13 c 2,21,-1
 194 545 l 2,22,23
 198 556 198 556 209 556 c 2,24,-1
 253 556 l 2,25,26
 295 556 295 556 318.5 538 c 128,-1,27
 342 520 342 520 361 466 c 2,28,-1
 523 13 l 2,29,30
 525 9 525 9 522.5 4.5 c 128,-1,31
 520 0 520 0 513 0 c 2,32,-1
 417 0 l 2,33,34
 403 0 403 0 398 13 c 2,35,-1
 359 128 l 1,36,-1
 165 128 l 1,14,-1
200 228 m 1,37,-1
 325 228 l 1,38,-1
 262 415 l 1,39,-1
 200 228 l 1,37,-1
EndSplineSet
EndChar

StartChar: Aacute
Encoding: 193 193 126
Width: 530
GlyphClass: 1
Flags: W
LayerCount: 2
Fore
SplineSet
167 589 m 2,0,1
 160 589 160 589 158.5 594.5 c 128,-1,2
 157 600 157 600 161 604 c 2,3,-1
 252 687 l 2,4,5
 265 699 265 699 282 699 c 2,6,-1
 374 699 l 2,7,8
 381 699 381 699 382.5 693.5 c 128,-1,9
 384 688 384 688 379 683 c 2,10,-1
 281 601 l 2,11,12
 274 594 274 594 265 591.5 c 128,-1,13
 256 589 256 589 246 589 c 2,14,-1
 167 589 l 2,0,1
165 128 m 1,15,-1
 126 13 l 2,16,17
 122 0 122 0 111 0 c 2,18,-1
 17 0 l 2,19,20
 11 0 11 0 9 4.5 c 128,-1,21
 7 9 7 9 8 13 c 2,22,-1
 194 545 l 2,23,24
 198 556 198 556 209 556 c 2,25,-1
 253 556 l 2,26,27
 295 556 295 556 318.5 538 c 128,-1,28
 342 520 342 520 361 466 c 2,29,-1
 523 13 l 2,30,31
 525 9 525 9 522.5 4.5 c 128,-1,32
 520 0 520 0 513 0 c 2,33,-1
 417 0 l 2,34,35
 403 0 403 0 398 13 c 2,36,-1
 359 128 l 1,37,-1
 165 128 l 1,15,-1
200 228 m 1,38,-1
 325 228 l 1,39,-1
 262 415 l 1,40,-1
 200 228 l 1,38,-1
EndSplineSet
EndChar

StartChar: Acircumflex
Encoding: 194 194 127
Width: 530
GlyphClass: 1
Flags: W
LayerCount: 2
Fore
SplineSet
268 659 m 1,0,-1
 221 603 l 2,1,2
 210 589 210 589 187 589 c 2,3,-1
 117 589 l 2,4,5
 110 589 110 589 108.5 594.5 c 128,-1,6
 107 600 107 600 111 604 c 2,7,-1
 191 687 l 2,8,9
 198 695 198 695 204.5 697 c 128,-1,10
 211 699 211 699 221 699 c 2,11,-1
 315 699 l 2,12,13
 325 699 325 699 331.5 697 c 128,-1,14
 338 695 338 695 345 687 c 2,15,-1
 424 604 l 2,16,17
 427 600 427 600 426 594.5 c 128,-1,18
 425 589 425 589 418 589 c 2,19,-1
 349 589 l 2,20,21
 326 589 326 589 315 603 c 2,22,-1
 268 659 l 1,0,-1
165 128 m 1,23,-1
 126 13 l 2,24,25
 122 0 122 0 111 0 c 2,26,-1
 17 0 l 2,27,28
 11 0 11 0 9 4.5 c 128,-1,29
 7 9 7 9 8 13 c 2,30,-1
 194 545 l 2,31,32
 198 556 198 556 209 556 c 2,33,-1
 253 556 l 2,34,35
 295 556 295 556 318.5 538 c 128,-1,36
 342 520 342 520 361 466 c 2,37,-1
 523 13 l 2,38,39
 525 9 525 9 522.5 4.5 c 128,-1,40
 520 0 520 0 513 0 c 2,41,-1
 417 0 l 2,42,43
 403 0 403 0 398 13 c 2,44,-1
 359 128 l 1,45,-1
 165 128 l 1,23,-1
200 228 m 1,46,-1
 325 228 l 1,47,-1
 262 415 l 1,48,-1
 200 228 l 1,46,-1
EndSplineSet
EndChar

StartChar: Atilde
Encoding: 195 195 128
Width: 530
GlyphClass: 1
Flags: W
LayerCount: 2
Fore
SplineSet
113 587 m 2,0,1
 102 587 102 587 102 600 c 0,2,3
 105 649 105 649 125 675 c 128,-1,4
 145 701 145 701 181 701 c 0,5,6
 207 701 207 701 229 693 c 128,-1,7
 251 685 251 685 271 676.5 c 128,-1,8
 291 668 291 668 308 668 c 0,9,10
 326 668 326 668 330 692 c 0,11,12
 332 704 332 704 343 704 c 2,13,-1
 391 704 l 2,14,15
 404 704 404 704 402 691 c 0,16,17
 397 642 397 642 379 617.5 c 128,-1,18
 361 593 361 593 316 593 c 0,19,20
 295 593 295 593 273.5 600.5 c 128,-1,21
 252 608 252 608 232.5 615.5 c 128,-1,22
 213 623 213 623 198 623 c 0,23,24
 185 623 185 623 180.5 615.5 c 128,-1,25
 176 608 176 608 174 599 c 0,26,27
 173 587 173 587 161 587 c 2,28,-1
 113 587 l 2,0,1
165 128 m 1,29,-1
 126 13 l 2,30,31
 122 0 122 0 111 0 c 2,32,-1
 17 0 l 2,33,34
 11 0 11 0 9 4.5 c 128,-1,35
 7 9 7 9 8 13 c 2,36,-1
 194 545 l 2,37,38
 198 556 198 556 209 556 c 2,39,-1
 253 556 l 2,40,41
 295 556 295 556 318.5 538 c 128,-1,42
 342 520 342 520 361 466 c 2,43,-1
 523 13 l 2,44,45
 525 9 525 9 522.5 4.5 c 128,-1,46
 520 0 520 0 513 0 c 2,47,-1
 417 0 l 2,48,49
 403 0 403 0 398 13 c 2,50,-1
 359 128 l 1,51,-1
 165 128 l 1,29,-1
200 228 m 1,52,-1
 325 228 l 1,53,-1
 262 415 l 1,54,-1
 200 228 l 1,52,-1
EndSplineSet
EndChar

StartChar: Adieresis
Encoding: 196 196 129
Width: 530
GlyphClass: 1
Flags: W
LayerCount: 2
Fore
SplineSet
108 640 m 256,0,1
 108 668 108 668 126.5 686.5 c 128,-1,2
 145 705 145 705 172 705 c 0,3,4
 198 705 198 705 216 686.5 c 128,-1,5
 234 668 234 668 234 640 c 256,6,7
 234 612 234 612 216 594 c 128,-1,8
 198 576 198 576 172 576 c 0,9,10
 145 576 145 576 126.5 594 c 128,-1,11
 108 612 108 612 108 640 c 256,0,1
284 640 m 256,12,13
 284 668 284 668 302.5 686.5 c 128,-1,14
 321 705 321 705 348 705 c 0,15,16
 374 705 374 705 391.5 686.5 c 128,-1,17
 409 668 409 668 409 640 c 256,18,19
 409 612 409 612 391.5 594 c 128,-1,20
 374 576 374 576 348 576 c 0,21,22
 321 576 321 576 302.5 594 c 128,-1,23
 284 612 284 612 284 640 c 256,12,13
165 128 m 1,24,-1
 126 13 l 2,25,26
 122 0 122 0 111 0 c 2,27,-1
 17 0 l 2,28,29
 11 0 11 0 9 4.5 c 128,-1,30
 7 9 7 9 8 13 c 2,31,-1
 194 545 l 2,32,33
 198 556 198 556 209 556 c 2,34,-1
 253 556 l 2,35,36
 295 556 295 556 318.5 538 c 128,-1,37
 342 520 342 520 361 466 c 2,38,-1
 523 13 l 2,39,40
 525 9 525 9 522.5 4.5 c 128,-1,41
 520 0 520 0 513 0 c 2,42,-1
 417 0 l 2,43,44
 403 0 403 0 398 13 c 2,45,-1
 359 128 l 1,46,-1
 165 128 l 1,24,-1
200 228 m 1,47,-1
 325 228 l 1,48,-1
 262 415 l 1,49,-1
 200 228 l 1,47,-1
EndSplineSet
EndChar

StartChar: Aring
Encoding: 197 197 130
Width: 530
GlyphClass: 1
Flags: W
LayerCount: 2
Fore
SplineSet
175 657 m 256,0,1
 175 691 175 691 199 714 c 128,-1,2
 223 737 223 737 256 737 c 0,3,4
 290 737 290 737 313.5 714 c 128,-1,5
 337 691 337 691 337 657 c 256,6,7
 337 623 337 623 313.5 599.5 c 128,-1,8
 290 576 290 576 256 576 c 0,9,10
 223 576 223 576 199 599.5 c 128,-1,11
 175 623 175 623 175 657 c 256,0,1
256 623 m 0,12,13
 270 623 270 623 279.5 633 c 128,-1,14
 289 643 289 643 289 657 c 256,15,16
 289 671 289 671 279.5 681 c 128,-1,17
 270 691 270 691 256 691 c 0,18,19
 243 691 243 691 233.5 681 c 128,-1,20
 224 671 224 671 224 657 c 256,21,22
 224 643 224 643 233.5 633 c 128,-1,23
 243 623 243 623 256 623 c 0,12,13
165 128 m 1,24,-1
 126 13 l 2,25,26
 122 0 122 0 111 0 c 2,27,-1
 17 0 l 2,28,29
 11 0 11 0 9 4.5 c 128,-1,30
 7 9 7 9 8 13 c 2,31,-1
 194 545 l 2,32,33
 198 556 198 556 209 556 c 2,34,-1
 253 556 l 2,35,36
 295 556 295 556 318.5 538 c 128,-1,37
 342 520 342 520 361 466 c 2,38,-1
 523 13 l 2,39,40
 525 9 525 9 522.5 4.5 c 128,-1,41
 520 0 520 0 513 0 c 2,42,-1
 417 0 l 2,43,44
 403 0 403 0 398 13 c 2,45,-1
 359 128 l 1,46,-1
 165 128 l 1,24,-1
200 228 m 1,47,-1
 325 228 l 1,48,-1
 262 415 l 1,49,-1
 200 228 l 1,47,-1
EndSplineSet
EndChar

StartChar: AE
Encoding: 198 198 131
Width: 727
GlyphClass: 1
Flags: W
LayerCount: 2
Fore
SplineSet
192 128 m 1,0,-1
 132 13 l 2,1,2
 126 0 126 0 110 0 c 2,3,-1
 14 0 l 2,4,5
 8 0 8 0 5.5 4 c 128,-1,6
 3 8 3 8 6 13 c 2,7,-1
 291 543 l 2,8,9
 298 556 298 556 314 556 c 2,10,-1
 629 556 l 2,11,12
 699 556 699 556 699 489 c 2,13,-1
 699 464 l 2,14,15
 699 447 699 447 683 447 c 2,16,-1
 474 447 l 1,17,-1
 474 334 l 1,18,-1
 609 334 l 2,19,20
 679 334 679 334 679 267 c 2,21,-1
 679 242 l 2,22,23
 679 226 679 226 663 226 c 2,24,-1
 474 226 l 1,25,-1
 474 108 l 1,26,-1
 637 108 l 2,27,28
 707 108 707 108 707 42 c 2,29,-1
 707 17 l 2,30,31
 707 0 707 0 691 0 c 2,32,-1
 370 0 l 2,33,34
 357 0 357 0 357 13 c 2,35,-1
 357 128 l 1,36,-1
 192 128 l 1,0,-1
243 228 m 1,37,-1
 357 228 l 1,38,-1
 357 447 l 1,39,-1
 243 228 l 1,37,-1
EndSplineSet
EndChar

StartChar: Ccedilla
Encoding: 199 199 132
Width: 520
GlyphClass: 1
Flags: W
LayerCount: 2
Fore
SplineSet
359 -4 m 1,0,-1
 312 -102 l 2,1,2
 308 -112 308 -112 300 -115.5 c 128,-1,3
 292 -119 292 -119 281 -119 c 2,4,-1
 208 -119 l 2,5,6
 201 -119 201 -119 200 -114 c 128,-1,7
 199 -109 199 -109 202 -104 c 2,8,-1
 264 -8 l 1,9,10
 160 4 160 4 99.5 79 c 128,-1,11
 39 154 39 154 39 275 c 0,12,13
 39 366 39 366 73.5 431 c 128,-1,14
 108 496 108 496 169 531 c 128,-1,15
 230 566 230 566 307 566 c 0,16,17
 348 566 348 566 377 560.5 c 128,-1,18
 406 555 406 555 434 544 c 0,19,20
 468 531 468 531 476 510 c 128,-1,21
 484 489 484 489 476 457 c 2,22,-1
 469 428 l 2,23,24
 466 415 466 415 456 415 c 0,25,26
 450 415 450 415 440 420 c 0,27,28
 410 435 410 435 382.5 444.5 c 128,-1,29
 355 454 355 454 311 454 c 0,30,31
 245 454 245 454 202.5 411 c 128,-1,32
 160 368 160 368 160 275 c 0,33,34
 160 187 160 187 204.5 144 c 128,-1,35
 249 101 249 101 316 101 c 0,36,37
 351 101 351 101 379 111.5 c 128,-1,38
 407 122 407 122 427.5 136 c 128,-1,39
 448 150 448 150 459 160 c 0,40,41
 465 166 465 166 469.5 167.5 c 128,-1,42
 474 169 474 169 477 169 c 0,43,44
 495 169 495 169 495 142 c 0,45,46
 495 120 495 120 482 90 c 128,-1,47
 469 60 469 60 439 34 c 128,-1,48
 409 8 409 8 359 -4 c 1,0,-1
EndSplineSet
EndChar

StartChar: Egrave
Encoding: 200 200 133
Width: 423
GlyphClass: 1
Flags: W
LayerCount: 2
Fore
SplineSet
84 683 m 2,0,1
 79 688 79 688 80.5 693.5 c 128,-1,2
 82 699 82 699 89 699 c 2,3,-1
 180 699 l 2,4,5
 197 699 197 699 210 687 c 2,6,-1
 301 604 l 2,7,8
 305 600 305 600 303.5 594.5 c 128,-1,9
 302 589 302 589 295 589 c 2,10,-1
 217 589 l 2,11,12
 194 589 194 589 181 601 c 2,13,-1
 84 683 l 2,0,1
168 108 m 1,14,-1
 331 108 l 2,15,16
 401 108 401 108 401 42 c 2,17,-1
 401 17 l 2,18,19
 401 0 401 0 385 0 c 2,20,-1
 64 0 l 2,21,22
 51 0 51 0 51 13 c 2,23,-1
 51 543 l 2,24,25
 51 556 51 556 64 556 c 2,26,-1
 323 556 l 2,27,28
 393 556 393 556 393 489 c 2,29,-1
 393 464 l 2,30,31
 393 447 393 447 377 447 c 2,32,-1
 168 447 l 1,33,-1
 168 334 l 1,34,-1
 303 334 l 2,35,36
 373 334 373 334 373 267 c 2,37,-1
 373 242 l 2,38,39
 373 226 373 226 357 226 c 2,40,-1
 168 226 l 1,41,-1
 168 108 l 1,14,-1
EndSplineSet
EndChar

StartChar: Eacute
Encoding: 201 201 134
Width: 423
GlyphClass: 1
Flags: W
LayerCount: 2
Fore
SplineSet
128 589 m 2,0,1
 121 589 121 589 119.5 594.5 c 128,-1,2
 118 600 118 600 122 604 c 2,3,-1
 213 687 l 2,4,5
 226 699 226 699 243 699 c 2,6,-1
 334 699 l 2,7,8
 341 699 341 699 342.5 693.5 c 128,-1,9
 344 688 344 688 339 683 c 2,10,-1
 242 601 l 2,11,12
 229 589 229 589 206 589 c 2,13,-1
 128 589 l 2,0,1
168 108 m 1,14,-1
 331 108 l 2,15,16
 401 108 401 108 401 42 c 2,17,-1
 401 17 l 2,18,19
 401 0 401 0 385 0 c 2,20,-1
 64 0 l 2,21,22
 51 0 51 0 51 13 c 2,23,-1
 51 543 l 2,24,25
 51 556 51 556 64 556 c 2,26,-1
 323 556 l 2,27,28
 393 556 393 556 393 489 c 2,29,-1
 393 464 l 2,30,31
 393 447 393 447 377 447 c 2,32,-1
 168 447 l 1,33,-1
 168 334 l 1,34,-1
 303 334 l 2,35,36
 373 334 373 334 373 267 c 2,37,-1
 373 242 l 2,38,39
 373 226 373 226 357 226 c 2,40,-1
 168 226 l 1,41,-1
 168 108 l 1,14,-1
EndSplineSet
EndChar

StartChar: Ecircumflex
Encoding: 202 202 135
Width: 423
GlyphClass: 1
Flags: W
LayerCount: 2
Fore
SplineSet
213 659 m 1,0,-1
 165 603 l 2,1,2
 154 589 154 589 131 589 c 2,3,-1
 62 589 l 2,4,5
 55 589 55 589 53.5 594.5 c 128,-1,6
 52 600 52 600 56 604 c 2,7,-1
 135 687 l 2,8,9
 142 695 142 695 148.5 697 c 128,-1,10
 155 699 155 699 165 699 c 2,11,-1
 260 699 l 2,12,13
 270 699 270 699 276.5 697 c 128,-1,14
 283 695 283 695 290 687 c 2,15,-1
 369 604 l 2,16,17
 372 600 372 600 371 594.5 c 128,-1,18
 370 589 370 589 363 589 c 2,19,-1
 293 589 l 2,20,21
 271 589 271 589 260 603 c 2,22,-1
 213 659 l 1,0,-1
168 108 m 1,23,-1
 331 108 l 2,24,25
 401 108 401 108 401 42 c 2,26,-1
 401 17 l 2,27,28
 401 0 401 0 385 0 c 2,29,-1
 64 0 l 2,30,31
 51 0 51 0 51 13 c 2,32,-1
 51 543 l 2,33,34
 51 556 51 556 64 556 c 2,35,-1
 323 556 l 2,36,37
 393 556 393 556 393 489 c 2,38,-1
 393 464 l 2,39,40
 393 447 393 447 377 447 c 2,41,-1
 168 447 l 1,42,-1
 168 334 l 1,43,-1
 303 334 l 2,44,45
 373 334 373 334 373 267 c 2,46,-1
 373 242 l 2,47,48
 373 226 373 226 357 226 c 2,49,-1
 168 226 l 1,50,-1
 168 108 l 1,23,-1
EndSplineSet
EndChar

StartChar: Edieresis
Encoding: 203 203 136
Width: 423
GlyphClass: 1
Flags: W
LayerCount: 2
Fore
SplineSet
68 640 m 256,0,1
 68 668 68 668 86.5 686.5 c 128,-1,2
 105 705 105 705 131 705 c 256,3,4
 157 705 157 705 175 686.5 c 128,-1,5
 193 668 193 668 193 640 c 256,6,7
 193 612 193 612 175 594 c 128,-1,8
 157 576 157 576 131 576 c 256,9,10
 105 576 105 576 86.5 594 c 128,-1,11
 68 612 68 612 68 640 c 256,0,1
244 640 m 256,12,13
 244 668 244 668 262.5 686.5 c 128,-1,14
 281 705 281 705 307 705 c 256,15,16
 333 705 333 705 351 686.5 c 128,-1,17
 369 668 369 668 369 640 c 256,18,19
 369 612 369 612 351 594 c 128,-1,20
 333 576 333 576 307 576 c 256,21,22
 281 576 281 576 262.5 594 c 128,-1,23
 244 612 244 612 244 640 c 256,12,13
168 108 m 1,24,-1
 331 108 l 2,25,26
 401 108 401 108 401 42 c 2,27,-1
 401 17 l 2,28,29
 401 0 401 0 385 0 c 2,30,-1
 64 0 l 2,31,32
 51 0 51 0 51 13 c 2,33,-1
 51 543 l 2,34,35
 51 556 51 556 64 556 c 2,36,-1
 323 556 l 2,37,38
 393 556 393 556 393 489 c 2,39,-1
 393 464 l 2,40,41
 393 447 393 447 377 447 c 2,42,-1
 168 447 l 1,43,-1
 168 334 l 1,44,-1
 303 334 l 2,45,46
 373 334 373 334 373 267 c 2,47,-1
 373 242 l 2,48,49
 373 226 373 226 357 226 c 2,50,-1
 168 226 l 1,51,-1
 168 108 l 1,24,-1
EndSplineSet
EndChar

StartChar: Igrave
Encoding: 204 204 137
Width: 219
GlyphClass: 1
Flags: W
LayerCount: 2
Fore
SplineSet
2 683 m 2,0,1
 -3 688 -3 688 -1.5 693.5 c 128,-1,2
 0 699 0 699 7 699 c 2,3,-1
 98 699 l 2,4,5
 115 699 115 699 128 687 c 2,6,-1
 220 604 l 2,7,8
 224 600 224 600 222.5 594.5 c 128,-1,9
 221 589 221 589 214 589 c 2,10,-1
 135 589 l 2,11,12
 112 589 112 589 99 601 c 2,13,-1
 2 683 l 2,0,1
52 13 m 2,14,-1
 52 543 l 2,15,16
 52 556 52 556 65 556 c 2,17,-1
 75 556 l 2,18,19
 122 556 122 556 145.5 533.5 c 128,-1,20
 169 511 169 511 169 455 c 2,21,-1
 169 13 l 2,22,23
 169 0 169 0 156 0 c 2,24,-1
 65 0 l 2,25,26
 52 0 52 0 52 13 c 2,14,-1
EndSplineSet
EndChar

StartChar: Iacute
Encoding: 205 205 138
Width: 219
GlyphClass: 1
Flags: W
LayerCount: 2
Fore
SplineSet
6 589 m 2,0,1
 -1 589 -1 589 -2.5 594.5 c 128,-1,2
 -4 600 -4 600 0 604 c 2,3,-1
 91 687 l 2,4,5
 104 699 104 699 121 699 c 2,6,-1
 213 699 l 2,7,8
 220 699 220 699 221.5 693.5 c 128,-1,9
 223 688 223 688 218 683 c 2,10,-1
 120 601 l 2,11,12
 107 589 107 589 84 589 c 2,13,-1
 6 589 l 2,0,1
52 13 m 2,14,-1
 52 543 l 2,15,16
 52 556 52 556 65 556 c 2,17,-1
 75 556 l 2,18,19
 122 556 122 556 145.5 533.5 c 128,-1,20
 169 511 169 511 169 455 c 2,21,-1
 169 13 l 2,22,23
 169 0 169 0 156 0 c 2,24,-1
 65 0 l 2,25,26
 52 0 52 0 52 13 c 2,14,-1
EndSplineSet
EndChar

StartChar: Icircumflex
Encoding: 206 206 139
Width: 219
GlyphClass: 1
Flags: W
LayerCount: 2
Fore
SplineSet
110 659 m 1,0,-1
 62 603 l 2,1,2
 51 589 51 589 28 589 c 2,3,-1
 -41 589 l 2,4,5
 -48 589 -48 589 -49.5 594.5 c 128,-1,6
 -51 600 -51 600 -47 604 c 2,7,-1
 32 687 l 2,8,9
 39 695 39 695 45.5 697 c 128,-1,10
 52 699 52 699 62 699 c 2,11,-1
 157 699 l 2,12,13
 167 699 167 699 173.5 697 c 128,-1,14
 180 695 180 695 187 687 c 2,15,-1
 266 604 l 2,16,17
 269 600 269 600 268 594.5 c 128,-1,18
 267 589 267 589 260 589 c 2,19,-1
 190 589 l 2,20,21
 168 589 168 589 157 603 c 2,22,-1
 110 659 l 1,0,-1
50 13 m 2,23,-1
 50 543 l 2,24,25
 50 556 50 556 63 556 c 2,26,-1
 73 556 l 2,27,28
 121 556 121 556 144.5 533.5 c 128,-1,29
 168 511 168 511 168 455 c 2,30,-1
 168 13 l 2,31,32
 168 0 168 0 155 0 c 2,33,-1
 63 0 l 2,34,35
 50 0 50 0 50 13 c 2,23,-1
EndSplineSet
EndChar

StartChar: Idieresis
Encoding: 207 207 140
Width: 219
GlyphClass: 1
Flags: W
LayerCount: 2
Fore
SplineSet
-41 640 m 256,0,1
 -41 668 -41 668 -22.5 686.5 c 128,-1,2
 -4 705 -4 705 23 705 c 0,3,4
 49 705 49 705 66.5 686.5 c 128,-1,5
 84 668 84 668 84 640 c 256,6,7
 84 612 84 612 66.5 594 c 128,-1,8
 49 576 49 576 23 576 c 0,9,10
 -4 576 -4 576 -22.5 594 c 128,-1,11
 -41 612 -41 612 -41 640 c 256,0,1
135 640 m 256,12,13
 135 668 135 668 153.5 686.5 c 128,-1,14
 172 705 172 705 199 705 c 0,15,16
 225 705 225 705 242.5 686.5 c 128,-1,17
 260 668 260 668 260 640 c 256,18,19
 260 612 260 612 242.5 594 c 128,-1,20
 225 576 225 576 199 576 c 0,21,22
 172 576 172 576 153.5 594 c 128,-1,23
 135 612 135 612 135 640 c 256,12,13
51 13 m 2,24,-1
 51 543 l 2,25,26
 51 556 51 556 64 556 c 2,27,-1
 74 556 l 2,28,29
 122 556 122 556 145.5 533.5 c 128,-1,30
 169 511 169 511 169 455 c 2,31,-1
 169 13 l 2,32,33
 169 0 169 0 156 0 c 2,34,-1
 64 0 l 2,35,36
 51 0 51 0 51 13 c 2,24,-1
EndSplineSet
EndChar

StartChar: Eth
Encoding: 208 208 141
Width: 558
GlyphClass: 1
Flags: W
LayerCount: 2
Fore
SplineSet
60 226 m 1,0,-1
 13 226 l 2,1,2
 0 226 0 226 0 239 c 2,3,-1
 0 321 l 2,4,5
 0 334 0 334 13 334 c 2,6,-1
 60 334 l 1,7,-1
 60 543 l 2,8,9
 60 556 60 556 73 556 c 2,10,-1
 240 556 l 2,11,12
 293 556 293 556 344.5 543.5 c 128,-1,13
 396 531 396 531 438 500.5 c 128,-1,14
 480 470 480 470 505 418 c 128,-1,15
 530 366 530 366 530 286 c 0,16,17
 530 135 530 135 450 67.5 c 128,-1,18
 370 0 370 0 232 0 c 2,19,-1
 73 0 l 2,20,21
 60 0 60 0 60 13 c 2,22,-1
 60 226 l 1,0,-1
177 108 m 1,23,-1
 243 108 l 2,24,25
 320 108 320 108 363.5 152 c 128,-1,26
 407 196 407 196 407 282 c 0,27,28
 407 372 407 372 363.5 409.5 c 128,-1,29
 320 447 320 447 240 447 c 2,30,-1
 177 447 l 1,31,-1
 177 334 l 1,32,-1
 241 334 l 2,33,34
 311 334 311 334 311 267 c 2,35,-1
 311 242 l 2,36,37
 311 226 311 226 295 226 c 2,38,-1
 177 226 l 1,39,-1
 177 108 l 1,23,-1
EndSplineSet
EndChar

StartChar: Ntilde
Encoding: 209 209 142
Width: 539
GlyphClass: 1
Flags: W
LayerCount: 2
Fore
SplineSet
131 587 m 2,0,1
 121 587 121 587 121 600 c 0,2,3
 124 649 124 649 143.5 675 c 128,-1,4
 163 701 163 701 199 701 c 0,5,6
 225 701 225 701 247 693 c 128,-1,7
 269 685 269 685 289 676.5 c 128,-1,8
 309 668 309 668 326 668 c 0,9,10
 344 668 344 668 348 692 c 0,11,12
 350 704 350 704 361 704 c 2,13,-1
 409 704 l 2,14,15
 422 704 422 704 420 691 c 0,16,17
 415 642 415 642 397 617.5 c 128,-1,18
 379 593 379 593 334 593 c 0,19,20
 313 593 313 593 291.5 600.5 c 128,-1,21
 270 608 270 608 250.5 615.5 c 128,-1,22
 231 623 231 623 216 623 c 0,23,24
 203 623 203 623 198.5 615.5 c 128,-1,25
 194 608 194 608 192 599 c 0,26,27
 191 587 191 587 179 587 c 2,28,-1
 131 587 l 2,0,1
168 336 m 1,29,-1
 168 13 l 2,30,31
 168 0 168 0 155 0 c 2,32,-1
 64 0 l 2,33,34
 51 0 51 0 51 13 c 2,35,-1
 51 543 l 2,36,37
 51 556 51 556 64 556 c 2,38,-1
 104 556 l 2,39,40
 137 556 137 556 157 544.5 c 128,-1,41
 177 533 177 533 195 504 c 2,42,-1
 371 218 l 1,43,-1
 371 543 l 2,44,45
 371 556 371 556 384 556 c 2,46,-1
 394 556 l 2,47,48
 441 556 441 556 464.5 533.5 c 128,-1,49
 488 511 488 511 488 455 c 2,50,-1
 488 13 l 2,51,52
 488 0 488 0 475 0 c 2,53,-1
 389 0 l 2,54,55
 375 0 375 0 367 13 c 2,56,-1
 168 336 l 1,29,-1
EndSplineSet
EndChar

StartChar: Ograve
Encoding: 210 210 143
Width: 612
GlyphClass: 1
Flags: W
LayerCount: 2
Fore
SplineSet
188 683 m 2,0,1
 183 688 183 688 184.5 693.5 c 128,-1,2
 186 699 186 699 193 699 c 2,3,-1
 284 699 l 2,4,5
 301 699 301 699 314 687 c 2,6,-1
 406 604 l 2,7,8
 410 600 410 600 408.5 594.5 c 128,-1,9
 407 589 407 589 400 589 c 2,10,-1
 321 589 l 2,11,12
 298 589 298 589 285 601 c 2,13,-1
 188 683 l 2,0,1
306 -10 m 0,14,15
 179 -10 179 -10 109 67 c 128,-1,16
 39 144 39 144 39 277 c 0,17,18
 39 365 39 365 71 430 c 128,-1,19
 103 495 103 495 162.5 530.5 c 128,-1,20
 222 566 222 566 306 566 c 256,21,22
 390 566 390 566 450 530.5 c 128,-1,23
 510 495 510 495 542 430 c 128,-1,24
 574 365 574 365 574 277 c 0,25,26
 574 144 574 144 504 67 c 128,-1,27
 434 -10 434 -10 306 -10 c 0,14,15
306 102 m 0,28,29
 348 102 348 102 381 118.5 c 128,-1,30
 414 135 414 135 433 173.5 c 128,-1,31
 452 212 452 212 452 277 c 256,32,33
 452 342 452 342 433 381 c 128,-1,34
 414 420 414 420 381 437 c 128,-1,35
 348 454 348 454 306 454 c 0,36,37
 265 454 265 454 232 437 c 128,-1,38
 199 420 199 420 179.5 381 c 128,-1,39
 160 342 160 342 160 277 c 256,40,41
 160 212 160 212 179.5 173.5 c 128,-1,42
 199 135 199 135 232 118.5 c 128,-1,43
 265 102 265 102 306 102 c 0,28,29
EndSplineSet
EndChar

StartChar: Oacute
Encoding: 211 211 144
Width: 612
GlyphClass: 1
Flags: W
LayerCount: 2
Fore
SplineSet
212 589 m 2,0,1
 205 589 205 589 203.5 594.5 c 128,-1,2
 202 600 202 600 206 604 c 2,3,-1
 297 687 l 2,4,5
 310 699 310 699 327 699 c 2,6,-1
 419 699 l 2,7,8
 426 699 426 699 427.5 693.5 c 128,-1,9
 429 688 429 688 424 683 c 2,10,-1
 326 601 l 2,11,12
 313 589 313 589 290 589 c 2,13,-1
 212 589 l 2,0,1
306 -10 m 0,14,15
 179 -10 179 -10 109 67 c 128,-1,16
 39 144 39 144 39 277 c 0,17,18
 39 365 39 365 71 430 c 128,-1,19
 103 495 103 495 162.5 530.5 c 128,-1,20
 222 566 222 566 306 566 c 256,21,22
 390 566 390 566 450 530.5 c 128,-1,23
 510 495 510 495 542 430 c 128,-1,24
 574 365 574 365 574 277 c 0,25,26
 574 144 574 144 504 67 c 128,-1,27
 434 -10 434 -10 306 -10 c 0,14,15
306 102 m 0,28,29
 348 102 348 102 381 118.5 c 128,-1,30
 414 135 414 135 433 173.5 c 128,-1,31
 452 212 452 212 452 277 c 256,32,33
 452 342 452 342 433 381 c 128,-1,34
 414 420 414 420 381 437 c 128,-1,35
 348 454 348 454 306 454 c 0,36,37
 265 454 265 454 232 437 c 128,-1,38
 199 420 199 420 179.5 381 c 128,-1,39
 160 342 160 342 160 277 c 256,40,41
 160 212 160 212 179.5 173.5 c 128,-1,42
 199 135 199 135 232 118.5 c 128,-1,43
 265 102 265 102 306 102 c 0,28,29
EndSplineSet
EndChar

StartChar: Ocircumflex
Encoding: 212 212 145
Width: 612
GlyphClass: 1
Flags: W
LayerCount: 2
Fore
SplineSet
307 659 m 1,0,-1
 260 603 l 2,1,2
 249 589 249 589 226 589 c 2,3,-1
 156 589 l 2,4,5
 149 589 149 589 147.5 594.5 c 128,-1,6
 146 600 146 600 150 604 c 2,7,-1
 230 687 l 2,8,9
 237 695 237 695 243.5 697 c 128,-1,10
 250 699 250 699 260 699 c 2,11,-1
 354 699 l 2,12,13
 364 699 364 699 370.5 697 c 128,-1,14
 377 695 377 695 384 687 c 2,15,-1
 463 604 l 2,16,17
 466 600 466 600 465 594.5 c 128,-1,18
 464 589 464 589 457 589 c 2,19,-1
 388 589 l 2,20,21
 365 589 365 589 354 603 c 2,22,-1
 307 659 l 1,0,-1
306 -10 m 0,23,24
 179 -10 179 -10 109 67 c 128,-1,25
 39 144 39 144 39 277 c 0,26,27
 39 365 39 365 71 430 c 128,-1,28
 103 495 103 495 162.5 530.5 c 128,-1,29
 222 566 222 566 306 566 c 256,30,31
 390 566 390 566 450 530.5 c 128,-1,32
 510 495 510 495 542 430 c 128,-1,33
 574 365 574 365 574 277 c 0,34,35
 574 144 574 144 504 67 c 128,-1,36
 434 -10 434 -10 306 -10 c 0,23,24
306 102 m 0,37,38
 348 102 348 102 381 118.5 c 128,-1,39
 414 135 414 135 433 173.5 c 128,-1,40
 452 212 452 212 452 277 c 256,41,42
 452 342 452 342 433 381 c 128,-1,43
 414 420 414 420 381 437 c 128,-1,44
 348 454 348 454 306 454 c 0,45,46
 265 454 265 454 232 437 c 128,-1,47
 199 420 199 420 179.5 381 c 128,-1,48
 160 342 160 342 160 277 c 256,49,50
 160 212 160 212 179.5 173.5 c 128,-1,51
 199 135 199 135 232 118.5 c 128,-1,52
 265 102 265 102 306 102 c 0,37,38
EndSplineSet
EndChar

StartChar: Otilde
Encoding: 213 213 146
Width: 612
GlyphClass: 1
Flags: W
LayerCount: 2
Fore
SplineSet
162 587 m 2,0,1
 151 587 151 587 151 600 c 0,2,3
 154 649 154 649 174 675 c 128,-1,4
 194 701 194 701 230 701 c 0,5,6
 255 701 255 701 277.5 693 c 128,-1,7
 300 685 300 685 320 676.5 c 128,-1,8
 340 668 340 668 357 668 c 0,9,10
 375 668 375 668 379 692 c 0,11,12
 381 704 381 704 392 704 c 2,13,-1
 440 704 l 2,14,15
 452 704 452 704 450 691 c 0,16,17
 445 642 445 642 427.5 617.5 c 128,-1,18
 410 593 410 593 365 593 c 0,19,20
 344 593 344 593 322.5 600.5 c 128,-1,21
 301 608 301 608 281.5 615.5 c 128,-1,22
 262 623 262 623 247 623 c 0,23,24
 234 623 234 623 229.5 615.5 c 128,-1,25
 225 608 225 608 223 599 c 0,26,27
 222 587 222 587 210 587 c 2,28,-1
 162 587 l 2,0,1
306 -10 m 0,29,30
 179 -10 179 -10 109 67 c 128,-1,31
 39 144 39 144 39 277 c 0,32,33
 39 365 39 365 71 430 c 128,-1,34
 103 495 103 495 162.5 530.5 c 128,-1,35
 222 566 222 566 306 566 c 256,36,37
 390 566 390 566 450 530.5 c 128,-1,38
 510 495 510 495 542 430 c 128,-1,39
 574 365 574 365 574 277 c 0,40,41
 574 144 574 144 504 67 c 128,-1,42
 434 -10 434 -10 306 -10 c 0,29,30
306 102 m 0,43,44
 348 102 348 102 381 118.5 c 128,-1,45
 414 135 414 135 433 173.5 c 128,-1,46
 452 212 452 212 452 277 c 256,47,48
 452 342 452 342 433 381 c 128,-1,49
 414 420 414 420 381 437 c 128,-1,50
 348 454 348 454 306 454 c 0,51,52
 265 454 265 454 232 437 c 128,-1,53
 199 420 199 420 179.5 381 c 128,-1,54
 160 342 160 342 160 277 c 256,55,56
 160 212 160 212 179.5 173.5 c 128,-1,57
 199 135 199 135 232 118.5 c 128,-1,58
 265 102 265 102 306 102 c 0,43,44
EndSplineSet
EndChar

StartChar: Odieresis
Encoding: 214 214 147
Width: 612
GlyphClass: 1
Flags: W
LayerCount: 2
Fore
SplineSet
156 640 m 256,0,1
 156 668 156 668 174.5 686.5 c 128,-1,2
 193 705 193 705 220 705 c 0,3,4
 246 705 246 705 263.5 686.5 c 128,-1,5
 281 668 281 668 281 640 c 256,6,7
 281 612 281 612 263.5 594 c 128,-1,8
 246 576 246 576 220 576 c 0,9,10
 193 576 193 576 174.5 594 c 128,-1,11
 156 612 156 612 156 640 c 256,0,1
332 640 m 256,12,13
 332 668 332 668 350.5 686.5 c 128,-1,14
 369 705 369 705 396 705 c 0,15,16
 422 705 422 705 439.5 686.5 c 128,-1,17
 457 668 457 668 457 640 c 256,18,19
 457 612 457 612 439.5 594 c 128,-1,20
 422 576 422 576 396 576 c 0,21,22
 369 576 369 576 350.5 594 c 128,-1,23
 332 612 332 612 332 640 c 256,12,13
306 -10 m 0,24,25
 179 -10 179 -10 109 67 c 128,-1,26
 39 144 39 144 39 277 c 0,27,28
 39 365 39 365 71 430 c 128,-1,29
 103 495 103 495 162.5 530.5 c 128,-1,30
 222 566 222 566 306 566 c 256,31,32
 390 566 390 566 450 530.5 c 128,-1,33
 510 495 510 495 542 430 c 128,-1,34
 574 365 574 365 574 277 c 0,35,36
 574 144 574 144 504 67 c 128,-1,37
 434 -10 434 -10 306 -10 c 0,24,25
306 102 m 0,38,39
 348 102 348 102 381 118.5 c 128,-1,40
 414 135 414 135 433 173.5 c 128,-1,41
 452 212 452 212 452 277 c 256,42,43
 452 342 452 342 433 381 c 128,-1,44
 414 420 414 420 381 437 c 128,-1,45
 348 454 348 454 306 454 c 0,46,47
 265 454 265 454 232 437 c 128,-1,48
 199 420 199 420 179.5 381 c 128,-1,49
 160 342 160 342 160 277 c 256,50,51
 160 212 160 212 179.5 173.5 c 128,-1,52
 199 135 199 135 232 118.5 c 128,-1,53
 265 102 265 102 306 102 c 0,38,39
EndSplineSet
EndChar

StartChar: multiply
Encoding: 215 215 148
Width: 431
GlyphClass: 1
Flags: W
LayerCount: 2
Fore
SplineSet
153 273 m 1,0,-1
 44 383 l 2,1,2
 35 392 35 392 44 401 c 0,3,4
 79 435 79 435 103 432 c 128,-1,5
 127 429 127 429 158 397 c 2,6,-1
 217 338 l 1,7,-1
 315 436 l 2,8,9
 324 445 324 445 333 436 c 2,10,-1
 379 392 l 2,11,12
 389 383 389 383 379 373 c 2,13,-1
 280 274 l 1,14,-1
 389 166 l 2,15,16
 399 157 399 157 389 147 c 0,17,18
 355 113 355 113 331.5 116 c 128,-1,19
 308 119 308 119 276 151 c 2,20,-1
 216 211 l 1,21,-1
 118 112 l 2,22,23
 109 103 109 103 100 112 c 2,24,-1
 55 157 l 2,25,26
 46 166 46 166 55 175 c 2,27,-1
 153 273 l 1,0,-1
EndSplineSet
EndChar

StartChar: Oslash
Encoding: 216 216 149
Width: 612
GlyphClass: 1
Flags: W
LayerCount: 2
Fore
SplineSet
306 -10 m 0,0,1
 179 -10 179 -10 109 67 c 128,-1,2
 39 144 39 144 39 277 c 0,3,4
 39 365 39 365 71 430 c 128,-1,5
 103 495 103 495 162.5 530.5 c 128,-1,6
 222 566 222 566 306 566 c 256,7,8
 390 566 390 566 450 530.5 c 128,-1,9
 510 495 510 495 542 430 c 128,-1,10
 574 365 574 365 574 277 c 0,11,12
 574 144 574 144 504 67 c 128,-1,13
 434 -10 434 -10 306 -10 c 0,0,1
181 171 m 1,14,-1
 357 447 l 1,15,16
 335 454 335 454 306 454 c 0,17,18
 265 454 265 454 232 437 c 128,-1,19
 199 420 199 420 179.5 381 c 128,-1,20
 160 342 160 342 160 277 c 0,21,22
 160 210 160 210 181 171 c 1,14,-1
433 382 m 1,23,-1
 259 108 l 1,24,25
 282 102 282 102 306 102 c 0,26,27
 348 102 348 102 381 118.5 c 128,-1,28
 414 135 414 135 433 173.5 c 128,-1,29
 452 212 452 212 452 277 c 0,30,31
 452 310 452 310 447 336.5 c 128,-1,32
 442 363 442 363 433 382 c 1,23,-1
EndSplineSet
EndChar

StartChar: Ugrave
Encoding: 217 217 150
Width: 530
GlyphClass: 1
Flags: W
LayerCount: 2
Fore
SplineSet
137 683 m 2,0,1
 132 688 132 688 133.5 693.5 c 128,-1,2
 135 699 135 699 142 699 c 2,3,-1
 234 699 l 2,4,5
 251 699 251 699 264 687 c 2,6,-1
 355 604 l 2,7,8
 359 600 359 600 357.5 594.5 c 128,-1,9
 356 589 356 589 349 589 c 2,10,-1
 271 589 l 2,11,12
 248 589 248 589 235 601 c 2,13,-1
 137 683 l 2,0,1
264 -10 m 256,14,15
 192 -10 192 -10 149 13.5 c 128,-1,16
 106 37 106 37 84.5 72 c 128,-1,17
 63 107 63 107 55.5 143.5 c 128,-1,18
 48 180 48 180 48 207 c 2,19,-1
 48 543 l 2,20,21
 48 556 48 556 61 556 c 2,22,-1
 71 556 l 2,23,24
 118 556 118 556 141.5 533.5 c 128,-1,25
 165 511 165 511 165 455 c 2,26,-1
 165 231 l 2,27,28
 165 172 165 172 187 136 c 128,-1,29
 209 100 209 100 264 100 c 256,30,31
 319 100 319 100 342 136 c 128,-1,32
 365 172 365 172 365 230 c 2,33,-1
 365 543 l 2,34,35
 365 556 365 556 378 556 c 2,36,-1
 388 556 l 2,37,38
 435 556 435 556 458.5 533.5 c 128,-1,39
 482 511 482 511 482 455 c 2,40,-1
 482 207 l 2,41,42
 482 180 482 180 474.5 143.5 c 128,-1,43
 467 107 467 107 445 72 c 128,-1,44
 423 37 423 37 379.5 13.5 c 128,-1,45
 336 -10 336 -10 264 -10 c 256,14,15
EndSplineSet
EndChar

StartChar: Uacute
Encoding: 218 218 151
Width: 530
GlyphClass: 1
Flags: W
LayerCount: 2
Fore
SplineSet
161 589 m 2,0,1
 154 589 154 589 152.5 594.5 c 128,-1,2
 151 600 151 600 155 604 c 2,3,-1
 247 687 l 2,4,5
 260 699 260 699 277 699 c 2,6,-1
 368 699 l 2,7,8
 375 699 375 699 376.5 693.5 c 128,-1,9
 378 688 378 688 373 683 c 2,10,-1
 276 601 l 2,11,12
 263 589 263 589 240 589 c 2,13,-1
 161 589 l 2,0,1
264 -10 m 256,14,15
 192 -10 192 -10 149 13.5 c 128,-1,16
 106 37 106 37 84.5 72 c 128,-1,17
 63 107 63 107 55.5 143.5 c 128,-1,18
 48 180 48 180 48 207 c 2,19,-1
 48 543 l 2,20,21
 48 556 48 556 61 556 c 2,22,-1
 71 556 l 2,23,24
 118 556 118 556 141.5 533.5 c 128,-1,25
 165 511 165 511 165 455 c 2,26,-1
 165 231 l 2,27,28
 165 172 165 172 187 136 c 128,-1,29
 209 100 209 100 264 100 c 256,30,31
 319 100 319 100 342 136 c 128,-1,32
 365 172 365 172 365 230 c 2,33,-1
 365 543 l 2,34,35
 365 556 365 556 378 556 c 2,36,-1
 388 556 l 2,37,38
 435 556 435 556 458.5 533.5 c 128,-1,39
 482 511 482 511 482 455 c 2,40,-1
 482 207 l 2,41,42
 482 180 482 180 474.5 143.5 c 128,-1,43
 467 107 467 107 445 72 c 128,-1,44
 423 37 423 37 379.5 13.5 c 128,-1,45
 336 -10 336 -10 264 -10 c 256,14,15
EndSplineSet
EndChar

StartChar: Ucircumflex
Encoding: 219 219 152
Width: 530
GlyphClass: 1
Flags: W
LayerCount: 2
Fore
SplineSet
266 659 m 1,0,-1
 218 603 l 2,1,2
 207 589 207 589 184 589 c 2,3,-1
 115 589 l 2,4,5
 108 589 108 589 106.5 594.5 c 128,-1,6
 105 600 105 600 109 604 c 2,7,-1
 188 687 l 2,8,9
 195 695 195 695 201.5 697 c 128,-1,10
 208 699 208 699 218 699 c 2,11,-1
 312 699 l 2,12,13
 322 699 322 699 328.5 697 c 128,-1,14
 335 695 335 695 342 687 c 2,15,-1
 422 604 l 2,16,17
 425 600 425 600 424 594.5 c 128,-1,18
 423 589 423 589 416 589 c 2,19,-1
 346 589 l 2,20,21
 323 589 323 589 312 603 c 2,22,-1
 266 659 l 1,0,-1
264 -10 m 256,23,24
 192 -10 192 -10 149 13.5 c 128,-1,25
 106 37 106 37 84.5 72 c 128,-1,26
 63 107 63 107 55.5 143.5 c 128,-1,27
 48 180 48 180 48 207 c 2,28,-1
 48 543 l 2,29,30
 48 556 48 556 61 556 c 2,31,-1
 71 556 l 2,32,33
 118 556 118 556 141.5 533.5 c 128,-1,34
 165 511 165 511 165 455 c 2,35,-1
 165 231 l 2,36,37
 165 172 165 172 187 136 c 128,-1,38
 209 100 209 100 264 100 c 256,39,40
 319 100 319 100 342 136 c 128,-1,41
 365 172 365 172 365 230 c 2,42,-1
 365 543 l 2,43,44
 365 556 365 556 378 556 c 2,45,-1
 388 556 l 2,46,47
 435 556 435 556 458.5 533.5 c 128,-1,48
 482 511 482 511 482 455 c 2,49,-1
 482 207 l 2,50,51
 482 180 482 180 474.5 143.5 c 128,-1,52
 467 107 467 107 445 72 c 128,-1,53
 423 37 423 37 379.5 13.5 c 128,-1,54
 336 -10 336 -10 264 -10 c 256,23,24
EndSplineSet
EndChar

StartChar: Udieresis
Encoding: 220 220 153
Width: 530
GlyphClass: 1
Flags: W
LayerCount: 2
Fore
SplineSet
110 640 m 256,0,1
 110 668 110 668 128 686.5 c 128,-1,2
 146 705 146 705 173 705 c 0,3,4
 199 705 199 705 217 686.5 c 128,-1,5
 235 668 235 668 235 640 c 256,6,7
 235 612 235 612 217 594 c 128,-1,8
 199 576 199 576 173 576 c 0,9,10
 146 576 146 576 128 594 c 128,-1,11
 110 612 110 612 110 640 c 256,0,1
286 640 m 256,12,13
 286 668 286 668 304 686.5 c 128,-1,14
 322 705 322 705 349 705 c 0,15,16
 375 705 375 705 393 686.5 c 128,-1,17
 411 668 411 668 411 640 c 256,18,19
 411 612 411 612 393 594 c 128,-1,20
 375 576 375 576 349 576 c 0,21,22
 322 576 322 576 304 594 c 128,-1,23
 286 612 286 612 286 640 c 256,12,13
264 -10 m 256,24,25
 192 -10 192 -10 149 13.5 c 128,-1,26
 106 37 106 37 84.5 72 c 128,-1,27
 63 107 63 107 55.5 143.5 c 128,-1,28
 48 180 48 180 48 207 c 2,29,-1
 48 543 l 2,30,31
 48 556 48 556 61 556 c 2,32,-1
 71 556 l 2,33,34
 118 556 118 556 141.5 533.5 c 128,-1,35
 165 511 165 511 165 455 c 2,36,-1
 165 231 l 2,37,38
 165 172 165 172 187 136 c 128,-1,39
 209 100 209 100 264 100 c 256,40,41
 319 100 319 100 342 136 c 128,-1,42
 365 172 365 172 365 230 c 2,43,-1
 365 543 l 2,44,45
 365 556 365 556 378 556 c 2,46,-1
 388 556 l 2,47,48
 435 556 435 556 458.5 533.5 c 128,-1,49
 482 511 482 511 482 455 c 2,50,-1
 482 207 l 2,51,52
 482 180 482 180 474.5 143.5 c 128,-1,53
 467 107 467 107 445 72 c 128,-1,54
 423 37 423 37 379.5 13.5 c 128,-1,55
 336 -10 336 -10 264 -10 c 256,24,25
EndSplineSet
EndChar

StartChar: Yacute
Encoding: 221 221 154
Width: 485
GlyphClass: 1
Flags: W
LayerCount: 2
Fore
SplineSet
155 589 m 2,0,1
 148 589 148 589 146.5 594.5 c 128,-1,2
 145 600 145 600 149 604 c 2,3,-1
 241 687 l 2,4,5
 253 699 253 699 270 699 c 2,6,-1
 362 699 l 2,7,8
 369 699 369 699 370.5 693.5 c 128,-1,9
 372 688 372 688 367 683 c 2,10,-1
 269 601 l 2,11,12
 262 594 262 594 253 591.5 c 128,-1,13
 244 589 244 589 234 589 c 2,14,-1
 155 589 l 2,0,1
184 203 m 1,15,-1
 4 543 l 2,16,17
 2 548 2 548 3.5 552 c 128,-1,18
 5 556 5 556 12 556 c 2,19,-1
 61 556 l 2,20,21
 96 556 96 556 119.5 542.5 c 128,-1,22
 143 529 143 529 160 495 c 2,23,-1
 247 322 l 1,24,-1
 359 543 l 2,25,26
 365 556 365 556 379 556 c 2,27,-1
 475 556 l 2,28,29
 482 556 482 556 483.5 552 c 128,-1,30
 485 548 485 548 483 543 c 2,31,-1
 301 200 l 1,32,-1
 301 13 l 2,33,34
 301 0 301 0 288 0 c 2,35,-1
 197 0 l 2,36,37
 184 0 184 0 184 13 c 2,38,-1
 184 203 l 1,15,-1
EndSplineSet
EndChar

StartChar: Thorn
Encoding: 222 222 155
Width: 494
GlyphClass: 1
Flags: W
LayerCount: 2
Fore
SplineSet
168 93 m 1,0,-1
 168 13 l 2,1,2
 168 0 168 0 155 0 c 2,3,-1
 64 0 l 2,4,5
 51 0 51 0 51 13 c 2,6,-1
 51 543 l 2,7,8
 51 556 51 556 64 556 c 2,9,-1
 74 556 l 2,10,11
 119 556 119 556 142.5 535.5 c 128,-1,12
 166 515 166 515 168 465 c 1,13,-1
 258 465 l 2,14,15
 371 465 371 465 420 414.5 c 128,-1,16
 469 364 469 364 469 282 c 0,17,18
 469 228 469 228 445.5 185 c 128,-1,19
 422 142 422 142 378.5 117.5 c 128,-1,20
 335 93 335 93 274 93 c 2,21,-1
 168 93 l 1,0,-1
168 202 m 1,22,-1
 268 202 l 2,23,24
 287 202 287 202 306.5 208 c 128,-1,25
 326 214 326 214 339 231 c 128,-1,26
 352 248 352 248 352 281 c 0,27,28
 352 319 352 319 328.5 338 c 128,-1,29
 305 357 305 357 268 357 c 2,30,-1
 168 357 l 1,31,-1
 168 202 l 1,22,-1
EndSplineSet
EndChar

StartChar: germandbls
Encoding: 223 223 156
Width: 477
GlyphClass: 1
Flags: W
LayerCount: 2
Fore
SplineSet
200 112 m 0,0,1
 226 95 226 95 247.5 87 c 128,-1,2
 269 79 269 79 295 79 c 0,3,4
 320 79 320 79 331 88.5 c 128,-1,5
 342 98 342 98 342 112 c 0,6,7
 342 132 342 132 328.5 146 c 128,-1,8
 315 160 315 160 295.5 172.5 c 128,-1,9
 276 185 276 185 256.5 199.5 c 128,-1,10
 237 214 237 214 223.5 234.5 c 128,-1,11
 210 255 210 255 210 285 c 0,12,13
 210 312 210 312 225.5 336.5 c 128,-1,14
 241 361 241 361 256.5 383.5 c 128,-1,15
 272 406 272 406 272 427 c 0,16,17
 272 440 272 440 259 455 c 128,-1,18
 246 470 246 470 214 470 c 0,19,20
 186 470 186 470 170.5 451 c 128,-1,21
 155 432 155 432 155 398 c 2,22,-1
 155 13 l 2,23,24
 155 0 155 0 142 0 c 2,25,-1
 54 0 l 2,26,27
 41 0 41 0 41 13 c 2,28,-1
 41 400 l 2,29,30
 41 479 41 479 90 522.5 c 128,-1,31
 139 566 139 566 215 566 c 0,32,33
 283 566 283 566 320.5 546.5 c 128,-1,34
 358 527 358 527 373 500 c 128,-1,35
 388 473 388 473 388 451 c 0,36,37
 388 430 388 430 378 408.5 c 128,-1,38
 368 387 368 387 354.5 367.5 c 128,-1,39
 341 348 341 348 331 331.5 c 128,-1,40
 321 315 321 315 321 303 c 0,41,42
 321 288 321 288 334.5 276.5 c 128,-1,43
 348 265 348 265 368.5 253 c 128,-1,44
 389 241 389 241 409.5 224.5 c 128,-1,45
 430 208 430 208 443.5 182.5 c 128,-1,46
 457 157 457 157 457 119 c 0,47,48
 457 61 457 61 417.5 25.5 c 128,-1,49
 378 -10 378 -10 314 -10 c 0,50,51
 274 -10 274 -10 243.5 5 c 128,-1,52
 213 20 213 20 196 44 c 128,-1,53
 179 68 179 68 179 94 c 0,54,55
 179 115 179 115 192 115 c 0,56,57
 194 115 194 115 196.5 114 c 128,-1,58
 199 113 199 113 200 112 c 0,0,1
EndSplineSet
EndChar

StartChar: agrave
Encoding: 224 224 157
Width: 468
GlyphClass: 1
Flags: W
LayerCount: 2
Fore
SplineSet
111 524 m 2,0,1
 107 529 107 529 108.5 534.5 c 128,-1,2
 110 540 110 540 116 540 c 2,3,-1
 208 540 l 2,4,5
 225 540 225 540 238 528 c 2,6,-1
 329 445 l 2,7,8
 333 441 333 441 331.5 435.5 c 128,-1,9
 330 430 330 430 323 430 c 2,10,-1
 245 430 l 2,11,12
 222 430 222 430 209 442 c 2,13,-1
 111 524 l 2,0,1
313 43 m 1,14,15
 294 19 294 19 265 5 c 128,-1,16
 236 -9 236 -9 201 -9 c 0,17,18
 144 -9 144 -9 106 18.5 c 128,-1,19
 68 46 68 46 48.5 92 c 128,-1,20
 29 138 29 138 29 194 c 256,21,22
 29 250 29 250 50 295.5 c 128,-1,23
 71 341 71 341 110 367.5 c 128,-1,24
 149 394 149 394 203 394 c 0,25,26
 249 394 249 394 278.5 378 c 128,-1,27
 308 362 308 362 325 343 c 1,28,29
 336 364 336 364 357.5 373 c 128,-1,30
 379 382 379 382 410 382 c 2,31,-1
 415 382 l 2,32,33
 428 382 428 382 428 369 c 2,34,-1
 428 13 l 2,35,36
 428 0 428 0 415 0 c 2,37,-1
 326 0 l 2,38,39
 313 0 313 0 313 13 c 2,40,-1
 313 43 l 1,14,15
232 98 m 256,41,42
 245 98 245 98 264 104.5 c 128,-1,43
 283 111 283 111 298 131.5 c 128,-1,44
 313 152 313 152 313 193 c 256,45,46
 313 234 313 234 298.5 253 c 128,-1,47
 284 272 284 272 265 277.5 c 128,-1,48
 246 283 246 283 232 283 c 0,49,50
 219 283 219 283 199 277.5 c 128,-1,51
 179 272 179 272 163 253 c 128,-1,52
 147 234 147 234 147 193 c 256,53,54
 147 152 147 152 162.5 131.5 c 128,-1,55
 178 111 178 111 198.5 104.5 c 128,-1,56
 219 98 219 98 232 98 c 256,41,42
EndSplineSet
EndChar

StartChar: aacute
Encoding: 225 225 158
Width: 468
GlyphClass: 1
Flags: W
LayerCount: 2
Fore
SplineSet
146 430 m 2,0,1
 139 430 139 430 137.5 435.5 c 128,-1,2
 136 441 136 441 140 445 c 2,3,-1
 232 528 l 2,4,5
 245 540 245 540 262 540 c 2,6,-1
 353 540 l 2,7,8
 360 540 360 540 361.5 534.5 c 128,-1,9
 363 529 363 529 358 524 c 2,10,-1
 261 442 l 2,11,12
 248 430 248 430 225 430 c 2,13,-1
 146 430 l 2,0,1
313 43 m 1,14,15
 294 19 294 19 265 5 c 128,-1,16
 236 -9 236 -9 201 -9 c 0,17,18
 144 -9 144 -9 106 18.5 c 128,-1,19
 68 46 68 46 48.5 92 c 128,-1,20
 29 138 29 138 29 194 c 256,21,22
 29 250 29 250 50 295.5 c 128,-1,23
 71 341 71 341 110 367.5 c 128,-1,24
 149 394 149 394 203 394 c 0,25,26
 249 394 249 394 278.5 378 c 128,-1,27
 308 362 308 362 325 343 c 1,28,29
 336 364 336 364 357.5 373 c 128,-1,30
 379 382 379 382 410 382 c 2,31,-1
 415 382 l 2,32,33
 428 382 428 382 428 369 c 2,34,-1
 428 13 l 2,35,36
 428 0 428 0 415 0 c 2,37,-1
 326 0 l 2,38,39
 313 0 313 0 313 13 c 2,40,-1
 313 43 l 1,14,15
232 98 m 256,41,42
 245 98 245 98 264 104.5 c 128,-1,43
 283 111 283 111 298 131.5 c 128,-1,44
 313 152 313 152 313 193 c 256,45,46
 313 234 313 234 298.5 253 c 128,-1,47
 284 272 284 272 265 277.5 c 128,-1,48
 246 283 246 283 232 283 c 0,49,50
 219 283 219 283 199 277.5 c 128,-1,51
 179 272 179 272 163 253 c 128,-1,52
 147 234 147 234 147 193 c 256,53,54
 147 152 147 152 162.5 131.5 c 128,-1,55
 178 111 178 111 198.5 104.5 c 128,-1,56
 219 98 219 98 232 98 c 256,41,42
EndSplineSet
EndChar

StartChar: acircumflex
Encoding: 226 226 159
Width: 468
GlyphClass: 1
Flags: W
LayerCount: 2
Fore
SplineSet
237 500 m 1,0,-1
 189 444 l 2,1,2
 178 430 178 430 155 430 c 2,3,-1
 86 430 l 2,4,5
 79 430 79 430 77.5 435.5 c 128,-1,6
 76 441 76 441 80 445 c 2,7,-1
 159 528 l 2,8,9
 166 536 166 536 172.5 538 c 128,-1,10
 179 540 179 540 189 540 c 2,11,-1
 283 540 l 2,12,13
 293 540 293 540 299.5 538 c 128,-1,14
 306 536 306 536 313 528 c 2,15,-1
 393 445 l 2,16,17
 396 441 396 441 395 435.5 c 128,-1,18
 394 430 394 430 387 430 c 2,19,-1
 317 430 l 2,20,21
 294 430 294 430 283 444 c 2,22,-1
 237 500 l 1,0,-1
313 43 m 1,23,24
 294 19 294 19 265 5 c 128,-1,25
 236 -9 236 -9 201 -9 c 0,26,27
 144 -9 144 -9 106 18.5 c 128,-1,28
 68 46 68 46 48.5 92 c 128,-1,29
 29 138 29 138 29 194 c 256,30,31
 29 250 29 250 50 295.5 c 128,-1,32
 71 341 71 341 110 367.5 c 128,-1,33
 149 394 149 394 203 394 c 0,34,35
 249 394 249 394 278.5 378 c 128,-1,36
 308 362 308 362 325 343 c 1,37,38
 336 364 336 364 357.5 373 c 128,-1,39
 379 382 379 382 410 382 c 2,40,-1
 415 382 l 2,41,42
 428 382 428 382 428 369 c 2,43,-1
 428 13 l 2,44,45
 428 0 428 0 415 0 c 2,46,-1
 326 0 l 2,47,48
 313 0 313 0 313 13 c 2,49,-1
 313 43 l 1,23,24
232 98 m 256,50,51
 245 98 245 98 264 104.5 c 128,-1,52
 283 111 283 111 298 131.5 c 128,-1,53
 313 152 313 152 313 193 c 256,54,55
 313 234 313 234 298.5 253 c 128,-1,56
 284 272 284 272 265 277.5 c 128,-1,57
 246 283 246 283 232 283 c 0,58,59
 219 283 219 283 199 277.5 c 128,-1,60
 179 272 179 272 163 253 c 128,-1,61
 147 234 147 234 147 193 c 256,62,63
 147 152 147 152 162.5 131.5 c 128,-1,64
 178 111 178 111 198.5 104.5 c 128,-1,65
 219 98 219 98 232 98 c 256,50,51
EndSplineSet
EndChar

StartChar: atilde
Encoding: 227 227 160
Width: 468
GlyphClass: 1
Flags: W
LayerCount: 2
Fore
SplineSet
100 428 m 2,0,1
 89 428 89 428 89 441 c 0,2,3
 92 490 92 490 111.5 516 c 128,-1,4
 131 542 131 542 167 542 c 0,5,6
 193 542 193 542 215.5 534 c 128,-1,7
 238 526 238 526 257.5 517.5 c 128,-1,8
 277 509 277 509 294 509 c 0,9,10
 312 509 312 509 316 533 c 0,11,12
 318 545 318 545 329 545 c 2,13,-1
 377 545 l 2,14,15
 390 545 390 545 388 532 c 0,16,17
 383 483 383 483 365 458.5 c 128,-1,18
 347 434 347 434 302 434 c 0,19,20
 282 434 282 434 260 441.5 c 128,-1,21
 238 449 238 449 218.5 456.5 c 128,-1,22
 199 464 199 464 184 464 c 0,23,24
 171 464 171 464 166.5 456.5 c 128,-1,25
 162 449 162 449 160 440 c 0,26,27
 159 428 159 428 147 428 c 2,28,-1
 100 428 l 2,0,1
313 43 m 1,29,30
 294 19 294 19 265 5 c 128,-1,31
 236 -9 236 -9 201 -9 c 0,32,33
 144 -9 144 -9 106 18.5 c 128,-1,34
 68 46 68 46 48.5 92 c 128,-1,35
 29 138 29 138 29 194 c 256,36,37
 29 250 29 250 50 295.5 c 128,-1,38
 71 341 71 341 110 367.5 c 128,-1,39
 149 394 149 394 203 394 c 0,40,41
 249 394 249 394 278.5 378 c 128,-1,42
 308 362 308 362 325 343 c 1,43,44
 336 364 336 364 357.5 373 c 128,-1,45
 379 382 379 382 410 382 c 2,46,-1
 415 382 l 2,47,48
 428 382 428 382 428 369 c 2,49,-1
 428 13 l 2,50,51
 428 0 428 0 415 0 c 2,52,-1
 326 0 l 2,53,54
 313 0 313 0 313 13 c 2,55,-1
 313 43 l 1,29,30
232 98 m 256,56,57
 245 98 245 98 264 104.5 c 128,-1,58
 283 111 283 111 298 131.5 c 128,-1,59
 313 152 313 152 313 193 c 256,60,61
 313 234 313 234 298.5 253 c 128,-1,62
 284 272 284 272 265 277.5 c 128,-1,63
 246 283 246 283 232 283 c 0,64,65
 219 283 219 283 199 277.5 c 128,-1,66
 179 272 179 272 163 253 c 128,-1,67
 147 234 147 234 147 193 c 256,68,69
 147 152 147 152 162.5 131.5 c 128,-1,70
 178 111 178 111 198.5 104.5 c 128,-1,71
 219 98 219 98 232 98 c 256,56,57
EndSplineSet
EndChar

StartChar: adieresis
Encoding: 228 228 161
Width: 468
GlyphClass: 1
Flags: W
LayerCount: 2
Fore
SplineSet
80 481 m 256,0,1
 80 509 80 509 98.5 527.5 c 128,-1,2
 117 546 117 546 143 546 c 256,3,4
 169 546 169 546 187 527.5 c 128,-1,5
 205 509 205 509 205 481 c 256,6,7
 205 453 205 453 187 435 c 128,-1,8
 169 417 169 417 143 417 c 256,9,10
 117 417 117 417 98.5 435 c 128,-1,11
 80 453 80 453 80 481 c 256,0,1
256 481 m 256,12,13
 256 509 256 509 274 527.5 c 128,-1,14
 292 546 292 546 319 546 c 0,15,16
 345 546 345 546 363 527.5 c 128,-1,17
 381 509 381 509 381 481 c 256,18,19
 381 453 381 453 363 435 c 128,-1,20
 345 417 345 417 319 417 c 0,21,22
 292 417 292 417 274 435 c 128,-1,23
 256 453 256 453 256 481 c 256,12,13
313 43 m 1,24,25
 294 19 294 19 265 5 c 128,-1,26
 236 -9 236 -9 201 -9 c 0,27,28
 144 -9 144 -9 106 18.5 c 128,-1,29
 68 46 68 46 48.5 92 c 128,-1,30
 29 138 29 138 29 194 c 256,31,32
 29 250 29 250 50 295.5 c 128,-1,33
 71 341 71 341 110 367.5 c 128,-1,34
 149 394 149 394 203 394 c 0,35,36
 249 394 249 394 278.5 378 c 128,-1,37
 308 362 308 362 325 343 c 1,38,39
 336 364 336 364 357.5 373 c 128,-1,40
 379 382 379 382 410 382 c 2,41,-1
 415 382 l 2,42,43
 428 382 428 382 428 369 c 2,44,-1
 428 13 l 2,45,46
 428 0 428 0 415 0 c 2,47,-1
 326 0 l 2,48,49
 313 0 313 0 313 13 c 2,50,-1
 313 43 l 1,24,25
232 98 m 256,51,52
 245 98 245 98 264 104.5 c 128,-1,53
 283 111 283 111 298 131.5 c 128,-1,54
 313 152 313 152 313 193 c 256,55,56
 313 234 313 234 298.5 253 c 128,-1,57
 284 272 284 272 265 277.5 c 128,-1,58
 246 283 246 283 232 283 c 0,59,60
 219 283 219 283 199 277.5 c 128,-1,61
 179 272 179 272 163 253 c 128,-1,62
 147 234 147 234 147 193 c 256,63,64
 147 152 147 152 162.5 131.5 c 128,-1,65
 178 111 178 111 198.5 104.5 c 128,-1,66
 219 98 219 98 232 98 c 256,51,52
EndSplineSet
EndChar

StartChar: aring
Encoding: 229 229 162
Width: 468
GlyphClass: 1
Flags: W
LayerCount: 2
Fore
SplineSet
147 498 m 256,0,1
 147 532 147 532 171 555 c 128,-1,2
 195 578 195 578 229 578 c 0,3,4
 262 578 262 578 285.5 555 c 128,-1,5
 309 532 309 532 309 498 c 256,6,7
 309 464 309 464 285.5 440.5 c 128,-1,8
 262 417 262 417 229 417 c 0,9,10
 195 417 195 417 171 440.5 c 128,-1,11
 147 464 147 464 147 498 c 256,0,1
229 464 m 256,12,13
 243 464 243 464 252.5 474 c 128,-1,14
 262 484 262 484 262 498 c 256,15,16
 262 512 262 512 252.5 522 c 128,-1,17
 243 532 243 532 229 532 c 256,18,19
 215 532 215 532 205.5 522 c 128,-1,20
 196 512 196 512 196 498 c 256,21,22
 196 484 196 484 205.5 474 c 128,-1,23
 215 464 215 464 229 464 c 256,12,13
313 43 m 1,24,25
 294 19 294 19 265 5 c 128,-1,26
 236 -9 236 -9 201 -9 c 0,27,28
 144 -9 144 -9 106 18.5 c 128,-1,29
 68 46 68 46 48.5 92 c 128,-1,30
 29 138 29 138 29 194 c 256,31,32
 29 250 29 250 50 295.5 c 128,-1,33
 71 341 71 341 110 367.5 c 128,-1,34
 149 394 149 394 203 394 c 0,35,36
 249 394 249 394 278.5 378 c 128,-1,37
 308 362 308 362 325 343 c 1,38,39
 336 364 336 364 357.5 373 c 128,-1,40
 379 382 379 382 410 382 c 2,41,-1
 415 382 l 2,42,43
 428 382 428 382 428 369 c 2,44,-1
 428 13 l 2,45,46
 428 0 428 0 415 0 c 2,47,-1
 326 0 l 2,48,49
 313 0 313 0 313 13 c 2,50,-1
 313 43 l 1,24,25
232 98 m 256,51,52
 245 98 245 98 264 104.5 c 128,-1,53
 283 111 283 111 298 131.5 c 128,-1,54
 313 152 313 152 313 193 c 256,55,56
 313 234 313 234 298.5 253 c 128,-1,57
 284 272 284 272 265 277.5 c 128,-1,58
 246 283 246 283 232 283 c 0,59,60
 219 283 219 283 199 277.5 c 128,-1,61
 179 272 179 272 163 253 c 128,-1,62
 147 234 147 234 147 193 c 256,63,64
 147 152 147 152 162.5 131.5 c 128,-1,65
 178 111 178 111 198.5 104.5 c 128,-1,66
 219 98 219 98 232 98 c 256,51,52
EndSplineSet
EndChar

StartChar: ae
Encoding: 230 230 163
Width: 760
GlyphClass: 1
Flags: W
LayerCount: 2
Fore
SplineSet
424 45 m 1,0,-1
 424 13 l 2,1,2
 424 0 424 0 411 0 c 2,3,-1
 329 0 l 2,4,5
 316 0 316 0 316 13 c 2,6,-1
 316 43 l 1,7,8
 297 19 297 19 266.5 5 c 128,-1,9
 236 -9 236 -9 201 -9 c 0,10,11
 144 -9 144 -9 106 18.5 c 128,-1,12
 68 46 68 46 48.5 92 c 128,-1,13
 29 138 29 138 29 194 c 256,14,15
 29 250 29 250 50 295.5 c 128,-1,16
 71 341 71 341 110 367.5 c 128,-1,17
 149 394 149 394 203 394 c 0,18,19
 250 394 250 394 279.5 377.5 c 128,-1,20
 309 361 309 361 326 341 c 1,21,22
 346 382 346 382 410 382 c 2,23,-1
 411 382 l 2,24,25
 424 382 424 382 424 369 c 2,26,-1
 424 341 l 1,27,28
 447 366 447 366 481 380 c 128,-1,29
 515 394 515 394 559 394 c 0,30,31
 620 394 620 394 658.5 369 c 128,-1,32
 697 344 697 344 715.5 304.5 c 128,-1,33
 734 265 734 265 734 221 c 0,34,35
 734 202 734 202 733.5 189 c 128,-1,36
 733 176 733 176 732 167 c 0,37,38
 731 152 731 152 713 152 c 2,39,-1
 485 152 l 1,40,41
 497 87 497 87 584 87 c 0,42,43
 618 87 618 87 643 92.5 c 128,-1,44
 668 98 668 98 697 111 c 0,45,46
 709 116 709 116 714 116 c 0,47,48
 726 116 726 116 726 101 c 0,49,50
 726 81 726 81 711.5 55 c 128,-1,51
 697 29 697 29 663 10 c 128,-1,52
 629 -9 629 -9 568 -9 c 0,53,54
 475 -9 475 -9 424 45 c 1,0,-1
486 232 m 1,55,-1
 620 232 l 1,56,57
 622 244 622 244 617 259 c 128,-1,58
 612 274 612 274 598.5 285 c 128,-1,59
 585 296 585 296 559 296 c 0,60,61
 525 296 525 296 506.5 278.5 c 128,-1,62
 488 261 488 261 486 232 c 1,55,-1
232 98 m 256,63,64
 245 98 245 98 264 104.5 c 128,-1,65
 283 111 283 111 298 131.5 c 128,-1,66
 313 152 313 152 313 193 c 256,67,68
 313 234 313 234 298.5 253 c 128,-1,69
 284 272 284 272 265 277.5 c 128,-1,70
 246 283 246 283 232 283 c 0,71,72
 219 283 219 283 199 277.5 c 128,-1,73
 179 272 179 272 163 253 c 128,-1,74
 147 234 147 234 147 193 c 256,75,76
 147 152 147 152 162.5 131.5 c 128,-1,77
 178 111 178 111 198.5 104.5 c 128,-1,78
 219 98 219 98 232 98 c 256,63,64
EndSplineSet
EndChar

StartChar: ccedilla
Encoding: 231 231 164
Width: 368
GlyphClass: 1
Flags: W
LayerCount: 2
Fore
SplineSet
259 -5 m 1,0,-1
 212 -102 l 2,1,2
 208 -112 208 -112 200 -115.5 c 128,-1,3
 192 -119 192 -119 181 -119 c 2,4,-1
 108 -119 l 2,5,6
 101 -119 101 -119 100 -114 c 128,-1,7
 99 -109 99 -109 102 -104 c 2,8,-1
 165 -5 l 1,9,10
 103 9 103 9 66 59.5 c 128,-1,11
 29 110 29 110 29 192 c 0,12,13
 29 287 29 287 83 340 c 128,-1,14
 137 393 137 393 225 393 c 0,15,16
 265 393 265 393 299 381 c 0,17,18
 329 371 329 371 337.5 351 c 128,-1,19
 346 331 346 331 338 296 c 2,20,-1
 332 271 l 2,21,22
 329 261 329 261 323 261 c 0,23,24
 318 261 318 261 312 264 c 0,25,26
 289 275 289 275 272 280 c 128,-1,27
 255 285 255 285 232 285 c 0,28,29
 198 285 198 285 172.5 262 c 128,-1,30
 147 239 147 239 147 189 c 0,31,32
 147 143 147 143 171 115.5 c 128,-1,33
 195 88 195 88 245 88 c 0,34,35
 274 88 274 88 295 97.5 c 128,-1,36
 316 107 316 107 327 114 c 0,37,38
 336 120 336 120 341 120 c 0,39,40
 352 120 352 120 352 104 c 0,41,42
 352 87 352 87 344 64.5 c 128,-1,43
 336 42 336 42 316 23 c 128,-1,44
 296 4 296 4 259 -5 c 1,0,-1
EndSplineSet
EndChar

StartChar: egrave
Encoding: 232 232 165
Width: 422
GlyphClass: 1
Flags: W
LayerCount: 2
Fore
SplineSet
83 524 m 2,0,1
 78 529 78 529 79.5 534.5 c 128,-1,2
 81 540 81 540 88 540 c 2,3,-1
 179 540 l 2,4,5
 196 540 196 540 209 528 c 2,6,-1
 300 445 l 2,7,8
 304 441 304 441 302.5 435.5 c 128,-1,9
 301 430 301 430 294 430 c 2,10,-1
 216 430 l 2,11,12
 193 430 193 430 180 442 c 2,13,-1
 83 524 l 2,0,1
147 151 m 1,14,15
 159 86 159 86 246 86 c 0,16,17
 280 86 280 86 305 91.5 c 128,-1,18
 330 97 330 97 359 110 c 0,19,20
 371 115 371 115 376 115 c 0,21,22
 388 115 388 115 388 100 c 0,23,24
 388 80 388 80 373.5 54 c 128,-1,25
 359 28 359 28 325 9 c 128,-1,26
 291 -10 291 -10 230 -10 c 0,27,28
 139 -10 139 -10 84 44.5 c 128,-1,29
 29 99 29 99 29 193 c 0,30,31
 29 251 29 251 52 296 c 128,-1,32
 75 341 75 341 118 367 c 128,-1,33
 161 393 161 393 221 393 c 0,34,35
 282 393 282 393 320.5 368 c 128,-1,36
 359 343 359 343 377.5 303.5 c 128,-1,37
 396 264 396 264 396 220 c 0,38,39
 396 201 396 201 395.5 188 c 128,-1,40
 395 175 395 175 394 166 c 0,41,42
 393 151 393 151 375 151 c 2,43,-1
 147 151 l 1,14,15
148 231 m 1,44,-1
 282 231 l 1,45,46
 284 243 284 243 279 258 c 128,-1,47
 274 273 274 273 260.5 284 c 128,-1,48
 247 295 247 295 221 295 c 0,49,50
 187 295 187 295 168.5 277.5 c 128,-1,51
 150 260 150 260 148 231 c 1,44,-1
EndSplineSet
EndChar

StartChar: eacute
Encoding: 233 233 166
Width: 422
GlyphClass: 1
Flags: W
LayerCount: 2
Fore
SplineSet
116 430 m 2,0,1
 110 430 110 430 108.5 435.5 c 128,-1,2
 107 441 107 441 110 445 c 2,3,-1
 202 528 l 2,4,5
 215 540 215 540 232 540 c 2,6,-1
 323 540 l 2,7,8
 330 540 330 540 331.5 534.5 c 128,-1,9
 333 529 333 529 328 524 c 2,10,-1
 231 442 l 2,11,12
 218 430 218 430 195 430 c 2,13,-1
 116 430 l 2,0,1
147 151 m 1,14,15
 159 86 159 86 246 86 c 0,16,17
 280 86 280 86 305 91.5 c 128,-1,18
 330 97 330 97 359 110 c 0,19,20
 371 115 371 115 376 115 c 0,21,22
 388 115 388 115 388 100 c 0,23,24
 388 80 388 80 373.5 54 c 128,-1,25
 359 28 359 28 325 9 c 128,-1,26
 291 -10 291 -10 230 -10 c 0,27,28
 139 -10 139 -10 84 44.5 c 128,-1,29
 29 99 29 99 29 193 c 0,30,31
 29 251 29 251 52 296 c 128,-1,32
 75 341 75 341 118 367 c 128,-1,33
 161 393 161 393 221 393 c 0,34,35
 282 393 282 393 320.5 368 c 128,-1,36
 359 343 359 343 377.5 303.5 c 128,-1,37
 396 264 396 264 396 220 c 0,38,39
 396 201 396 201 395.5 188 c 128,-1,40
 395 175 395 175 394 166 c 0,41,42
 393 151 393 151 375 151 c 2,43,-1
 147 151 l 1,14,15
148 231 m 1,44,-1
 282 231 l 1,45,46
 284 243 284 243 279 258 c 128,-1,47
 274 273 274 273 260.5 284 c 128,-1,48
 247 295 247 295 221 295 c 0,49,50
 187 295 187 295 168.5 277.5 c 128,-1,51
 150 260 150 260 148 231 c 1,44,-1
EndSplineSet
EndChar

StartChar: ecircumflex
Encoding: 234 234 167
Width: 422
GlyphClass: 1
Flags: W
LayerCount: 2
Fore
SplineSet
219 500 m 1,0,-1
 171 444 l 2,1,2
 160 430 160 430 137 430 c 2,3,-1
 68 430 l 2,4,5
 61 430 61 430 59.5 435.5 c 128,-1,6
 58 441 58 441 62 445 c 2,7,-1
 141 528 l 2,8,9
 148 536 148 536 154.5 538 c 128,-1,10
 161 540 161 540 171 540 c 2,11,-1
 266 540 l 2,12,13
 275 540 275 540 281.5 538 c 128,-1,14
 288 536 288 536 295 528 c 2,15,-1
 375 445 l 2,16,17
 378 441 378 441 377 435.5 c 128,-1,18
 376 430 376 430 369 430 c 2,19,-1
 299 430 l 2,20,21
 276 430 276 430 266 444 c 2,22,-1
 219 500 l 1,0,-1
147 151 m 1,23,24
 159 86 159 86 246 86 c 0,25,26
 280 86 280 86 305 91.5 c 128,-1,27
 330 97 330 97 359 110 c 0,28,29
 371 115 371 115 376 115 c 0,30,31
 388 115 388 115 388 100 c 0,32,33
 388 80 388 80 373.5 54 c 128,-1,34
 359 28 359 28 325 9 c 128,-1,35
 291 -10 291 -10 230 -10 c 0,36,37
 139 -10 139 -10 84 44.5 c 128,-1,38
 29 99 29 99 29 193 c 0,39,40
 29 251 29 251 52 296 c 128,-1,41
 75 341 75 341 118 367 c 128,-1,42
 161 393 161 393 221 393 c 0,43,44
 282 393 282 393 320.5 368 c 128,-1,45
 359 343 359 343 377.5 303.5 c 128,-1,46
 396 264 396 264 396 220 c 0,47,48
 396 201 396 201 395.5 188 c 128,-1,49
 395 175 395 175 394 166 c 0,50,51
 393 151 393 151 375 151 c 2,52,-1
 147 151 l 1,23,24
148 231 m 1,53,-1
 282 231 l 1,54,55
 284 243 284 243 279 258 c 128,-1,56
 274 273 274 273 260.5 284 c 128,-1,57
 247 295 247 295 221 295 c 0,58,59
 187 295 187 295 168.5 277.5 c 128,-1,60
 150 260 150 260 148 231 c 1,53,-1
EndSplineSet
EndChar

StartChar: edieresis
Encoding: 235 235 168
Width: 422
GlyphClass: 1
Flags: W
LayerCount: 2
Fore
SplineSet
69 481 m 256,0,1
 69 509 69 509 87.5 527.5 c 128,-1,2
 106 546 106 546 132 546 c 256,3,4
 158 546 158 546 176 527.5 c 128,-1,5
 194 509 194 509 194 481 c 256,6,7
 194 453 194 453 176 435 c 128,-1,8
 158 417 158 417 132 417 c 256,9,10
 106 417 106 417 87.5 435 c 128,-1,11
 69 453 69 453 69 481 c 256,0,1
245 481 m 256,12,13
 245 509 245 509 263 527.5 c 128,-1,14
 281 546 281 546 308 546 c 0,15,16
 334 546 334 546 352 527.5 c 128,-1,17
 370 509 370 509 370 481 c 256,18,19
 370 453 370 453 352 435 c 128,-1,20
 334 417 334 417 308 417 c 0,21,22
 281 417 281 417 263 435 c 128,-1,23
 245 453 245 453 245 481 c 256,12,13
147 151 m 1,24,25
 159 86 159 86 246 86 c 0,26,27
 280 86 280 86 305 91.5 c 128,-1,28
 330 97 330 97 359 110 c 0,29,30
 371 115 371 115 376 115 c 0,31,32
 388 115 388 115 388 100 c 0,33,34
 388 80 388 80 373.5 54 c 128,-1,35
 359 28 359 28 325 9 c 128,-1,36
 291 -10 291 -10 230 -10 c 0,37,38
 139 -10 139 -10 84 44.5 c 128,-1,39
 29 99 29 99 29 193 c 0,40,41
 29 251 29 251 52 296 c 128,-1,42
 75 341 75 341 118 367 c 128,-1,43
 161 393 161 393 221 393 c 0,44,45
 282 393 282 393 320.5 368 c 128,-1,46
 359 343 359 343 377.5 303.5 c 128,-1,47
 396 264 396 264 396 220 c 0,48,49
 396 201 396 201 395.5 188 c 128,-1,50
 395 175 395 175 394 166 c 0,51,52
 393 151 393 151 375 151 c 2,53,-1
 147 151 l 1,24,25
148 231 m 1,54,-1
 282 231 l 1,55,56
 284 243 284 243 279 258 c 128,-1,57
 274 273 274 273 260.5 284 c 128,-1,58
 247 295 247 295 221 295 c 0,59,60
 187 295 187 295 168.5 277.5 c 128,-1,61
 150 260 150 260 148 231 c 1,54,-1
EndSplineSet
EndChar

StartChar: igrave
Encoding: 236 236 169
Width: 196
GlyphClass: 1
Flags: W
LayerCount: 2
Fore
SplineSet
-10 524 m 2,0,1
 -15 529 -15 529 -13.5 534.5 c 128,-1,2
 -12 540 -12 540 -5 540 c 2,3,-1
 86 540 l 2,4,5
 103 540 103 540 116 528 c 2,6,-1
 208 445 l 2,7,8
 212 441 212 441 210.5 435.5 c 128,-1,9
 209 430 209 430 202 430 c 2,10,-1
 123 430 l 2,11,12
 100 430 100 430 87 442 c 2,13,-1
 -10 524 l 2,0,1
42 13 m 2,14,-1
 42 369 l 2,15,16
 42 382 42 382 55 382 c 2,17,-1
 60 382 l 2,18,19
 107 382 107 382 131.5 360 c 128,-1,20
 156 338 156 338 156 284 c 2,21,-1
 156 13 l 2,22,23
 156 0 156 0 143 0 c 2,24,-1
 55 0 l 2,25,26
 42 0 42 0 42 13 c 2,14,-1
EndSplineSet
EndChar

StartChar: iacute
Encoding: 237 237 170
Width: 196
GlyphClass: 1
Flags: W
LayerCount: 2
Fore
SplineSet
-6 430 m 2,0,1
 -13 430 -13 430 -14.5 435.5 c 128,-1,2
 -16 441 -16 441 -12 445 c 2,3,-1
 79 528 l 2,4,5
 92 540 92 540 109 540 c 2,6,-1
 201 540 l 2,7,8
 208 540 208 540 209.5 534.5 c 128,-1,9
 211 529 211 529 206 524 c 2,10,-1
 108 442 l 2,11,12
 95 430 95 430 72 430 c 2,13,-1
 -6 430 l 2,0,1
42 13 m 2,14,-1
 42 369 l 2,15,16
 42 382 42 382 55 382 c 2,17,-1
 60 382 l 2,18,19
 107 382 107 382 131.5 360 c 128,-1,20
 156 338 156 338 156 284 c 2,21,-1
 156 13 l 2,22,23
 156 0 156 0 143 0 c 2,24,-1
 55 0 l 2,25,26
 42 0 42 0 42 13 c 2,14,-1
EndSplineSet
EndChar

StartChar: icircumflex
Encoding: 238 238 171
Width: 196
GlyphClass: 1
Flags: W
LayerCount: 2
Fore
SplineSet
99 500 m 1,0,-1
 51 444 l 2,1,2
 40 430 40 430 17 430 c 2,3,-1
 -52 430 l 2,4,5
 -59 430 -59 430 -60.5 435.5 c 128,-1,6
 -62 441 -62 441 -58 445 c 2,7,-1
 21 528 l 2,8,9
 28 536 28 536 34.5 538 c 128,-1,10
 41 540 41 540 51 540 c 2,11,-1
 146 540 l 2,12,13
 156 540 156 540 162.5 538 c 128,-1,14
 169 536 169 536 176 528 c 2,15,-1
 255 445 l 2,16,17
 258 441 258 441 257 435.5 c 128,-1,18
 256 430 256 430 249 430 c 2,19,-1
 179 430 l 2,20,21
 157 430 157 430 146 444 c 2,22,-1
 99 500 l 1,0,-1
41 13 m 2,23,-1
 41 369 l 2,24,25
 41 382 41 382 54 382 c 2,26,-1
 59 382 l 2,27,28
 107 382 107 382 131.5 360 c 128,-1,29
 156 338 156 338 156 284 c 2,30,-1
 156 13 l 2,31,32
 156 0 156 0 143 0 c 2,33,-1
 54 0 l 2,34,35
 41 0 41 0 41 13 c 2,23,-1
EndSplineSet
EndChar

StartChar: idieresis
Encoding: 239 239 172
Width: 196
GlyphClass: 1
Flags: W
LayerCount: 2
Fore
SplineSet
-53 481 m 256,0,1
 -53 509 -53 509 -34.5 527.5 c 128,-1,2
 -16 546 -16 546 11 546 c 0,3,4
 37 546 37 546 54.5 527.5 c 128,-1,5
 72 509 72 509 72 481 c 256,6,7
 72 453 72 453 54.5 435 c 128,-1,8
 37 417 37 417 11 417 c 0,9,10
 -16 417 -16 417 -34.5 435 c 128,-1,11
 -53 453 -53 453 -53 481 c 256,0,1
123 481 m 256,12,13
 123 509 123 509 141.5 527.5 c 128,-1,14
 160 546 160 546 187 546 c 0,15,16
 213 546 213 546 230.5 527.5 c 128,-1,17
 248 509 248 509 248 481 c 256,18,19
 248 453 248 453 230.5 435 c 128,-1,20
 213 417 213 417 187 417 c 0,21,22
 160 417 160 417 141.5 435 c 128,-1,23
 123 453 123 453 123 481 c 256,12,13
40 13 m 2,24,-1
 40 369 l 2,25,26
 40 382 40 382 53 382 c 2,27,-1
 58 382 l 2,28,29
 106 382 106 382 130.5 360 c 128,-1,30
 155 338 155 338 155 284 c 2,31,-1
 155 13 l 2,32,33
 155 0 155 0 142 0 c 2,34,-1
 53 0 l 2,35,36
 40 0 40 0 40 13 c 2,24,-1
EndSplineSet
EndChar

StartChar: eth
Encoding: 240 240 173
Width: 448
GlyphClass: 1
Flags: W
LayerCount: 2
Fore
SplineSet
222 382 m 1,0,-1
 189 428 l 1,1,-1
 134 401 l 2,2,3
 125 396 125 396 117 405 c 2,4,-1
 102 429 l 2,5,6
 96 438 96 438 106 444 c 2,7,-1
 159 472 l 1,8,-1
 111 543 l 2,9,10
 109 548 109 548 110.5 552 c 128,-1,11
 112 556 112 556 117 556 c 2,12,-1
 150 556 l 2,13,14
 190 556 190 556 210 550 c 128,-1,15
 230 544 230 544 250 519 c 1,16,-1
 298 544 l 2,17,18
 308 550 308 550 315 539 c 2,19,-1
 331 515 l 2,20,21
 338 504 338 504 328 500 c 2,22,-1
 280 476 l 1,23,-1
 377 335 l 2,24,25
 420 273 420 273 420 196 c 0,26,27
 420 104 420 104 369.5 47 c 128,-1,28
 319 -10 319 -10 225 -10 c 0,29,30
 136 -10 136 -10 82.5 44.5 c 128,-1,31
 29 99 29 99 29 187 c 0,32,33
 29 276 29 276 81.5 329 c 128,-1,34
 134 382 134 382 222 382 c 1,0,-1
223 95 m 0,35,36
 254 95 254 95 278.5 114 c 128,-1,37
 303 133 303 133 303 185 c 0,38,39
 303 235 303 235 279.5 255.5 c 128,-1,40
 256 276 256 276 224 276 c 0,41,42
 193 276 193 276 169 255.5 c 128,-1,43
 145 235 145 235 145 185 c 0,44,45
 145 133 145 133 169 114 c 128,-1,46
 193 95 193 95 223 95 c 0,35,36
EndSplineSet
EndChar

StartChar: ntilde
Encoding: 241 241 174
Width: 447
GlyphClass: 1
Flags: W
LayerCount: 2
Fore
SplineSet
86 428 m 2,0,1
 75 428 75 428 75 441 c 0,2,3
 78 490 78 490 98 516 c 128,-1,4
 118 542 118 542 153 542 c 0,5,6
 179 542 179 542 201.5 534 c 128,-1,7
 224 526 224 526 244 517.5 c 128,-1,8
 264 509 264 509 281 509 c 256,9,10
 298 509 298 509 302 533 c 0,11,12
 304 545 304 545 315 545 c 2,13,-1
 363 545 l 2,14,15
 376 545 376 545 374 532 c 0,16,17
 369 483 369 483 351 458.5 c 128,-1,18
 333 434 333 434 288 434 c 0,19,20
 268 434 268 434 246 441.5 c 128,-1,21
 224 449 224 449 204.5 456.5 c 128,-1,22
 185 464 185 464 170 464 c 0,23,24
 157 464 157 464 152.5 456.5 c 128,-1,25
 148 449 148 449 146 440 c 0,26,27
 145 428 145 428 133 428 c 2,28,-1
 86 428 l 2,0,1
147 335 m 1,29,30
 167 362 167 362 196 376.5 c 128,-1,31
 225 391 225 391 256 391 c 0,32,33
 327 391 327 391 368 348.5 c 128,-1,34
 409 306 409 306 409 217 c 2,35,-1
 409 13 l 2,36,37
 409 0 409 0 396 0 c 2,38,-1
 307 0 l 2,39,40
 294 0 294 0 294 13 c 2,41,-1
 294 205 l 2,42,43
 294 251 294 251 272.5 268 c 128,-1,44
 251 285 251 285 224 285 c 256,45,46
 197 285 197 285 176 268 c 128,-1,47
 155 251 155 251 155 206 c 2,48,-1
 155 13 l 2,49,50
 155 0 155 0 142 0 c 2,51,-1
 54 0 l 2,52,53
 41 0 41 0 41 13 c 2,54,-1
 41 369 l 2,55,56
 41 382 41 382 54 382 c 2,57,-1
 59 382 l 2,58,59
 94 382 94 382 115.5 371.5 c 128,-1,60
 137 361 137 361 147 335 c 1,29,30
EndSplineSet
EndChar

StartChar: ograve
Encoding: 242 242 175
Width: 455
GlyphClass: 1
Flags: W
LayerCount: 2
Fore
SplineSet
109 524 m 2,0,1
 104 529 104 529 105.5 534.5 c 128,-1,2
 107 540 107 540 113 540 c 2,3,-1
 205 540 l 2,4,5
 222 540 222 540 235 528 c 2,6,-1
 326 445 l 2,7,8
 330 441 330 441 328.5 435.5 c 128,-1,9
 327 430 327 430 320 430 c 2,10,-1
 242 430 l 2,11,12
 219 430 219 430 206 442 c 2,13,-1
 109 524 l 2,0,1
229 -10 m 0,14,15
 138 -10 138 -10 83.5 45.5 c 128,-1,16
 29 101 29 101 29 192 c 256,17,18
 29 283 29 283 82.5 338 c 128,-1,19
 136 393 136 393 227 393 c 0,20,21
 319 393 319 393 373 338 c 128,-1,22
 427 283 427 283 427 192 c 256,23,24
 427 101 427 101 374 45.5 c 128,-1,25
 321 -10 321 -10 229 -10 c 0,14,15
227 98 m 256,26,27
 258 98 258 98 283 117.5 c 128,-1,28
 308 137 308 137 308 190 c 0,29,30
 308 242 308 242 283.5 263 c 128,-1,31
 259 284 259 284 228 284 c 256,32,33
 197 284 197 284 172 263 c 128,-1,34
 147 242 147 242 147 190 c 0,35,36
 147 137 147 137 171.5 117.5 c 128,-1,37
 196 98 196 98 227 98 c 256,26,27
EndSplineSet
EndChar

StartChar: oacute
Encoding: 243 243 176
Width: 455
GlyphClass: 1
Flags: W
LayerCount: 2
Fore
SplineSet
133 430 m 2,0,1
 126 430 126 430 124.5 435.5 c 128,-1,2
 123 441 123 441 127 445 c 2,3,-1
 219 528 l 2,4,5
 232 540 232 540 249 540 c 2,6,-1
 340 540 l 2,7,8
 347 540 347 540 348.5 534.5 c 128,-1,9
 350 529 350 529 345 524 c 2,10,-1
 248 442 l 2,11,12
 235 430 235 430 212 430 c 2,13,-1
 133 430 l 2,0,1
229 -10 m 0,14,15
 138 -10 138 -10 83.5 45.5 c 128,-1,16
 29 101 29 101 29 192 c 256,17,18
 29 283 29 283 82.5 338 c 128,-1,19
 136 393 136 393 227 393 c 0,20,21
 319 393 319 393 373 338 c 128,-1,22
 427 283 427 283 427 192 c 256,23,24
 427 101 427 101 374 45.5 c 128,-1,25
 321 -10 321 -10 229 -10 c 0,14,15
227 98 m 256,26,27
 258 98 258 98 283 117.5 c 128,-1,28
 308 137 308 137 308 190 c 0,29,30
 308 242 308 242 283.5 263 c 128,-1,31
 259 284 259 284 228 284 c 256,32,33
 197 284 197 284 172 263 c 128,-1,34
 147 242 147 242 147 190 c 0,35,36
 147 137 147 137 171.5 117.5 c 128,-1,37
 196 98 196 98 227 98 c 256,26,27
EndSplineSet
EndChar

StartChar: ocircumflex
Encoding: 244 244 177
Width: 455
GlyphClass: 1
Flags: W
LayerCount: 2
Fore
SplineSet
229 500 m 1,0,-1
 181 444 l 2,1,2
 170 430 170 430 147 430 c 2,3,-1
 78 430 l 2,4,5
 71 430 71 430 69.5 435.5 c 128,-1,6
 68 441 68 441 72 445 c 2,7,-1
 151 528 l 2,8,9
 158 536 158 536 164.5 538 c 128,-1,10
 171 540 171 540 181 540 c 2,11,-1
 275 540 l 2,12,13
 285 540 285 540 291.5 538 c 128,-1,14
 298 536 298 536 305 528 c 2,15,-1
 385 445 l 2,16,17
 388 441 388 441 387 435.5 c 128,-1,18
 386 430 386 430 379 430 c 2,19,-1
 309 430 l 2,20,21
 286 430 286 430 275 444 c 2,22,-1
 229 500 l 1,0,-1
229 -10 m 0,23,24
 138 -10 138 -10 83.5 45.5 c 128,-1,25
 29 101 29 101 29 192 c 256,26,27
 29 283 29 283 82.5 338 c 128,-1,28
 136 393 136 393 227 393 c 0,29,30
 319 393 319 393 373 338 c 128,-1,31
 427 283 427 283 427 192 c 256,32,33
 427 101 427 101 374 45.5 c 128,-1,34
 321 -10 321 -10 229 -10 c 0,23,24
227 98 m 256,35,36
 258 98 258 98 283 117.5 c 128,-1,37
 308 137 308 137 308 190 c 0,38,39
 308 242 308 242 283.5 263 c 128,-1,40
 259 284 259 284 228 284 c 256,41,42
 197 284 197 284 172 263 c 128,-1,43
 147 242 147 242 147 190 c 0,44,45
 147 137 147 137 171.5 117.5 c 128,-1,46
 196 98 196 98 227 98 c 256,35,36
EndSplineSet
EndChar

StartChar: otilde
Encoding: 245 245 178
Width: 455
GlyphClass: 1
Flags: W
LayerCount: 2
Fore
SplineSet
83 428 m 2,0,1
 72 428 72 428 72 441 c 0,2,3
 75 490 75 490 95 516 c 128,-1,4
 115 542 115 542 150 542 c 0,5,6
 176 542 176 542 198.5 534 c 128,-1,7
 221 526 221 526 240.5 517.5 c 128,-1,8
 260 509 260 509 277 509 c 0,9,10
 295 509 295 509 299 533 c 0,11,12
 301 545 301 545 312 545 c 2,13,-1
 360 545 l 2,14,15
 373 545 373 545 371 532 c 0,16,17
 366 483 366 483 348 458.5 c 128,-1,18
 330 434 330 434 285 434 c 0,19,20
 265 434 265 434 243 441.5 c 128,-1,21
 221 449 221 449 201.5 456.5 c 128,-1,22
 182 464 182 464 167 464 c 0,23,24
 154 464 154 464 149.5 456.5 c 128,-1,25
 145 449 145 449 143 440 c 0,26,27
 142 428 142 428 130 428 c 2,28,-1
 83 428 l 2,0,1
229 -10 m 0,29,30
 138 -10 138 -10 83.5 45.5 c 128,-1,31
 29 101 29 101 29 192 c 256,32,33
 29 283 29 283 82.5 338 c 128,-1,34
 136 393 136 393 227 393 c 0,35,36
 319 393 319 393 373 338 c 128,-1,37
 427 283 427 283 427 192 c 256,38,39
 427 101 427 101 374 45.5 c 128,-1,40
 321 -10 321 -10 229 -10 c 0,29,30
227 98 m 256,41,42
 258 98 258 98 283 117.5 c 128,-1,43
 308 137 308 137 308 190 c 0,44,45
 308 242 308 242 283.5 263 c 128,-1,46
 259 284 259 284 228 284 c 256,47,48
 197 284 197 284 172 263 c 128,-1,49
 147 242 147 242 147 190 c 0,50,51
 147 137 147 137 171.5 117.5 c 128,-1,52
 196 98 196 98 227 98 c 256,41,42
EndSplineSet
EndChar

StartChar: odieresis
Encoding: 246 246 179
Width: 455
GlyphClass: 1
Flags: W
LayerCount: 2
Fore
SplineSet
78 481 m 256,0,1
 78 509 78 509 96.5 527.5 c 128,-1,2
 115 546 115 546 141 546 c 256,3,4
 167 546 167 546 185 527.5 c 128,-1,5
 203 509 203 509 203 481 c 256,6,7
 203 453 203 453 185 435 c 128,-1,8
 167 417 167 417 141 417 c 256,9,10
 115 417 115 417 96.5 435 c 128,-1,11
 78 453 78 453 78 481 c 256,0,1
254 481 m 256,12,13
 254 509 254 509 272 527.5 c 128,-1,14
 290 546 290 546 317 546 c 0,15,16
 343 546 343 546 361 527.5 c 128,-1,17
 379 509 379 509 379 481 c 256,18,19
 379 453 379 453 361 435 c 128,-1,20
 343 417 343 417 317 417 c 0,21,22
 290 417 290 417 272 435 c 128,-1,23
 254 453 254 453 254 481 c 256,12,13
229 -10 m 0,24,25
 138 -10 138 -10 83.5 45.5 c 128,-1,26
 29 101 29 101 29 192 c 256,27,28
 29 283 29 283 82.5 338 c 128,-1,29
 136 393 136 393 227 393 c 0,30,31
 319 393 319 393 373 338 c 128,-1,32
 427 283 427 283 427 192 c 256,33,34
 427 101 427 101 374 45.5 c 128,-1,35
 321 -10 321 -10 229 -10 c 0,24,25
227 98 m 256,36,37
 258 98 258 98 283 117.5 c 128,-1,38
 308 137 308 137 308 190 c 0,39,40
 308 242 308 242 283.5 263 c 128,-1,41
 259 284 259 284 228 284 c 256,42,43
 197 284 197 284 172 263 c 128,-1,44
 147 242 147 242 147 190 c 0,45,46
 147 137 147 137 171.5 117.5 c 128,-1,47
 196 98 196 98 227 98 c 256,36,37
EndSplineSet
EndChar

StartChar: divide
Encoding: 247 247 180
Width: 431
GlyphClass: 1
Flags: W
LayerCount: 2
Fore
SplineSet
152 421 m 0,0,1
 152 449 152 449 170.5 467.5 c 128,-1,2
 189 486 189 486 216 486 c 0,3,4
 242 486 242 486 259.5 467.5 c 128,-1,5
 277 449 277 449 277 421 c 0,6,7
 277 394 277 394 259.5 376 c 128,-1,8
 242 358 242 358 216 358 c 0,9,10
 189 358 189 358 170.5 376 c 128,-1,11
 152 394 152 394 152 421 c 0,0,1
30 236 m 2,12,-1
 30 305 l 2,13,14
 30 318 30 318 43 318 c 2,15,-1
 332 318 l 2,16,17
 402 318 402 318 402 251 c 2,18,-1
 402 236 l 2,19,20
 402 223 402 223 389 223 c 2,21,-1
 43 223 l 2,22,23
 30 223 30 223 30 236 c 2,12,-1
152 118 m 256,24,25
 152 146 152 146 170.5 164.5 c 128,-1,26
 189 183 189 183 216 183 c 0,27,28
 242 183 242 183 259.5 164.5 c 128,-1,29
 277 146 277 146 277 118 c 256,30,31
 277 90 277 90 259.5 72.5 c 128,-1,32
 242 55 242 55 216 55 c 0,33,34
 189 55 189 55 170.5 72.5 c 128,-1,35
 152 90 152 90 152 118 c 256,24,25
EndSplineSet
EndChar

StartChar: oslash
Encoding: 248 248 181
Width: 455
GlyphClass: 1
Flags: W
LayerCount: 2
Fore
SplineSet
229 -10 m 0,0,1
 138 -10 138 -10 83.5 45.5 c 128,-1,2
 29 101 29 101 29 192 c 256,3,4
 29 283 29 283 82.5 338 c 128,-1,5
 136 393 136 393 227 393 c 0,6,7
 319 393 319 393 373 338 c 128,-1,8
 427 283 427 283 427 192 c 256,9,10
 427 101 427 101 374 45.5 c 128,-1,11
 321 -10 321 -10 229 -10 c 0,0,1
155 141 m 1,12,-1
 246 282 l 1,13,14
 242 283 242 283 237.5 283.5 c 128,-1,15
 233 284 233 284 228 284 c 0,16,17
 197 284 197 284 172 263 c 128,-1,18
 147 242 147 242 147 190 c 0,19,20
 147 162 147 162 155 141 c 1,12,-1
300 238 m 1,21,-1
 212 99 l 1,22,23
 216 98 216 98 219.5 98 c 128,-1,24
 223 98 223 98 227 98 c 0,25,26
 258 98 258 98 283 117.5 c 128,-1,27
 308 137 308 137 308 190 c 0,28,29
 308 217 308 217 300 238 c 1,21,-1
EndSplineSet
EndChar

StartChar: ugrave
Encoding: 249 249 182
Width: 447
GlyphClass: 1
Flags: W
LayerCount: 2
Fore
SplineSet
94 524 m 2,0,1
 89 529 89 529 90.5 534.5 c 128,-1,2
 92 540 92 540 99 540 c 2,3,-1
 190 540 l 2,4,5
 207 540 207 540 220 528 c 2,6,-1
 311 445 l 2,7,8
 315 441 315 441 313.5 435.5 c 128,-1,9
 312 430 312 430 305 430 c 2,10,-1
 227 430 l 2,11,12
 204 430 204 430 191 442 c 2,13,-1
 94 524 l 2,0,1
223 -10 m 0,14,15
 157 -10 157 -10 116.5 15.5 c 128,-1,16
 76 41 76 41 58 87 c 128,-1,17
 40 133 40 133 40 192 c 2,18,-1
 40 369 l 2,19,20
 40 382 40 382 53 382 c 2,21,-1
 58 382 l 2,22,23
 105 382 105 382 129.5 360 c 128,-1,24
 154 338 154 338 154 284 c 2,25,-1
 154 176 l 2,26,27
 154 130 154 130 175 113 c 128,-1,28
 196 96 196 96 223 96 c 256,29,30
 250 96 250 96 271.5 113 c 128,-1,31
 293 130 293 130 293 175 c 2,32,-1
 293 369 l 2,33,34
 293 382 293 382 306 382 c 2,35,-1
 311 382 l 2,36,37
 359 382 359 382 383.5 360 c 128,-1,38
 408 338 408 338 408 284 c 2,39,-1
 408 185 l 2,40,41
 408 96 408 96 365 43 c 128,-1,42
 322 -10 322 -10 223 -10 c 0,14,15
EndSplineSet
EndChar

StartChar: uacute
Encoding: 250 250 183
Width: 447
GlyphClass: 1
Flags: W
LayerCount: 2
Fore
SplineSet
120 430 m 2,0,1
 113 430 113 430 111.5 435.5 c 128,-1,2
 110 441 110 441 114 445 c 2,3,-1
 205 528 l 2,4,5
 218 540 218 540 235 540 c 2,6,-1
 326 540 l 2,7,8
 333 540 333 540 334.5 534.5 c 128,-1,9
 336 529 336 529 331 524 c 2,10,-1
 234 442 l 2,11,12
 221 430 221 430 198 430 c 2,13,-1
 120 430 l 2,0,1
223 -10 m 0,14,15
 157 -10 157 -10 116.5 15.5 c 128,-1,16
 76 41 76 41 58 87 c 128,-1,17
 40 133 40 133 40 192 c 2,18,-1
 40 369 l 2,19,20
 40 382 40 382 53 382 c 2,21,-1
 58 382 l 2,22,23
 105 382 105 382 129.5 360 c 128,-1,24
 154 338 154 338 154 284 c 2,25,-1
 154 176 l 2,26,27
 154 130 154 130 175 113 c 128,-1,28
 196 96 196 96 223 96 c 256,29,30
 250 96 250 96 271.5 113 c 128,-1,31
 293 130 293 130 293 175 c 2,32,-1
 293 369 l 2,33,34
 293 382 293 382 306 382 c 2,35,-1
 311 382 l 2,36,37
 359 382 359 382 383.5 360 c 128,-1,38
 408 338 408 338 408 284 c 2,39,-1
 408 185 l 2,40,41
 408 96 408 96 365 43 c 128,-1,42
 322 -10 322 -10 223 -10 c 0,14,15
EndSplineSet
EndChar

StartChar: ucircumflex
Encoding: 251 251 184
Width: 447
GlyphClass: 1
Flags: W
LayerCount: 2
Fore
SplineSet
221 500 m 1,0,-1
 173 444 l 2,1,2
 162 430 162 430 139 430 c 2,3,-1
 70 430 l 2,4,5
 63 430 63 430 61.5 435.5 c 128,-1,6
 60 441 60 441 64 445 c 2,7,-1
 143 528 l 2,8,9
 150 536 150 536 156.5 538 c 128,-1,10
 163 540 163 540 173 540 c 2,11,-1
 268 540 l 2,12,13
 277 540 277 540 283.5 538 c 128,-1,14
 290 536 290 536 297 528 c 2,15,-1
 377 445 l 2,16,17
 380 441 380 441 379 435.5 c 128,-1,18
 378 430 378 430 371 430 c 2,19,-1
 301 430 l 2,20,21
 279 430 279 430 268 444 c 2,22,-1
 221 500 l 1,0,-1
223 -10 m 0,23,24
 157 -10 157 -10 116.5 15.5 c 128,-1,25
 76 41 76 41 58 87 c 128,-1,26
 40 133 40 133 40 192 c 2,27,-1
 40 369 l 2,28,29
 40 382 40 382 53 382 c 2,30,-1
 58 382 l 2,31,32
 105 382 105 382 129.5 360 c 128,-1,33
 154 338 154 338 154 284 c 2,34,-1
 154 176 l 2,35,36
 154 130 154 130 175 113 c 128,-1,37
 196 96 196 96 223 96 c 256,38,39
 250 96 250 96 271.5 113 c 128,-1,40
 293 130 293 130 293 175 c 2,41,-1
 293 369 l 2,42,43
 293 382 293 382 306 382 c 2,44,-1
 311 382 l 2,45,46
 359 382 359 382 383.5 360 c 128,-1,47
 408 338 408 338 408 284 c 2,48,-1
 408 185 l 2,49,50
 408 96 408 96 365 43 c 128,-1,51
 322 -10 322 -10 223 -10 c 0,23,24
EndSplineSet
EndChar

StartChar: udieresis
Encoding: 252 252 185
Width: 447
GlyphClass: 1
Flags: W
LayerCount: 2
Fore
SplineSet
74 481 m 256,0,1
 74 509 74 509 92.5 527.5 c 128,-1,2
 111 546 111 546 137 546 c 256,3,4
 163 546 163 546 181 527.5 c 128,-1,5
 199 509 199 509 199 481 c 256,6,7
 199 453 199 453 181 435 c 128,-1,8
 163 417 163 417 137 417 c 256,9,10
 111 417 111 417 92.5 435 c 128,-1,11
 74 453 74 453 74 481 c 256,0,1
250 481 m 256,12,13
 250 509 250 509 268.5 527.5 c 128,-1,14
 287 546 287 546 313 546 c 256,15,16
 339 546 339 546 357 527.5 c 128,-1,17
 375 509 375 509 375 481 c 256,18,19
 375 453 375 453 357 435 c 128,-1,20
 339 417 339 417 313 417 c 256,21,22
 287 417 287 417 268.5 435 c 128,-1,23
 250 453 250 453 250 481 c 256,12,13
223 -10 m 0,24,25
 157 -10 157 -10 116.5 15.5 c 128,-1,26
 76 41 76 41 58 87 c 128,-1,27
 40 133 40 133 40 192 c 2,28,-1
 40 369 l 2,29,30
 40 382 40 382 53 382 c 2,31,-1
 58 382 l 2,32,33
 105 382 105 382 129.5 360 c 128,-1,34
 154 338 154 338 154 284 c 2,35,-1
 154 176 l 2,36,37
 154 130 154 130 175 113 c 128,-1,38
 196 96 196 96 223 96 c 256,39,40
 250 96 250 96 271.5 113 c 128,-1,41
 293 130 293 130 293 175 c 2,42,-1
 293 369 l 2,43,44
 293 382 293 382 306 382 c 2,45,-1
 311 382 l 2,46,47
 359 382 359 382 383.5 360 c 128,-1,48
 408 338 408 338 408 284 c 2,49,-1
 408 185 l 2,50,51
 408 96 408 96 365 43 c 128,-1,52
 322 -10 322 -10 223 -10 c 0,24,25
EndSplineSet
EndChar

StartChar: yacute
Encoding: 253 253 186
Width: 412
GlyphClass: 1
Flags: W
LayerCount: 2
Fore
SplineSet
111 430 m 2,0,1
 104 430 104 430 102.5 435.5 c 128,-1,2
 101 441 101 441 105 445 c 2,3,-1
 197 528 l 2,4,5
 210 540 210 540 227 540 c 2,6,-1
 318 540 l 2,7,8
 325 540 325 540 326.5 534.5 c 128,-1,9
 328 529 328 529 323 524 c 2,10,-1
 226 442 l 2,11,12
 213 430 213 430 190 430 c 2,13,-1
 111 430 l 2,0,1
148 -10 m 1,14,-1
 9 369 l 2,15,16
 7 374 7 374 9.5 378 c 128,-1,17
 12 382 12 382 16 382 c 2,18,-1
 40 382 l 2,19,20
 75 382 75 382 95.5 373.5 c 128,-1,21
 116 365 116 365 130 344 c 128,-1,22
 144 323 144 323 157 284 c 2,23,-1
 211 128 l 1,24,-1
 292 369 l 2,25,26
 296 382 296 382 308 382 c 2,27,-1
 398 382 l 2,28,29
 403 382 403 382 404.5 378 c 128,-1,30
 406 374 406 374 404 369 c 2,31,-1
 276 7 l 2,32,33
 259 -42 259 -42 237.5 -82.5 c 128,-1,34
 216 -123 216 -123 185 -147 c 128,-1,35
 154 -171 154 -171 106 -171 c 0,36,37
 69 -171 69 -171 45 -155.5 c 128,-1,38
 21 -140 21 -140 9.5 -117 c 128,-1,39
 -2 -94 -2 -94 -2 -73 c 0,40,41
 -2 -65 -2 -65 1 -58.5 c 128,-1,42
 4 -52 4 -52 11 -52 c 0,43,44
 16 -52 16 -52 20 -55 c 0,45,46
 49 -74 49 -74 76 -74 c 0,47,48
 104 -74 104 -74 120 -57.5 c 128,-1,49
 136 -41 136 -41 148 -10 c 1,14,-1
EndSplineSet
EndChar

StartChar: thorn
Encoding: 254 254 187
Width: 468
GlyphClass: 1
Flags: W
LayerCount: 2
Fore
SplineSet
155 40 m 1,0,-1
 155 -147 l 2,1,2
 155 -160 155 -160 142 -160 c 2,3,-1
 54 -160 l 2,4,5
 41 -160 41 -160 41 -147 c 2,6,-1
 41 543 l 2,7,8
 41 556 41 556 54 556 c 2,9,-1
 59 556 l 2,10,11
 106 556 106 556 130.5 534 c 128,-1,12
 155 512 155 512 155 458 c 2,13,-1
 155 349 l 1,14,15
 171 366 171 366 197.5 379.5 c 128,-1,16
 224 393 224 393 258 393 c 0,17,18
 319 393 319 393 359 366.5 c 128,-1,19
 399 340 399 340 419.5 295 c 128,-1,20
 440 250 440 250 440 194 c 256,21,22
 440 138 440 138 420.5 92 c 128,-1,23
 401 46 401 46 363 18.5 c 128,-1,24
 325 -9 325 -9 268 -9 c 0,25,26
 195 -9 195 -9 155 40 c 1,0,-1
237 98 m 256,27,28
 275 98 275 98 298 124.5 c 128,-1,29
 321 151 321 151 321 195 c 0,30,31
 321 236 321 236 298 259.5 c 128,-1,32
 275 283 275 283 237 283 c 0,33,34
 200 283 200 283 177.5 260.5 c 128,-1,35
 155 238 155 238 155 195 c 0,36,37
 155 150 155 150 177 124 c 128,-1,38
 199 98 199 98 237 98 c 256,27,28
EndSplineSet
EndChar

StartChar: ydieresis
Encoding: 255 255 188
Width: 412
GlyphClass: 1
Flags: W
LayerCount: 2
Fore
SplineSet
50 481 m 256,0,1
 50 509 50 509 68.5 527.5 c 128,-1,2
 87 546 87 546 113 546 c 256,3,4
 139 546 139 546 157 527.5 c 128,-1,5
 175 509 175 509 175 481 c 256,6,7
 175 453 175 453 157 435 c 128,-1,8
 139 417 139 417 113 417 c 256,9,10
 87 417 87 417 68.5 435 c 128,-1,11
 50 453 50 453 50 481 c 256,0,1
226 481 m 256,12,13
 226 509 226 509 244 527.5 c 128,-1,14
 262 546 262 546 289 546 c 0,15,16
 315 546 315 546 333 527.5 c 128,-1,17
 351 509 351 509 351 481 c 256,18,19
 351 453 351 453 333 435 c 128,-1,20
 315 417 315 417 289 417 c 0,21,22
 262 417 262 417 244 435 c 128,-1,23
 226 453 226 453 226 481 c 256,12,13
148 -10 m 1,24,-1
 9 369 l 2,25,26
 7 374 7 374 9.5 378 c 128,-1,27
 12 382 12 382 16 382 c 2,28,-1
 40 382 l 2,29,30
 75 382 75 382 95.5 373.5 c 128,-1,31
 116 365 116 365 130 344 c 128,-1,32
 144 323 144 323 157 284 c 2,33,-1
 211 128 l 1,34,-1
 292 369 l 2,35,36
 296 382 296 382 308 382 c 2,37,-1
 398 382 l 2,38,39
 403 382 403 382 404.5 378 c 128,-1,40
 406 374 406 374 404 369 c 2,41,-1
 276 7 l 2,42,43
 259 -42 259 -42 237.5 -82.5 c 128,-1,44
 216 -123 216 -123 185 -147 c 128,-1,45
 154 -171 154 -171 106 -171 c 0,46,47
 69 -171 69 -171 45 -155.5 c 128,-1,48
 21 -140 21 -140 9.5 -117 c 128,-1,49
 -2 -94 -2 -94 -2 -73 c 0,50,51
 -2 -65 -2 -65 1 -58.5 c 128,-1,52
 4 -52 4 -52 11 -52 c 0,53,54
 16 -52 16 -52 20 -55 c 0,55,56
 49 -74 49 -74 76 -74 c 0,57,58
 104 -74 104 -74 120 -57.5 c 128,-1,59
 136 -41 136 -41 148 -10 c 1,24,-1
EndSplineSet
EndChar

StartChar: dotlessi
Encoding: 305 305 189
Width: 196
GlyphClass: 1
Flags: W
LayerCount: 2
Fore
SplineSet
41 13 m 2,0,-1
 41 369 l 2,1,2
 41 382 41 382 54 382 c 2,3,-1
 59 382 l 2,4,5
 106 382 106 382 130.5 360 c 128,-1,6
 155 338 155 338 155 284 c 2,7,-1
 155 13 l 2,8,9
 155 0 155 0 142 0 c 2,10,-1
 54 0 l 2,11,12
 41 0 41 0 41 13 c 2,0,-1
EndSplineSet
EndChar

StartChar: Lslash
Encoding: 321 321 190
Width: 400
GlyphClass: 1
Flags: W
LayerCount: 2
Fore
SplineSet
67 188 m 1,0,-1
 30 168 l 2,1,2
 25 165 25 165 20 167.5 c 128,-1,3
 15 170 15 170 15 176 c 2,4,-1
 15 245 l 2,5,6
 15 261 15 261 29 268 c 2,7,-1
 67 288 l 1,8,-1
 67 543 l 2,9,10
 67 556 67 556 80 556 c 2,11,-1
 90 556 l 2,12,13
 137 556 137 556 160.5 533.5 c 128,-1,14
 184 511 184 511 184 455 c 2,15,-1
 184 353 l 1,16,-1
 288 409 l 2,17,18
 293 412 293 412 298 409.5 c 128,-1,19
 303 407 303 407 303 401 c 2,20,-1
 303 332 l 2,21,22
 303 316 303 316 289 309 c 2,23,-1
 184 252 l 1,24,-1
 184 108 l 1,25,-1
 316 108 l 2,26,27
 386 108 386 108 386 42 c 2,28,-1
 386 17 l 2,29,30
 386 0 386 0 370 0 c 2,31,-1
 80 0 l 2,32,33
 67 0 67 0 67 13 c 2,34,-1
 67 188 l 1,0,-1
EndSplineSet
EndChar

StartChar: lslash
Encoding: 322 322 191
Width: 284
GlyphClass: 1
Flags: W
LayerCount: 2
Fore
SplineSet
61 185 m 1,0,-1
 30 168 l 2,1,2
 25 165 25 165 20 167.5 c 128,-1,3
 15 170 15 170 15 176 c 2,4,-1
 15 240 l 2,5,6
 15 256 15 256 29 263 c 2,7,-1
 61 280 l 1,8,-1
 61 543 l 2,9,10
 61 556 61 556 74 556 c 2,11,-1
 79 556 l 2,12,13
 126 556 126 556 150.5 534 c 128,-1,14
 175 512 175 512 175 458 c 2,15,-1
 175 343 l 1,16,-1
 215 365 l 2,17,18
 220 368 220 368 225 365.5 c 128,-1,19
 230 363 230 363 230 357 c 2,20,-1
 230 292 l 2,21,22
 230 276 230 276 216 269 c 2,23,-1
 175 247 l 1,24,-1
 175 144 l 2,25,26
 175 90 175 90 213 90 c 0,27,28
 227 90 227 90 235.5 94 c 128,-1,29
 244 98 244 98 254 105 c 0,30,31
 256 107 256 107 258.5 108.5 c 128,-1,32
 261 110 261 110 265 110 c 0,33,34
 271 110 271 110 273.5 105 c 128,-1,35
 276 100 276 100 276 95 c 0,36,37
 276 72 276 72 266.5 48 c 128,-1,38
 257 24 257 24 235 8 c 128,-1,39
 213 -8 213 -8 173 -8 c 0,40,41
 121 -8 121 -8 91 26.5 c 128,-1,42
 61 61 61 61 61 131 c 2,43,-1
 61 185 l 1,0,-1
EndSplineSet
EndChar

